<svg width="186" height="186" viewBox="0 0 186 186" fill="none" xmlns="http://www.w3.org/2000/svg">
<path fill-rule="evenodd" clip-rule="evenodd" d="M137.523 59.6364C139.272 59.7589 140.512 60.6115 141.243 62.1939C140.67 61.7379 140.128 61.2341 139.615 60.6826C139.187 60.4203 138.722 60.3041 138.22 60.3339C138.68 61.0958 139.145 61.8707 139.615 62.6589C139.021 62.0148 138.324 61.5498 137.523 61.2639C137.523 61.1864 137.523 61.1088 137.523 61.0314C126.363 60.7214 115.203 60.4113 104.043 60.1014C115.283 60.2553 126.443 60.1002 137.523 59.6364Z" fill="#085093"/>
<path fill-rule="evenodd" clip-rule="evenodd" d="M104.042 60.101C115.202 60.411 126.362 60.7211 137.522 61.031C126.052 61.0699 114.582 61.031 103.112 60.9148C102.173 60.8746 101.243 60.7583 100.322 60.566C101.534 60.1968 102.774 60.0418 104.042 60.101Z" fill="#0648AC"/>
<path fill-rule="evenodd" clip-rule="evenodd" d="M137.523 59.6362C126.444 60.1 115.284 60.2551 104.043 60.1012C102.775 60.0419 101.535 60.197 100.323 60.5662C101.244 60.7585 102.174 60.8747 103.113 60.915C114.583 61.0312 126.053 61.07 137.523 61.0312C137.523 61.1086 137.523 61.1863 137.523 61.2637C125.356 61.2249 113.188 61.2637 101.021 61.38C99.8521 61.8108 99.1546 62.6245 98.9284 63.8212C98.6966 68.5084 98.6191 73.2358 98.6959 78.0037C98.1534 78.0037 97.6108 78.0037 97.0684 78.0037C97.0684 73.1212 97.0684 68.2387 97.0684 63.3562C97.631 61.4371 98.8709 60.1584 100.788 59.52C113.072 59.3265 125.318 59.3653 137.523 59.6362Z" fill="#164E9C"/>
<path fill-rule="evenodd" clip-rule="evenodd" d="M137.525 61.2637C138.326 61.5497 139.023 62.0147 139.617 62.6587C139.577 62.8893 139.655 63.0442 139.85 63.1237C140.158 74.2793 140.158 85.4393 139.85 96.6037C139.695 96.6037 139.617 96.6811 139.617 96.8362C139.112 97.3012 138.57 97.7276 137.99 98.115C131.713 98.2312 125.435 98.27 119.157 98.2312C119.009 96.1236 119.164 94.1088 119.622 92.1862C119.981 92.3724 120.368 92.4499 120.785 92.4187C121.429 92.6877 122.127 92.8428 122.877 92.8837C125.118 93.1406 127.211 92.753 129.155 91.7212C129.539 91.684 129.849 91.5292 130.085 91.2562C132.391 90.2674 134.096 88.6399 135.2 86.3737C136.107 84.9701 136.65 83.42 136.827 81.7237C137.137 80.4838 137.137 79.2436 136.827 78.0037C136.644 75.4274 135.636 73.2575 133.805 71.4937C132.065 69.3419 129.817 67.9469 127.062 67.3087C126.985 67.3087 126.907 67.3087 126.83 67.3087C126.261 67.0825 125.64 67.0051 124.97 67.0762C124.322 66.8491 123.624 66.7716 122.877 66.8437C120.493 67.0832 118.323 67.8969 116.367 69.285C115.84 69.6165 115.453 70.0429 115.205 70.5637C115.127 70.5637 115.05 70.5637 114.972 70.5637C114.585 70.7962 114.275 71.1061 114.042 71.4937C113.711 71.8243 113.478 72.2119 113.345 72.6562C112.36 73.695 111.74 74.9349 111.485 76.3762C111.485 76.4536 111.485 76.5313 111.485 76.6087C111.29 76.874 111.135 77.1839 111.02 77.5387C106.993 77.7712 102.963 77.8486 98.9297 77.7712C98.9297 73.1212 98.9297 68.4712 98.9297 63.8212C99.1559 62.6245 99.8534 61.8108 101.022 61.38C113.189 61.2637 125.357 61.2249 137.525 61.2637Z" fill="#FDB500"/>
<path fill-rule="evenodd" clip-rule="evenodd" d="M104.043 61.9614C115.209 61.8542 126.369 61.9705 137.523 62.3102C131.943 62.349 126.363 62.3876 120.783 62.4264C115.123 62.4264 109.543 62.2713 104.043 61.9614Z" fill="#FDB500"/>
<path fill-rule="evenodd" clip-rule="evenodd" d="M141.245 62.1937C141.551 73.8942 141.551 85.5966 141.245 97.3012C140.955 98.2884 140.335 98.9859 139.385 99.3937C133.808 99.6066 128.228 99.6843 122.645 99.6262C122.676 99.2095 122.598 98.8222 122.412 98.4637C127.683 98.5025 132.953 98.4637 138.222 98.3474C138.974 98.0919 139.439 97.5883 139.617 96.8362C139.617 96.6811 139.695 96.6037 139.85 96.6037C140.16 91.1034 140.315 85.5234 140.315 79.8637C140.315 74.2039 140.16 68.6239 139.85 63.1237C139.655 63.0441 139.577 62.8893 139.617 62.6587C139.147 61.8705 138.682 61.0956 138.222 60.3337C138.723 60.3039 139.188 60.4201 139.617 60.6824C140.129 61.2339 140.672 61.7377 141.245 62.1937Z" fill="#064DA1"/>
<path fill-rule="evenodd" clip-rule="evenodd" d="M139.85 63.1239C140.16 68.6242 140.315 74.2042 140.315 79.8639C140.315 85.5237 140.16 91.1037 139.85 96.6039C140.157 85.4395 140.157 74.2795 139.85 63.1239Z" fill="#094586"/>
<path fill-rule="evenodd" clip-rule="evenodd" d="M141.244 62.1938C141.545 62.5058 141.738 62.8934 141.825 63.3563C141.98 74.2064 141.98 85.0562 141.825 95.9063C141.694 96.4231 141.5 96.8881 141.244 97.3013C141.551 85.5968 141.551 73.8944 141.244 62.1938Z" fill="#375D9A"/>
<path fill-rule="evenodd" clip-rule="evenodd" d="M108.461 66.1463C108.384 66.1463 108.306 66.1463 108.229 66.1463C106.291 66.1463 104.354 66.1463 102.416 66.1463C102.416 66.6888 102.416 67.2314 102.416 67.7738C102.19 67.2047 102.113 66.5846 102.184 65.9138C104.319 65.8378 106.411 65.9155 108.461 66.1463Z" fill="#5B7DB1"/>
<path fill-rule="evenodd" clip-rule="evenodd" d="M108.229 66.1463C108.235 66.6304 108.08 67.0568 107.764 67.4251C106.481 67.4653 105.241 67.5815 104.044 67.7738C103.501 67.7738 102.958 67.7738 102.416 67.7738C102.416 67.2314 102.416 66.6887 102.416 66.1463C104.353 66.1463 106.291 66.1463 108.229 66.1463Z" fill="#074B9F"/>
<path fill-rule="evenodd" clip-rule="evenodd" d="M108.228 66.1463C108.305 66.1463 108.383 66.1463 108.46 66.1463C108.46 66.6887 108.46 67.2314 108.46 67.7738C106.988 67.7738 105.515 67.7738 104.043 67.7738C105.241 67.5815 106.48 67.4653 107.763 67.4251C108.079 67.0568 108.234 66.6304 108.228 66.1463Z" fill="#16477E"/>
<path fill-rule="evenodd" clip-rule="evenodd" d="M126.829 67.3087C126.906 67.3087 126.984 67.3087 127.061 67.3087C127.518 67.6188 127.983 67.929 128.456 68.2387C127.777 68.5404 127.079 68.7729 126.364 68.9362C126.289 68.5762 126.056 68.4212 125.666 68.4712C125.666 68.0836 125.666 67.6962 125.666 67.3087C126.054 67.3087 126.441 67.3087 126.829 67.3087Z" fill="#0549A8"/>
<path fill-rule="evenodd" clip-rule="evenodd" d="M124.967 67.0762C125.638 67.0051 126.258 67.0825 126.827 67.3087C126.439 67.3087 126.052 67.3087 125.664 67.3087C125.664 67.6963 125.664 68.0836 125.664 68.4712C126.055 68.4212 126.287 68.5763 126.362 68.9362C125.897 68.9362 125.432 68.9362 124.967 68.9362C124.967 68.3161 124.967 67.6963 124.967 67.0762Z" fill="#1D5094"/>
<path fill-rule="evenodd" clip-rule="evenodd" d="M122.876 66.8438C122.876 67.4638 122.876 68.0837 122.876 68.7037C122.504 68.6414 122.194 68.7191 121.946 68.9362C120.438 69.2059 119.043 69.7484 117.761 70.5637C117.869 69.9134 118.257 69.6033 118.923 69.6337C118.923 69.3238 118.923 69.0137 118.923 68.7037C118.085 69.0439 117.233 69.3926 116.366 69.75C116.171 69.9851 116.094 70.2564 116.133 70.5637C115.823 70.5637 115.513 70.5637 115.203 70.5637C115.451 70.0429 115.839 69.6165 116.366 69.285C118.321 67.897 120.491 67.0832 122.876 66.8438Z" fill="#194E97"/>
<path fill-rule="evenodd" clip-rule="evenodd" d="M117.761 70.5639C117.373 70.5639 116.986 70.5639 116.598 70.5639C116.527 71.1274 116.604 71.6699 116.831 72.1914C117.682 72.8491 118.457 73.5854 119.156 74.4001C119.029 74.6152 118.874 74.8088 118.691 74.9814C118.272 74.6359 117.807 74.4034 117.296 74.2839C116.894 73.7142 116.545 73.0942 116.249 72.4239C115.934 72.2193 115.585 72.1416 115.203 72.1914C115.163 71.6424 115.085 71.1 114.971 70.5639C115.048 70.5639 115.126 70.5639 115.203 70.5639C115.513 70.5639 115.823 70.5639 116.133 70.5639C116.094 70.2565 116.171 69.9852 116.366 69.7501C117.233 69.3928 118.085 69.044 118.923 68.7039C118.923 69.0138 118.923 69.3239 118.923 69.6339C118.257 69.6034 117.869 69.9136 117.761 70.5639Z" fill="#034EA8"/>
<path fill-rule="evenodd" clip-rule="evenodd" d="M121.945 68.9362C122.194 68.719 122.504 68.6414 122.875 68.7037C123.102 69.2728 123.179 69.8929 123.108 70.5637C123.108 72.7336 123.108 74.9037 123.108 77.0737C122.876 74.4027 122.799 71.6901 122.875 68.9362C122.565 68.9362 122.255 68.9362 121.945 68.9362Z" fill="#CAE2FB"/>
<path fill-rule="evenodd" clip-rule="evenodd" d="M122.875 66.8436C123.622 66.7715 124.32 66.849 124.968 67.0761C124.968 67.6962 124.968 68.316 124.968 68.9361C124.736 71.452 124.659 74.0095 124.735 76.6086C124.27 76.6086 123.805 76.6086 123.34 76.6086C123.416 74.5512 123.338 72.5362 123.108 70.5636C123.179 69.8929 123.101 69.2728 122.875 68.7036C122.875 68.0835 122.875 67.4637 122.875 66.8436Z" fill="#064CA1"/>
<path fill-rule="evenodd" clip-rule="evenodd" d="M102.416 70.3312C104.431 70.3312 106.446 70.3312 108.461 70.3312C108.461 70.8737 108.461 71.4163 108.461 71.9587C106.446 71.9587 104.431 71.9587 102.416 71.9587C102.416 71.4163 102.416 70.8737 102.416 70.3312Z" fill="#074CA0"/>
<path fill-rule="evenodd" clip-rule="evenodd" d="M127.06 67.3087C129.815 67.9469 132.062 69.3419 133.802 71.4937C133.955 71.9549 134.11 72.4199 134.267 72.8887C134.111 73.2746 133.879 73.5845 133.57 73.8187C133.225 73.448 132.876 73.0607 132.524 72.6562C130.583 74.6357 128.607 76.5733 126.595 78.4687C125.217 77.8307 125.14 77.1332 126.362 76.3762C126.328 76.6207 126.366 76.8532 126.479 77.0737C126.556 76.9962 126.634 76.9186 126.711 76.8412C127.099 77.4612 127.486 77.4612 127.874 76.8412C127.988 76.5405 128.026 76.2304 127.99 75.9112C128.372 75.9609 128.721 75.8833 129.036 75.6787C129.069 75.2088 129.108 74.7824 129.152 74.3999C128.932 74.2876 128.7 74.249 128.455 74.2837C129.338 73.2844 130.268 72.3158 131.245 71.3774C129.788 70.184 128.16 69.3702 126.362 68.9362C127.078 68.7729 127.776 68.5404 128.455 68.2387C127.982 67.929 127.517 67.6188 127.06 67.3087Z" fill="#124C9C"/>
<path fill-rule="evenodd" clip-rule="evenodd" d="M102.416 70.3312C102.416 70.8737 102.416 71.4163 102.416 71.9587C104.431 71.9587 106.446 71.9587 108.461 71.9587C106.411 72.1896 104.319 72.2673 102.184 72.1912C102.113 71.5205 102.19 70.9004 102.416 70.3312Z" fill="#809ECC"/>
<path fill-rule="evenodd" clip-rule="evenodd" d="M114.042 71.4939C114.697 71.5639 114.852 71.8738 114.507 72.4239C114.141 72.7689 113.831 73.1565 113.577 73.5864C113.361 73.31 113.283 73 113.344 72.6564C113.478 72.2121 113.711 71.8245 114.042 71.4939Z" fill="#1347AB"/>
<path fill-rule="evenodd" clip-rule="evenodd" d="M133.803 71.4937C135.634 73.2575 136.642 75.4274 136.825 78.0037C136.375 78.9837 136.22 80.0685 136.36 81.2587C136.053 81.2192 135.782 81.2966 135.547 81.4912C135.193 82.8151 134.844 84.1324 134.5 85.4437C134.268 85.4437 134.035 85.4437 133.803 85.4437C134.247 84.5563 134.557 83.6263 134.733 82.6537C134.973 82.0815 135.128 81.4617 135.198 80.7937C135.43 80.7937 135.663 80.7937 135.895 80.7937C135.895 80.5612 135.895 80.3287 135.895 80.0962C133.165 80.0597 133.165 79.7496 135.895 79.1662C135.704 78.9602 135.471 78.8828 135.198 78.9337C135.045 78.2467 134.967 77.5492 134.965 76.8412C134.445 75.8775 133.98 74.8701 133.57 73.8187C133.879 73.5846 134.112 73.2747 134.268 72.8887C134.11 72.42 133.955 71.955 133.803 71.4937Z" fill="#164D93"/>
<path fill-rule="evenodd" clip-rule="evenodd" d="M117.761 70.5638C117.538 70.8332 117.306 71.1046 117.063 71.3775C118.877 73.3861 120.737 75.3623 122.643 77.3063C122.21 77.5453 121.9 77.894 121.713 78.3525C121.558 78.5076 121.403 78.5076 121.248 78.3525C119.734 77.187 118.416 75.8306 117.296 74.2838C117.807 74.4033 118.272 74.6358 118.691 74.9813C118.874 74.8088 119.028 74.6151 119.156 74.4C118.457 73.5854 117.682 72.849 116.831 72.1913C116.604 71.6698 116.526 71.1274 116.598 70.5638C116.986 70.5638 117.373 70.5638 117.761 70.5638Z" fill="#1C4F93"/>
<path fill-rule="evenodd" clip-rule="evenodd" d="M134.965 76.8413C134.922 75.9234 134.767 75.0322 134.5 74.1675C134.616 74.0513 134.733 73.935 134.849 73.8188C135.202 74.5423 135.59 75.2398 136.011 75.9113C136.166 76.6088 136.166 77.3063 136.011 78.0038C135.915 78.11 135.799 78.1877 135.663 78.2363C135.544 77.682 135.311 77.217 134.965 76.8413Z" fill="#024EA7"/>
<path fill-rule="evenodd" clip-rule="evenodd" d="M114.972 70.5638C115.086 71.0999 115.164 71.6423 115.204 72.1913C115.587 72.1415 115.935 72.2192 116.251 72.4238C116.546 73.0941 116.895 73.7142 117.297 74.2838C116.619 73.8713 116.038 73.3289 115.553 72.6563C114.225 74.1961 113.412 75.9787 113.112 78.0038C112.933 77.8264 112.817 77.5939 112.763 77.3063C112.651 77.5267 112.612 77.7592 112.647 78.0038C112.337 78.0038 112.027 78.0038 111.717 78.0038C111.787 77.4088 111.709 76.8662 111.484 76.3763C111.74 74.935 112.36 73.6951 113.344 72.6563C113.283 72.9999 113.361 73.3098 113.577 73.5863C113.831 73.1564 114.141 72.7688 114.507 72.4238C114.852 71.8737 114.697 71.5638 114.042 71.4938C114.274 71.1062 114.584 70.7963 114.972 70.5638Z" fill="#17509B"/>
<path fill-rule="evenodd" clip-rule="evenodd" d="M97.069 63.3563C97.069 68.2388 97.069 73.1213 97.069 78.0038C80.9491 78.0038 64.8289 78.0038 48.709 78.0038C64.7122 77.7716 80.7547 77.6939 96.8365 77.7713C96.7595 72.926 96.8372 68.1209 97.069 63.3563Z" fill="#A2AEC2"/>
<path fill-rule="evenodd" clip-rule="evenodd" d="M98.9291 63.8214C98.9291 68.4714 98.9291 73.1214 98.9291 77.7714C102.962 77.8488 106.992 77.7714 111.019 77.5389C111.134 77.1841 111.289 76.8741 111.484 76.6089C111.484 77.0739 111.484 77.5389 111.484 78.0039C107.222 78.0039 102.959 78.0039 98.6966 78.0039C98.6199 73.236 98.6973 68.5086 98.9291 63.8214Z" fill="#8A9EBC"/>
<path fill-rule="evenodd" clip-rule="evenodd" d="M121.944 68.9362C122.254 68.9362 122.564 68.9362 122.874 68.9362C122.798 71.6902 122.876 74.4028 123.107 77.0737C123.727 77.0737 124.347 77.0737 124.967 77.0737C124.967 74.3611 124.967 71.6488 124.967 68.9362C125.432 68.9362 125.897 68.9362 126.362 68.9362C128.16 69.3703 129.787 70.184 131.244 71.3775C130.267 72.3158 129.337 73.2844 128.454 74.2837C127.679 74.9038 126.982 75.6013 126.362 76.3762C125.139 77.1332 125.217 77.8307 126.594 78.4687C128.606 76.5734 130.582 74.6357 132.523 72.6562C132.876 73.0608 133.225 73.4481 133.569 73.8187C133.98 74.8701 134.445 75.8775 134.964 76.8412C134.966 77.5492 135.044 78.2467 135.197 78.9337C132.407 78.9337 129.617 78.9337 126.827 78.9337C126.827 79.5538 126.827 80.1736 126.827 80.7937C129.42 81.0251 132.055 81.1025 134.732 81.0262C134.732 81.5686 134.732 82.1113 134.732 82.6537C134.556 83.6263 134.246 84.5563 133.802 85.4437C133.38 85.9701 132.954 86.5125 132.523 87.0712C130.582 85.0917 128.606 83.1541 126.594 81.2587C126.25 81.7198 125.862 82.1459 125.432 82.5375C127.373 84.4012 129.233 86.3386 131.012 88.35C130.952 88.6431 130.797 88.8756 130.547 89.0475C128.793 90.189 126.933 90.7703 124.967 90.7912C124.967 88.0786 124.967 85.3663 124.967 82.6537C124.347 82.6537 123.727 82.6537 123.107 82.6537C122.876 85.3247 122.798 88.0373 122.874 90.7912C122.564 90.7912 122.254 90.7912 121.944 90.7912C121.789 90.7912 121.634 90.7912 121.479 90.7912C120.611 90.605 119.759 90.3725 118.922 90.0937C118.922 88.7761 118.922 87.4588 118.922 86.1412C120.239 84.9787 121.479 83.7388 122.642 82.4212C122.647 81.933 122.492 81.5068 122.177 81.1425C122.237 80.8493 122.392 80.6168 122.642 80.445C122.183 80.3299 121.718 80.2911 121.247 80.3287C121.247 79.8637 121.247 79.3987 121.247 78.9337C119.85 78.9723 118.455 78.9335 117.062 78.8175C116.502 78.4206 115.882 78.2269 115.202 78.2362C114.554 78.0091 113.856 77.9316 113.109 78.0037C113.409 75.9786 114.223 74.1961 115.551 72.6562C116.035 73.3288 116.616 73.8713 117.294 74.2837C118.415 75.8305 119.732 77.1869 121.247 78.3525C121.402 78.5075 121.557 78.5075 121.712 78.3525C121.899 77.894 122.209 77.5452 122.642 77.3062C120.736 75.3623 118.876 73.386 117.062 71.3775C117.305 71.1045 117.537 70.8332 117.759 70.5637C119.042 69.7483 120.437 69.2059 121.944 68.9362Z" fill="#000052"/>
<path fill-rule="evenodd" clip-rule="evenodd" d="M124.969 68.9362C124.969 71.6488 124.969 74.3611 124.969 77.0737C124.349 77.0737 123.729 77.0737 123.109 77.0737C123.109 74.9038 123.109 72.7336 123.109 70.5637C123.34 72.5362 123.418 74.5513 123.342 76.6087C123.807 76.6087 124.272 76.6087 124.737 76.6087C124.661 74.0096 124.738 71.4521 124.969 68.9362Z" fill="#1D5594"/>
<path fill-rule="evenodd" clip-rule="evenodd" d="M128.456 74.2839C128.701 74.2492 128.933 74.2878 129.154 74.4001C129.109 74.7826 129.07 75.209 129.038 75.6789C128.722 75.8835 128.374 75.9611 127.991 75.9114C128.028 76.2306 127.989 76.5408 127.875 76.8414C127.488 77.4615 127.1 77.4615 126.713 76.8414C126.635 76.9188 126.558 76.9965 126.48 77.0739C126.368 76.8535 126.329 76.621 126.364 76.3764C126.984 75.6015 127.681 74.904 128.456 74.2839Z" fill="#0B4AA3"/>
<path fill-rule="evenodd" clip-rule="evenodd" d="M111.484 76.3762C111.709 76.866 111.787 77.4087 111.716 78.0037C112.026 78.0037 112.337 78.0037 112.646 78.0037C112.612 77.7591 112.65 77.5266 112.763 77.3062C112.817 77.5938 112.933 77.8263 113.111 78.0037C113.859 77.9316 114.556 78.009 115.204 78.2362C115.381 78.4147 115.614 78.531 115.901 78.5849C115.779 78.7458 115.624 78.8621 115.436 78.9337C114.131 78.7502 112.813 78.634 111.484 78.5849C91.6441 78.5075 71.8039 78.4298 51.964 78.3524C50.8361 78.312 49.751 78.1957 48.709 78.0037C64.8289 78.0037 80.9491 78.0037 97.069 78.0037C97.6114 78.0037 98.1541 78.0037 98.6965 78.0037C102.959 78.0037 107.222 78.0037 111.484 78.0037C111.484 77.5387 111.484 77.0737 111.484 76.6087C111.484 76.5312 111.484 76.4536 111.484 76.3762Z" fill="#0549A3"/>
<path fill-rule="evenodd" clip-rule="evenodd" d="M48.7084 78.0038C49.7504 78.1958 50.8355 78.3121 51.9634 78.3525C71.8033 78.43 91.6434 78.5076 111.483 78.585C112.813 78.6341 114.13 78.7503 115.436 78.9338C115.624 78.8622 115.779 78.7459 115.901 78.585C115.613 78.5311 115.381 78.4148 115.203 78.2363C115.883 78.227 116.503 78.4207 117.063 78.8175C118.456 78.9336 119.851 78.9724 121.248 78.9338C121.248 79.3988 121.248 79.8638 121.248 80.3288C120.396 80.6387 119.543 80.9489 118.691 81.2588C118.433 81.4425 118.123 81.5587 117.761 81.6075C117.981 81.7198 118.214 81.7584 118.458 81.7238C118.47 86.397 118.47 91.047 118.458 95.6738C118.497 96.0623 118.653 96.3722 118.923 96.6038C118.923 97.1462 118.923 97.6889 118.923 98.2313C120.041 98.4608 121.203 98.5384 122.411 98.4638C122.597 98.8223 122.675 99.2097 122.643 99.6263C128.227 99.6844 133.807 99.6068 139.383 99.3938C138.817 99.7125 138.197 99.945 137.523 100.091C131.283 100.014 125.083 100.092 118.923 100.324C118.731 99.2817 118.615 98.1966 118.575 97.0688C118.249 96.6754 117.823 96.5203 117.296 96.6038C117.372 99.3578 117.295 102.07 117.063 104.741C117.102 96.9909 117.063 89.241 116.947 81.4913C116.603 80.7201 116.022 80.2551 115.203 80.0963C93.0775 79.864 70.9123 79.7864 48.7084 79.8638C69.5943 79.6315 90.5193 79.5539 111.483 79.6313C112.733 79.7075 113.973 79.6301 115.203 79.3988C92.7239 79.2428 70.2488 79.0877 47.7784 78.9338C47.3813 78.981 47.0713 79.1747 46.8484 79.515C47.2552 79.8217 47.7202 79.938 48.2434 79.8638C47.5412 80.3341 46.9986 80.9542 46.6159 81.7238C46.5384 81.7238 46.4608 81.7238 46.3834 81.7238C46.3834 81.1814 46.3834 80.6387 46.3834 80.0963C45.8084 80.0005 45.4985 80.233 45.4534 80.7938C45.332 81.1935 45.0995 81.5034 44.7559 81.7238C45.3253 79.6817 46.6428 78.4418 48.7084 78.0038Z" fill="#285AA0"/>
<path fill-rule="evenodd" clip-rule="evenodd" d="M111.485 79.6312C100.984 79.4761 90.4436 79.3987 79.8646 79.3987C69.2459 79.3987 58.7059 79.5537 48.2446 79.8637C47.7215 79.9378 47.2565 79.8216 46.8496 79.5149C47.0726 79.1745 47.3825 78.9809 47.7796 78.9337C70.25 79.0876 92.7251 79.2426 115.205 79.3987C113.974 79.63 112.734 79.7074 111.485 79.6312Z" fill="#0A4CA4"/>
<path fill-rule="evenodd" clip-rule="evenodd" d="M111.484 79.6313C90.5201 79.5539 69.5951 79.6315 48.7091 79.8638C48.5541 79.8638 48.3992 79.8638 48.2441 79.8638C58.7055 79.5539 69.2454 79.3988 79.8641 79.3988C90.4431 79.3988 100.983 79.4762 111.484 79.6313Z" fill="#0B3F90"/>
<path fill-rule="evenodd" clip-rule="evenodd" d="M135.2 78.9339C135.473 78.8829 135.706 78.9604 135.897 79.1664C133.167 79.7497 133.167 80.0598 135.897 80.0964C135.897 80.3289 135.897 80.5614 135.897 80.7939C135.665 80.7939 135.432 80.7939 135.2 80.7939C134.812 80.7939 134.425 80.7939 134.037 80.7939C131.755 80.5627 129.43 80.4853 127.062 80.5614C127.062 80.0964 127.062 79.6314 127.062 79.1664C129.816 79.2426 132.529 79.1652 135.2 78.9339Z" fill="#044CA3"/>
<path fill-rule="evenodd" clip-rule="evenodd" d="M116.133 79.1662C117.683 79.1662 119.233 79.1662 120.783 79.1662C120.783 79.6312 120.783 80.0962 120.783 80.5612C120.081 80.5996 119.384 80.5607 118.69 80.4449C118.885 80.2099 118.962 79.9386 118.923 79.6312C118.613 79.6312 118.303 79.6312 117.993 79.6312C117.96 80.0088 118.115 80.2799 118.458 80.4449C117.993 80.6 117.528 80.6 117.063 80.4449C116.663 80.0899 116.198 79.8574 115.668 79.7474C115.96 79.6505 116.115 79.4568 116.133 79.1662Z" fill="#044AA7"/>
<path fill-rule="evenodd" clip-rule="evenodd" d="M48.2447 79.8638C48.3998 79.8638 48.5546 79.8638 48.7097 79.8638C70.9137 79.7864 93.0788 79.864 115.205 80.0963C92.847 80.2423 70.527 80.3971 48.2447 80.5613C47.9875 80.8472 47.755 81.1183 47.5472 81.375C47.6246 81.4524 47.7023 81.5301 47.7797 81.6075C47.6255 89.0708 47.4705 96.5496 47.3147 104.044C47.2363 96.5238 47.0038 89.0838 46.6172 81.7238C46.9999 80.9542 47.5425 80.3341 48.2447 79.8638Z" fill="#094DB3"/>
<path fill-rule="evenodd" clip-rule="evenodd" d="M135.198 78.9338C132.527 79.1652 129.815 79.2426 127.061 79.1663C127.061 79.6313 127.061 80.0963 127.061 80.5613C129.428 80.4853 131.753 80.5627 134.036 80.7938C131.633 80.7938 129.231 80.7938 126.828 80.7938C126.828 80.1738 126.828 79.5539 126.828 78.9338C129.618 78.9338 132.408 78.9338 135.198 78.9338Z" fill="#215691"/>
<path fill-rule="evenodd" clip-rule="evenodd" d="M126.828 80.7938C129.231 80.7938 131.633 80.7938 134.036 80.7938C134.423 80.7938 134.811 80.7938 135.198 80.7938C135.128 81.4617 134.973 82.0816 134.733 82.6538C134.733 82.1113 134.733 81.5687 134.733 81.0263C132.057 81.1025 129.421 81.0251 126.828 80.7938Z" fill="#FDB500"/>
<path fill-rule="evenodd" clip-rule="evenodd" d="M121.247 80.3289C121.718 80.2912 122.183 80.33 122.642 80.4451C122.392 80.6169 122.237 80.8494 122.177 81.1426C122.492 81.5069 122.647 81.9331 122.642 82.4214C122.186 82.0819 121.759 81.6943 121.363 81.2589C120.657 81.9259 119.998 82.6234 119.387 83.3514C119.013 82.7229 118.78 82.0254 118.689 81.2589C119.542 80.9489 120.394 80.6388 121.247 80.3289Z" fill="#FDB500"/>
<path fill-rule="evenodd" clip-rule="evenodd" d="M46.3813 81.7236C46.1879 89.5119 46.0716 97.3392 46.0326 105.206C45.818 105.499 45.6241 105.809 45.4513 106.136C45.2167 105.445 45.2167 104.747 45.4513 104.044C45.7557 96.3276 45.7557 88.5777 45.4513 80.7936C45.4964 80.2328 45.8064 80.0003 46.3813 80.0961C46.3813 80.6385 46.3813 81.1812 46.3813 81.7236Z" fill="#014EAB"/>
<path fill-rule="evenodd" clip-rule="evenodd" d="M48.2456 80.5614C70.7702 80.4528 93.3227 80.5691 115.903 80.9102C116.064 81.1582 116.18 81.4296 116.252 81.7239C116.484 87.313 116.368 92.893 115.903 98.4639C116.55 100.753 116.473 103.001 115.671 105.206C115.981 105.642 115.865 105.952 115.322 106.136C113.927 105.827 112.532 105.827 111.137 106.136C111.291 105.78 111.368 105.392 111.369 104.974C110.58 105.196 109.766 105.274 108.928 105.206C108.66 103.621 108.621 101.993 108.812 100.324C109.025 100.516 109.179 100.749 109.277 101.021C109.489 102.02 109.644 103.027 109.742 104.044C109.929 104.347 110.2 104.502 110.556 104.509C110.673 104.201 110.983 104.046 111.486 104.044C111.435 103.771 111.512 103.538 111.718 103.346C112.308 103.203 112.89 103.048 113.462 102.881C113.693 101.957 113.887 101.027 114.043 100.091C113.453 99.4674 113.453 98.8473 114.043 98.2314C114.41 98.0984 114.759 98.0208 115.089 97.9989C115.167 98.7739 115.244 99.549 115.322 100.324C115.391 99.117 115.507 97.9159 115.671 96.7202C115.374 96.1854 115.452 95.6816 115.903 95.2089C115.787 94.9764 115.671 94.7439 115.554 94.5114C115.363 96.0538 115.247 96.0538 115.206 94.5114C113.272 94.1992 112.032 94.9743 111.486 96.8364C111.728 97.3637 111.767 97.9062 111.602 98.4639C111.587 97.9099 111.393 97.7548 111.021 97.9989C110.828 97.0785 110.712 96.1485 110.672 95.2089C110.564 94.8762 110.37 94.6051 110.091 94.3952C110.581 94.1299 111.007 93.7811 111.369 93.3489C111.757 93.6588 112.144 93.6588 112.532 93.3489C113.448 91.4947 113.177 89.8284 111.718 88.3502C110.461 87.8656 109.221 87.9042 107.998 88.4664C107.841 88.2102 107.686 87.9777 107.533 87.7689C100.713 87.7689 93.893 87.7689 87.0731 87.7689C86.8469 88.3381 86.7694 88.9582 86.8406 89.6289C93.7382 89.6289 100.636 89.6289 107.533 89.6289C101.45 89.8224 95.3275 89.9386 89.1656 89.9777C95.3759 89.9777 101.576 90.1716 107.766 90.5589C107.606 93.0732 108.652 93.7707 110.904 92.6514C111.138 91.8393 111.022 91.1032 110.556 90.4427C109.468 90.3285 108.925 90.8321 108.928 91.9539C109.493 91.8646 110.035 91.7096 110.556 91.4889C110.429 91.9725 110.235 92.4375 109.974 92.8839C108.514 92.3668 108.165 91.4368 108.928 90.0939C110.927 89.5738 111.819 90.3487 111.602 92.4189C110.321 93.9888 108.888 94.1436 107.301 92.8839C107.019 93.0639 107.019 93.2576 107.301 93.4652C107.988 93.9983 108.763 94.3085 109.626 94.3952C109.08 94.4208 108.731 94.6921 108.579 95.2089C108.538 95.9187 108.421 96.6163 108.231 97.3014C107.786 96.6667 107.476 95.9692 107.301 95.2089C107.079 95.5681 107.002 95.9557 107.068 96.3714C106.058 96.3328 105.05 96.3717 104.046 96.4877C103.831 96.9622 103.754 97.466 103.813 97.9989C105.14 97.9224 106.457 98.0001 107.766 98.2314C107.717 98.3677 107.639 98.4839 107.533 98.5802C102.881 98.7311 98.231 98.6922 93.5831 98.4639C93.5831 98.2314 93.5831 97.9989 93.5831 97.7664C95.8472 97.7571 98.0947 97.9122 100.326 98.2314C100.926 98.0238 101.546 97.9464 102.186 97.9989C102.192 96.1636 102.347 96.1636 102.651 97.9989C102.844 96.6881 102.96 95.3707 102.999 94.0464C103.027 94.5642 103.221 94.9904 103.581 95.3252C104.52 95.3654 105.45 95.4816 106.371 95.6739C105.494 95.6263 104.564 95.7037 103.581 95.9064C104.655 96.1373 105.74 96.215 106.836 96.1389C106.899 95.6853 106.744 95.3366 106.371 95.0927C105.366 94.9767 104.359 94.9378 103.348 94.9764C103.318 93.3082 103.473 93.2306 103.813 94.7439C104.996 94.7314 106.158 94.7702 107.301 94.8602C106.261 94.5261 105.176 94.4098 104.046 94.5114C104.248 93.3585 103.783 92.8549 102.651 93.0002C102.838 93.0718 102.994 93.188 103.116 93.3489C102.685 94.2992 102.413 95.3066 102.302 96.3714C102.122 95.3508 102.161 94.3433 102.418 93.3489C102.219 93.1646 102.025 93.242 101.837 93.5814C101.721 94.7414 101.682 95.9039 101.721 97.0689C100.701 97.1447 99.6939 97.0671 98.6981 96.8364C99.5507 96.6814 100.403 96.5265 101.256 96.3714C101.54 95.8276 101.54 95.2852 101.256 94.7439C101.066 95.2708 100.95 95.8134 100.907 96.3714C100.15 95.8216 99.4142 95.8216 98.6981 96.3714C98.6207 96.294 98.543 96.2163 98.4656 96.1389C99.0696 95.3733 99.7283 95.2959 100.442 95.9064C100.554 95.686 100.593 95.4535 100.558 95.2089C99.9334 95.1708 99.3133 95.2096 98.6981 95.3252C98.2817 95.8864 97.8943 96.4677 97.5356 97.0689C97.4582 96.9915 97.3805 96.9139 97.3031 96.8364C97.5356 96.3714 97.7681 95.9064 98.0006 95.4414C97.9232 95.364 97.8455 95.2863 97.7681 95.2089C97.357 95.776 97.0471 96.3961 96.8381 97.0689C96.0806 97.2821 95.3057 97.3598 94.5131 97.3014C94.0646 94.6356 92.5919 93.8604 90.0956 94.9764C87.5992 93.8604 86.1266 94.6356 85.6781 97.3014C85.3589 97.3379 85.0487 97.2991 84.7481 97.1852C83.7121 94.6909 81.9297 93.916 79.4006 94.8602C78.9356 95.4026 78.4706 95.9453 78.0056 96.4877C77.705 96.6016 77.3948 96.6404 77.0756 96.6039C75.9842 94.1641 74.2791 93.6602 71.9606 95.0927C71.3538 95.6923 71.0438 96.4286 71.0306 97.3014C69.6449 97.261 68.3275 97.1833 67.0781 97.0689C67.0781 97.3014 67.0781 97.5339 67.0781 97.7664C67.0007 97.7664 66.923 97.7664 66.8456 97.7664C66.8456 97.5339 66.8456 97.3014 66.8456 97.0689C66.2255 97.0689 65.6057 97.0689 64.9856 97.0689C64.947 95.6718 64.9858 94.2768 65.1018 92.8839C65.1416 94.1311 65.2578 95.3712 65.4506 96.6039C65.6105 95.3131 65.7654 94.0343 65.9156 92.7677C64.9856 92.6126 64.0556 92.6126 63.1256 92.7677C63.3853 93.4821 63.4241 94.2185 63.2418 94.9764C63.1256 94.7051 62.9319 94.5114 62.6606 94.3952C62.1021 94.2059 61.5597 94.2447 61.0331 94.5114C60.2117 94.7748 59.6692 95.3173 59.4056 96.1389C59.5523 96.5988 59.5523 97.1026 59.4056 97.6502C58.1838 97.8987 56.9436 98.0926 55.6856 98.2314C55.3385 98.3805 55.106 98.613 54.9881 98.9289C54.9881 101.642 54.9881 104.354 54.9881 107.066C52.8182 107.066 50.648 107.066 48.4781 107.066C48.4007 107.066 48.323 107.066 48.2456 107.066C47.6211 106.316 47.1175 105.464 46.7343 104.509C46.6181 96.9143 46.5793 89.3192 46.6181 81.7239C47.0047 89.0839 47.2372 96.5239 47.3156 104.044C47.4714 96.5498 47.6264 89.0709 47.7806 81.6077C47.7032 81.5302 47.6255 81.4526 47.5481 81.3752C47.7559 81.1185 47.9884 80.8474 48.2456 80.5614Z" fill="#FDB500"/>
<path fill-rule="evenodd" clip-rule="evenodd" d="M76.6085 83.1188C69.7886 83.1188 62.9684 83.1188 56.1485 83.1188C56.1485 83.6612 56.1485 84.2039 56.1485 84.7463C62.9684 84.7463 69.7886 84.7463 76.6085 84.7463C69.7509 84.9783 62.8533 85.0558 55.916 84.9788C55.916 84.2813 55.916 83.5838 55.916 82.8863C62.8533 82.8094 69.7509 82.8868 76.6085 83.1188Z" fill="#6E95C7"/>
<path fill-rule="evenodd" clip-rule="evenodd" d="M107.528 84.7464C100.671 84.9784 93.7733 85.0558 86.8359 84.9789C86.8359 84.2814 86.8359 83.5839 86.8359 82.8864C93.8109 82.8864 100.786 82.8864 107.761 82.8864C107.832 83.5571 107.755 84.1772 107.528 84.7464Z" fill="#7099C9"/>
<path fill-rule="evenodd" clip-rule="evenodd" d="M136.825 81.7237C136.647 83.42 136.105 84.9701 135.197 86.3737C135.696 84.8736 136.006 83.3238 136.127 81.7237C136.36 81.7237 136.592 81.7237 136.825 81.7237Z" fill="#184D8C"/>
<path fill-rule="evenodd" clip-rule="evenodd" d="M45.4534 80.7938C45.7577 88.5779 45.7577 96.3278 45.4534 104.044C45.2209 104.044 44.9884 104.044 44.7559 104.044C44.7559 96.6038 44.7559 89.1638 44.7559 81.7238C45.0995 81.5034 45.332 81.1935 45.4534 80.7938Z" fill="#094999"/>
<path fill-rule="evenodd" clip-rule="evenodd" d="M122.644 82.4213C121.482 83.7389 120.242 84.9788 118.924 86.1413C118.892 85.7637 119.047 85.4926 119.389 85.3275C119.139 85.1557 118.984 84.9232 118.924 84.63C119.246 84.2587 119.401 83.8326 119.389 83.3513C120 82.6233 120.659 81.9258 121.365 81.2588C121.762 81.6943 122.188 82.0818 122.644 82.4213Z" fill="#114C97"/>
<path fill-rule="evenodd" clip-rule="evenodd" d="M76.6084 83.1188C76.6084 83.6612 76.6084 84.2039 76.6084 84.7463C69.7885 84.7463 62.9684 84.7463 56.1484 84.7463C56.1484 84.2039 56.1484 83.6612 56.1484 83.1188C62.9684 83.1188 69.7885 83.1188 76.6084 83.1188Z" fill="#064B98"/>
<path fill-rule="evenodd" clip-rule="evenodd" d="M107.53 84.7462C100.71 84.7462 93.8902 84.7462 87.0703 84.7462C87.0703 84.2038 87.0703 83.6611 87.0703 83.1187C93.8902 83.1187 100.71 83.1187 107.53 83.1187C107.53 83.6611 107.53 84.2038 107.53 84.7462Z" fill="#064A97"/>
<path fill-rule="evenodd" clip-rule="evenodd" d="M136.825 78.0037C137.135 79.2436 137.135 80.4838 136.825 81.7237C136.593 81.7237 136.36 81.7237 136.128 81.7237C136.007 83.3238 135.697 84.8736 135.198 86.3737C135.026 86.3433 134.871 86.3821 134.733 86.49C134.259 87.8294 133.871 87.8294 133.57 86.49C133.721 86.1552 133.798 85.8064 133.803 85.4437C134.035 85.4437 134.268 85.4437 134.5 85.4437C134.844 84.1324 135.193 82.8151 135.547 81.4912C135.782 81.2966 136.053 81.2192 136.36 81.2587C136.22 80.0686 136.375 78.9837 136.825 78.0037Z" fill="#0E4DA8"/>
<path fill-rule="evenodd" clip-rule="evenodd" d="M46.3837 81.7237C46.4611 81.7237 46.5388 81.7237 46.6162 81.7237C46.5774 89.319 46.6162 96.9141 46.7325 104.509C47.1156 105.464 47.6192 106.316 48.2437 107.066C47.4479 106.567 46.8666 105.869 46.5 104.974C46.3837 97.224 46.3449 89.4741 46.3837 81.7237Z" fill="#E5F1FD"/>
<path fill-rule="evenodd" clip-rule="evenodd" d="M123.108 82.6537C123.108 82.7311 123.108 82.8088 123.108 82.8862C123.184 85.6401 123.107 88.3527 122.875 91.0237C122.504 91.086 122.194 91.0083 121.945 90.7912C122.255 90.7912 122.565 90.7912 122.875 90.7912C122.799 88.0372 122.876 85.3246 123.108 82.6537Z" fill="#FDB500"/>
<path fill-rule="evenodd" clip-rule="evenodd" d="M123.109 82.8862C123.109 82.8088 123.109 82.7311 123.109 82.6537C123.729 82.6537 124.349 82.6537 124.969 82.6537C124.969 85.3663 124.969 88.0786 124.969 90.7912C124.738 88.1979 124.661 85.5627 124.737 82.8862C124.194 82.8862 123.652 82.8862 123.109 82.8862Z" fill="#356397"/>
<path fill-rule="evenodd" clip-rule="evenodd" d="M133.802 85.4438C133.798 85.8065 133.721 86.1553 133.57 86.4901C133.871 87.8295 134.258 87.8295 134.732 86.4901C134.871 86.3822 135.026 86.3434 135.197 86.3738C134.094 88.64 132.389 90.2675 130.082 91.2563C129.292 90.7804 128.439 90.7028 127.525 91.0238C127.574 91.1601 127.651 91.2763 127.757 91.3726C127.472 91.5542 127.162 91.6704 126.827 91.7213C126.466 91.4779 126.078 91.3228 125.665 91.2563C125.665 91.5663 125.665 91.8764 125.665 92.1863C126.854 92.2024 128.017 92.0473 129.152 91.7213C127.209 92.7532 125.116 93.1408 122.875 92.8838C122.875 92.2638 122.875 91.6439 122.875 91.0238C123.106 88.3529 123.184 85.6403 123.107 82.8863C123.65 82.8863 124.193 82.8863 124.735 82.8863C124.659 85.5629 124.736 88.198 124.967 90.7913C126.934 90.7704 128.794 90.1892 130.547 89.0476C130.797 88.8758 130.952 88.6433 131.012 88.3501C129.234 86.3387 127.374 84.4013 125.432 82.5376C125.863 82.1461 126.25 81.7199 126.595 81.2589C128.607 83.1542 130.583 85.0918 132.524 87.0713C132.955 86.5127 133.381 85.9702 133.802 85.4438Z" fill="#124D9B"/>
<path fill-rule="evenodd" clip-rule="evenodd" d="M87.0718 87.7687C93.8917 87.7687 100.712 87.7687 107.532 87.7687C107.532 88.0012 107.532 88.2337 107.532 88.4662C101.409 88.4274 95.2862 88.4662 89.1643 88.5825C95.0163 88.6215 100.829 88.7378 106.602 88.9312C100.394 88.9029 94.1937 88.9417 88.0018 89.0475C88.351 88.9119 88.6609 88.7183 88.9318 88.4662C88.4644 88.0777 87.922 87.9227 87.3043 88.0012C87.2571 88.4407 87.4119 88.7894 87.7693 89.0475C87.64 89.1365 87.5626 89.2528 87.5368 89.3962C87.108 88.9826 86.9532 88.4402 87.0718 87.7687Z" fill="#084A9C"/>
<path fill-rule="evenodd" clip-rule="evenodd" d="M107.532 88.4663C107.532 88.6214 107.532 88.7763 107.532 88.9313C107.222 88.9313 106.911 88.9313 106.602 88.9313C100.829 88.7379 95.0161 88.6217 89.1641 88.5826C95.286 88.4663 101.409 88.4275 107.532 88.4663Z" fill="#015187"/>
<path fill-rule="evenodd" clip-rule="evenodd" d="M56.1484 87.7687C62.9684 87.7687 69.7885 87.7687 76.6084 87.7687C76.6084 88.3112 76.6084 88.8538 76.6084 89.3962C69.7885 89.3962 62.9684 89.3962 56.1484 89.3962C56.1484 88.8538 56.1484 88.3112 56.1484 87.7687Z" fill="#064A99"/>
<path fill-rule="evenodd" clip-rule="evenodd" d="M58.7051 88.0011C63.8982 87.9623 69.0906 88.0011 74.2826 88.1174C69.3231 88.2336 64.3632 88.2725 59.4026 88.2336C59.4026 88.4661 59.4026 88.6986 59.4026 88.9311C64.3632 88.8923 69.3231 88.9311 74.2826 89.0474C69.0906 89.1636 63.8982 89.2025 58.7051 89.1636C58.7051 88.7761 58.7051 88.3887 58.7051 88.0011Z" fill="#0947B3"/>
<path fill-rule="evenodd" clip-rule="evenodd" d="M106.603 88.9314C106.913 88.9314 107.223 88.9314 107.533 88.9314C107.533 89.0865 107.533 89.2413 107.533 89.3964C100.868 89.3964 94.2027 89.3964 87.5376 89.3964C87.5635 89.2529 87.6409 89.1367 87.7701 89.0476C87.4128 88.7896 87.2579 88.4408 87.3051 88.0014C87.9229 87.9228 88.4653 88.0779 88.9326 88.4664C88.6618 88.7184 88.3519 88.9121 88.0026 89.0476C94.1946 88.9419 100.394 88.903 106.603 88.9314Z" fill="#0548A7"/>
<path fill-rule="evenodd" clip-rule="evenodd" d="M56.1487 87.7687C56.1487 88.3112 56.1487 88.8538 56.1487 89.3962C62.9686 89.3962 69.7887 89.3962 76.6087 89.3962C69.7511 89.6283 62.8535 89.7057 55.9162 89.6287C55.845 88.958 55.9225 88.3379 56.1487 87.7687Z" fill="#3F72A4"/>
<path fill-rule="evenodd" clip-rule="evenodd" d="M87.0705 87.7687C86.952 88.4401 87.1068 88.9826 87.5355 89.3962C94.2006 89.3962 100.865 89.3962 107.531 89.3962C107.531 89.4736 107.531 89.5513 107.531 89.6287C100.633 89.6287 93.7356 89.6287 86.838 89.6287C86.7669 88.9579 86.8443 88.3378 87.0705 87.7687Z" fill="#4072A3"/>
<path fill-rule="evenodd" clip-rule="evenodd" d="M130.084 91.2563C129.848 91.5292 129.538 91.6841 129.154 91.7213C128.018 92.0472 126.855 92.2023 125.666 92.1863C125.666 91.8764 125.666 91.5662 125.666 91.2563C126.079 91.3228 126.467 91.4779 126.829 91.7213C127.163 91.6704 127.473 91.5541 127.759 91.3725C127.652 91.2763 127.575 91.16 127.526 91.0238C128.44 90.7027 129.293 90.7804 130.084 91.2563Z" fill="#064AA5"/>
<path fill-rule="evenodd" clip-rule="evenodd" d="M118.69 81.2589C118.78 82.0254 119.013 82.7229 119.387 83.3514C119.399 83.8326 119.244 84.2588 118.922 84.6301C118.982 84.9233 119.138 85.1558 119.387 85.3276C119.045 85.4927 118.89 85.7638 118.922 86.1413C118.922 87.4589 118.922 88.7763 118.922 90.0938C119.759 90.3726 120.611 90.6051 121.48 90.7913C121.744 91.1896 122.131 91.3447 122.642 91.2563C122.642 91.5663 122.642 91.8764 122.642 92.1863C122.031 92.324 121.411 92.4014 120.782 92.4188C120.366 92.45 119.978 92.3726 119.62 92.1863C119.455 91.9762 119.222 91.8987 118.922 91.9538C118.922 93.5039 118.922 95.0538 118.922 96.6038C118.651 96.3723 118.496 96.0624 118.457 95.6738C118.469 91.0471 118.469 86.3971 118.457 81.7239C118.213 81.7585 117.98 81.7199 117.76 81.6076C118.122 81.5588 118.432 81.4425 118.69 81.2589Z" fill="#0B49A5"/>
<path fill-rule="evenodd" clip-rule="evenodd" d="M121.481 90.7912C121.636 90.7912 121.791 90.7912 121.946 90.7912C122.194 91.0084 122.504 91.086 122.876 91.0237C122.876 91.6438 122.876 92.2636 122.876 92.8837C122.125 92.8428 121.428 92.6877 120.783 92.4187C121.412 92.4013 122.032 92.3238 122.643 92.1862C122.643 91.8763 122.643 91.5661 122.643 91.2562C122.132 91.3445 121.745 91.1895 121.481 90.7912Z" fill="#1C5189"/>
<path fill-rule="evenodd" clip-rule="evenodd" d="M119.619 92.1863C119.161 94.1089 119.007 96.1237 119.154 98.2313C119.077 98.2313 118.999 98.2313 118.922 98.2313C118.922 97.6889 118.922 97.1462 118.922 96.6038C118.922 95.0537 118.922 93.5039 118.922 91.9538C119.222 91.8987 119.455 91.9761 119.619 92.1863Z" fill="#889AAE"/>
<path fill-rule="evenodd" clip-rule="evenodd" d="M107.529 87.7687C107.682 87.9775 107.837 88.21 107.994 88.4662C109.218 87.9041 110.457 87.8655 111.714 88.35C113.173 89.8282 113.444 91.4945 112.528 93.3487C112.141 93.6587 111.753 93.6587 111.366 93.3487C111.003 93.781 110.577 94.1297 110.087 94.395C110.366 94.6049 110.56 94.876 110.668 95.2087C110.708 96.1483 110.825 97.0783 111.017 97.9987C111.389 97.7546 111.583 97.9097 111.598 98.4637C111.763 97.906 111.725 97.3635 111.482 96.8362C112.028 94.9741 113.268 94.199 115.202 94.5112C115.243 96.0536 115.359 96.0536 115.551 94.5112C115.667 94.7437 115.783 94.9762 115.899 95.2087C115.448 95.6814 115.37 96.1852 115.667 96.72C115.503 97.9157 115.387 99.1168 115.318 100.324C115.241 99.5488 115.163 98.7737 115.086 97.9987C114.755 98.0206 114.406 98.0982 114.039 98.2312C113.449 98.8471 113.449 99.4672 114.039 100.091C113.883 101.027 113.69 101.957 113.458 102.881C112.886 103.048 112.305 103.203 111.714 103.346C111.508 103.538 111.431 103.771 111.482 104.044C110.979 104.046 110.67 104.201 110.552 104.509C110.196 104.502 109.925 104.347 109.738 104.044C109.64 103.027 109.485 102.02 109.273 101.021C109.176 100.749 109.021 100.516 108.808 100.324C108.617 101.993 108.656 103.62 108.924 105.206C108.986 105.796 108.986 106.377 108.924 106.95C111.015 107.066 113.108 107.105 115.202 107.066C112.996 107.297 110.749 107.375 108.459 107.299C108.459 104.509 108.459 101.719 108.459 98.9287C90.7119 98.9287 72.9643 98.9287 55.2169 98.9287C55.1395 98.9287 55.0618 98.9287 54.9844 98.9287C55.1023 98.6128 55.3348 98.3803 55.6819 98.2312C56.9399 98.0924 58.1801 97.8985 59.4019 97.65C59.5486 97.1024 59.5486 96.5986 59.4019 96.1387C59.6655 95.3171 60.208 94.7747 61.0294 94.5112C61.556 94.2446 62.0984 94.2057 62.6569 94.395C62.9282 94.5112 63.1219 94.7049 63.2381 94.9762C63.4204 94.2183 63.3816 93.482 63.1219 92.7675C64.0519 92.6124 64.9819 92.6124 65.9119 92.7675C65.7617 94.0341 65.6068 95.3129 65.4469 96.6037C65.2541 95.371 65.1379 94.1309 65.0981 92.8837C64.9821 94.2766 64.9433 95.6716 64.9819 97.0687C65.602 97.0687 66.2218 97.0687 66.8419 97.0687C66.8419 97.3012 66.8419 97.5337 66.8419 97.7662C66.2541 97.9211 65.6343 98.0759 64.9819 98.2312C64.9333 98.3675 64.8556 98.4837 64.7494 98.58C74.2816 98.6211 83.8141 98.5825 93.3469 98.4637C93.3469 98.2312 93.3469 97.9987 93.3469 97.7662C88.2974 97.7344 83.3375 97.8118 78.4669 97.9987C78.2923 97.7951 78.176 97.5626 78.1181 97.3012C76.5281 97.447 74.9394 97.6795 73.3519 97.9987C71.2647 97.7934 69.1722 97.716 67.0744 97.7662C67.0744 97.5337 67.0744 97.3012 67.0744 97.0687C68.3238 97.1831 69.6412 97.2608 71.0269 97.3012C71.0401 96.4284 71.35 95.6921 71.9569 95.0925C74.2754 93.6601 75.9805 94.1639 77.0719 96.6037C77.3911 96.6402 77.7012 96.6014 78.0019 96.4875C78.4669 95.9451 78.9319 95.4024 79.3969 94.86C81.926 93.9158 83.7083 94.6907 84.7444 97.185C85.045 97.2989 85.3551 97.3377 85.6744 97.3012C86.1229 94.6354 87.5955 93.8602 90.0919 94.9762C92.5882 93.8602 94.0609 94.6354 94.5094 97.3012C95.302 97.3596 96.0769 97.2819 96.8344 97.0687C97.0434 96.3959 97.3533 95.7758 97.7644 95.2087C97.8418 95.2862 97.9194 95.3638 97.9969 95.4412C97.7644 95.9062 97.5319 96.3712 97.2994 96.8362C97.3768 96.9137 97.4544 96.9913 97.5319 97.0687C97.8906 96.4675 98.278 95.8862 98.6944 95.325C99.3096 95.2094 99.9296 95.1706 100.554 95.2087C100.589 95.4533 100.55 95.6858 100.438 95.9062C99.7246 95.2957 99.0659 95.3731 98.4619 96.1387C98.5393 96.2162 98.6169 96.2938 98.6944 96.3712C99.4105 95.8214 100.147 95.8214 100.903 96.3712C100.946 95.8132 101.063 95.2706 101.252 94.7437C101.536 95.285 101.536 95.8274 101.252 96.3712C100.399 96.5263 99.5469 96.6812 98.6944 96.8362C99.6902 97.0669 100.698 97.1445 101.717 97.0687C101.678 95.9037 101.717 94.7412 101.833 93.5812C102.022 93.2418 102.216 93.1644 102.414 93.3487C102.157 94.3431 102.119 95.3506 102.298 96.3712C102.41 95.3064 102.681 94.299 103.112 93.3487C102.99 93.1878 102.835 93.0716 102.647 93C103.78 92.8547 104.245 93.3583 104.042 94.5112C105.172 94.4096 106.257 94.5259 107.297 94.86C106.155 94.77 104.992 94.7312 103.809 94.7437C103.469 93.2304 103.314 93.308 103.344 94.9762C104.355 94.9376 105.362 94.9765 106.367 95.0925C106.74 95.3364 106.895 95.6851 106.832 96.1387C105.736 96.2148 104.651 96.1371 103.577 95.9062C104.56 95.7035 105.49 95.6261 106.367 95.6737C105.446 95.4815 104.516 95.3652 103.577 95.325C103.217 94.9902 103.024 94.564 102.996 94.0462C102.956 95.3706 102.84 96.6879 102.647 97.9987C102.343 96.1634 102.188 96.1634 102.182 97.9987C101.543 97.9462 100.923 98.0236 100.322 98.2312C98.091 97.912 95.8435 97.7569 93.5794 97.7662C93.5794 97.9987 93.5794 98.2312 93.5794 98.4637C98.2273 98.692 102.877 98.7309 107.529 98.58C107.636 98.4837 107.713 98.3675 107.762 98.2312C106.453 97.9999 105.136 97.9222 103.809 97.9987C103.75 97.4658 103.827 96.962 104.042 96.4875C105.046 96.3715 106.054 96.3326 107.064 96.3712C106.998 95.9555 107.076 95.5679 107.297 95.2087C107.472 95.969 107.783 96.6665 108.227 97.3012C108.418 96.6161 108.534 95.9186 108.576 95.2087C108.727 94.6919 109.076 94.4206 109.622 94.395C108.759 94.3083 107.984 93.9981 107.297 93.465C107.015 93.2574 107.015 93.0637 107.297 92.8837C108.884 94.1434 110.318 93.9886 111.598 92.4187C111.815 90.3486 110.924 89.5736 108.924 90.0937C108.162 91.4367 108.511 92.3667 109.971 92.8837C110.231 92.4373 110.425 91.9723 110.552 91.4887C110.032 91.7094 109.489 91.8645 108.924 91.9537C108.922 90.8319 109.464 90.3283 110.552 90.4425C111.018 91.103 111.134 91.8391 110.901 92.6512C108.648 93.7705 107.602 93.073 107.762 90.5587C101.572 90.1714 95.3722 89.9775 89.1619 89.9775C95.3238 89.9384 101.446 89.8222 107.529 89.6287C107.529 89.5513 107.529 89.4737 107.529 89.3962C107.529 89.2412 107.529 89.0863 107.529 88.9312C107.529 88.7762 107.529 88.6213 107.529 88.4662C107.529 88.2337 107.529 88.0012 107.529 87.7687Z" fill="#094DB3"/>
<path fill-rule="evenodd" clip-rule="evenodd" d="M66.8425 97.7663C66.9199 97.7663 66.9976 97.7663 67.075 97.7663C69.1728 97.716 71.2653 97.7935 73.3525 97.9988C74.94 97.6795 76.5287 97.447 78.1188 97.3013C78.1766 97.5626 78.2929 97.7951 78.4675 97.9988C83.3381 97.8118 88.2981 97.7344 93.3475 97.7663C93.3475 97.9988 93.3475 98.2313 93.3475 98.4638C83.8148 98.5826 74.2823 98.6212 64.75 98.58C64.8563 98.4838 64.9339 98.3675 64.9825 98.2313C65.6349 98.076 66.2547 97.9211 66.8425 97.7663Z" fill="#FDB500"/>
<path fill-rule="evenodd" clip-rule="evenodd" d="M118.923 100.324C118.923 101.796 118.923 103.269 118.923 104.741C118.893 105.964 118.428 106.972 117.528 107.764C117.451 107.764 117.373 107.764 117.296 107.764C117.481 107.069 117.83 106.449 118.342 105.904C118.457 105.288 118.496 104.668 118.458 104.044C118.226 104.044 117.993 104.044 117.761 104.044C117.457 104.965 117.147 105.895 116.831 106.834C116.385 107.115 115.959 107.425 115.552 107.764C115.374 107.747 115.258 107.67 115.203 107.531C115.878 107.272 116.343 106.807 116.598 106.136C116.884 105.718 117.039 105.253 117.063 104.741C117.294 102.07 117.372 99.3577 117.296 96.6037C117.822 96.5202 118.249 96.6753 118.574 97.0687C118.615 98.1965 118.731 99.2816 118.923 100.324Z" fill="#0E4A98"/>
<path fill-rule="evenodd" clip-rule="evenodd" d="M139.614 96.8364C139.436 97.5885 138.971 98.0921 138.219 98.3476C132.95 98.4639 127.68 98.5027 122.409 98.4639C121.202 98.5385 120.039 98.4608 118.922 98.2314C118.999 98.2314 119.077 98.2314 119.154 98.2314C125.432 98.2702 131.71 98.2314 137.987 98.1151C138.567 97.7278 139.11 97.3014 139.614 96.8364Z" fill="#446B9A"/>
<path fill-rule="evenodd" clip-rule="evenodd" d="M55.2168 99.1614C71.3377 99.0839 87.4576 99.1614 103.577 99.3939C103.891 99.7184 104.279 99.8735 104.739 99.8589C105.871 99.4764 107.034 99.3215 108.227 99.3939C108.367 101.049 108.212 102.638 107.762 104.16C108.191 104.812 108.346 105.548 108.227 106.369C107.762 106.369 107.297 106.369 106.832 106.369C106.903 105.698 106.826 105.078 106.599 104.509C106.599 103.269 106.599 102.029 106.599 100.789C90.0525 100.711 73.545 100.789 57.0768 101.021C57.0768 103.114 57.0768 105.206 57.0768 107.299C56.4567 106.989 55.8369 106.989 55.2168 107.299C55.2168 104.586 55.2168 101.874 55.2168 99.1614Z" fill="#13509C"/>
<path fill-rule="evenodd" clip-rule="evenodd" d="M113.112 102.649C113.112 101.796 113.112 100.944 113.112 100.091C112.569 100.091 112.026 100.091 111.484 100.091C111.484 100.944 111.484 101.796 111.484 102.649C111.255 101.766 111.178 100.836 111.252 99.8589C111.949 99.8589 112.647 99.8589 113.344 99.8589C113.418 100.836 113.34 101.766 113.112 102.649Z" fill="#849FC1"/>
<path fill-rule="evenodd" clip-rule="evenodd" d="M113.112 102.649C112.569 102.649 112.027 102.649 111.484 102.649C111.484 101.796 111.484 100.944 111.484 100.091C112.027 100.091 112.569 100.091 113.112 100.091C113.112 100.944 113.112 101.796 113.112 102.649Z" fill="#15498C"/>
<path fill-rule="evenodd" clip-rule="evenodd" d="M57.0781 101.021C73.5463 100.789 90.0538 100.711 106.601 100.789C106.601 102.029 106.601 103.269 106.601 104.509C106.601 105.439 106.601 106.369 106.601 107.299C106.523 107.299 106.446 107.299 106.368 107.299C102.881 107.299 99.3931 107.299 95.9056 107.299C99.1981 107.105 102.53 106.989 105.903 106.95C106.125 105.158 106.202 103.337 106.136 101.486C106.014 101.325 105.858 101.209 105.671 101.137C89.4733 101.021 73.2757 100.982 57.0781 101.021Z" fill="#000052"/>
<path fill-rule="evenodd" clip-rule="evenodd" d="M137.522 100.091C131.439 100.323 125.317 100.401 119.154 100.324C119.229 101.84 119.152 103.313 118.922 104.741C118.922 103.269 118.922 101.796 118.922 100.324C125.082 100.092 131.282 100.014 137.522 100.091Z" fill="#99B1CF"/>
<path fill-rule="evenodd" clip-rule="evenodd" d="M82.4184 103.114C82.8683 102.963 83.3333 102.885 83.8134 102.881C83.6832 103.694 83.2182 104.276 82.4184 104.625C81.8383 104.662 81.2959 104.7 80.7909 104.741C80.5584 104.354 80.2485 104.044 79.8609 103.811C79.6395 103.452 79.5621 103.064 79.6284 102.649C79.7007 102.421 79.8558 102.266 80.0934 102.184C80.657 102.398 81.122 102.747 81.4884 103.23C81.8204 103.365 82.1305 103.326 82.4184 103.114Z" fill="#154E9F"/>
<path fill-rule="evenodd" clip-rule="evenodd" d="M82.6555 107.764C82.261 107.344 82.0673 106.801 82.0743 106.136C81.9141 105.937 81.7204 105.782 81.493 105.671C81.338 106.402 81.1829 107.099 81.028 107.764C81.1013 106.864 81.0239 106.011 80.7955 105.206C80.1866 104.597 79.5668 103.977 78.9355 103.346C79.0955 103.031 79.328 102.799 79.633 102.649C79.5668 103.064 79.6442 103.452 79.8655 103.811C80.2531 104.044 80.563 104.353 80.7955 104.741C81.3005 104.7 81.843 104.661 82.423 104.625C83.2228 104.275 83.6878 103.694 83.818 102.881C83.3379 102.885 82.8729 102.962 82.423 103.114C83.2394 101.833 83.9369 101.911 84.5155 103.346C83.9768 104.001 83.3956 104.621 82.7718 105.206C82.6558 106.055 82.6172 106.908 82.6555 107.764Z" fill="#194D91"/>
<path fill-rule="evenodd" clip-rule="evenodd" d="M55.45 100.324C55.915 100.324 56.38 100.324 56.845 100.324C56.8534 102.343 56.776 104.358 56.6125 106.369C56.2303 106.319 55.8815 106.397 55.5663 106.601C55.45 104.51 55.4114 102.418 55.45 100.324Z" fill="#054EA2"/>
<path fill-rule="evenodd" clip-rule="evenodd" d="M115.204 80.0961C116.023 80.2549 116.604 80.7199 116.948 81.4911C117.064 89.2408 117.103 96.9907 117.064 104.741C117.04 105.253 116.885 105.718 116.599 106.136C116.197 106.537 115.732 106.847 115.204 107.066C113.11 107.105 111.018 107.066 108.927 106.95C108.988 106.377 108.988 105.796 108.927 105.206C109.765 105.273 110.579 105.196 111.368 104.974C111.367 105.392 111.289 105.779 111.135 106.136C112.53 105.826 113.925 105.826 115.32 106.136C115.864 105.952 115.98 105.642 115.669 105.206C116.471 103.001 116.549 100.753 115.902 98.4636C116.366 92.8927 116.483 87.3127 116.25 81.7236C116.179 81.4293 116.062 81.158 115.902 80.9099C93.3212 80.5688 70.7687 80.4526 48.2441 80.5611C70.5265 80.397 92.8465 80.2421 115.204 80.0961Z" fill="#094DB3"/>
<path fill-rule="evenodd" clip-rule="evenodd" d="M92.882 109.624C92.0183 109.642 91.1659 109.564 90.3245 109.391C90.5747 108.639 90.7298 107.864 90.7895 107.066C90.125 106.957 89.66 107.189 89.3945 107.764C89.3996 106.442 90.0197 106.055 91.2545 106.601C91.0936 107.391 91.0936 108.166 91.2545 108.926C91.8395 109.119 92.3822 109.352 92.882 109.624Z" fill="#15498A"/>
<path fill-rule="evenodd" clip-rule="evenodd" d="M54.9866 98.9287C55.064 98.9287 55.1416 98.9287 55.2191 98.9287C55.2191 99.0061 55.2191 99.0838 55.2191 99.1612C55.2191 101.874 55.2191 104.586 55.2191 107.299C55.1416 107.299 55.064 107.299 54.9866 107.299C52.7743 107.375 50.6044 107.297 48.4766 107.066C50.6465 107.066 52.8166 107.066 54.9866 107.066C54.9866 104.354 54.9866 101.641 54.9866 98.9287Z" fill="#BAD3EF"/>
<path fill-rule="evenodd" clip-rule="evenodd" d="M95.9043 107.299C99.3918 107.299 102.879 107.299 106.367 107.299C106.282 107.577 106.088 107.731 105.786 107.764C102.757 107.53 99.6954 107.492 96.6018 107.647C96.0164 108.068 96.0164 108.494 96.6018 108.926C96.3693 108.926 96.1368 108.926 95.9043 108.926C95.9043 108.384 95.9043 107.841 95.9043 107.299Z" fill="#114789"/>
<path fill-rule="evenodd" clip-rule="evenodd" d="M55.2168 99.1611C55.2168 99.0837 55.2168 99.0061 55.2168 98.9286C72.9642 98.9286 90.7119 98.9286 108.459 98.9286C108.459 101.719 108.459 104.509 108.459 107.299C110.749 107.375 112.996 107.297 115.202 107.066C115.73 106.847 116.195 106.537 116.597 106.136C116.342 106.807 115.877 107.272 115.202 107.531C112.656 107.675 110.137 107.752 107.646 107.764C107.387 107.406 107.039 107.251 106.599 107.299C106.599 106.369 106.599 105.439 106.599 104.509C106.826 105.078 106.903 105.698 106.832 106.369C107.297 106.369 107.762 106.369 108.227 106.369C108.346 105.548 108.191 104.812 107.762 104.16C108.212 102.637 108.367 101.049 108.227 99.3936C107.034 99.3213 105.871 99.4762 104.739 99.8586C104.279 99.8733 103.891 99.7182 103.577 99.3936C87.4576 99.1611 71.3376 99.0837 55.2168 99.1611Z" fill="#3D66A0"/>
<path fill-rule="evenodd" clip-rule="evenodd" d="M54.9856 107.299C55.063 107.299 55.1407 107.299 55.2181 107.299C55.8382 106.989 56.458 106.989 57.0781 107.299C57.1632 107.577 57.3569 107.731 57.6594 107.764C60.4835 107.461 63.3124 107.461 66.1456 107.764C60.0192 107.923 53.8966 108.078 47.7781 108.229C47.1771 108.096 46.9446 107.708 47.0806 107.066C47.3131 107.066 47.5456 107.066 47.7781 107.066C47.7272 107.339 47.8046 107.572 48.0106 107.764C50.2828 107.5 52.5302 107.5 54.7531 107.764C54.9387 107.657 55.0161 107.502 54.9856 107.299Z" fill="#064BAA"/>
<path fill-rule="evenodd" clip-rule="evenodd" d="M117.296 107.764C116.839 107.91 116.374 108.065 115.901 108.229C109.471 107.925 103.038 107.925 96.6031 108.229C102.884 108.307 109.084 108.54 115.203 108.926C109.003 108.926 102.803 108.926 96.6031 108.926C96.0177 108.495 96.0177 108.068 96.6031 107.648C99.6968 107.492 102.758 107.53 105.787 107.764C106.089 107.731 106.283 107.577 106.368 107.299C106.446 107.299 106.523 107.299 106.601 107.299C107.04 107.252 107.389 107.406 107.647 107.764C110.139 107.752 112.657 107.675 115.203 107.531C115.258 107.67 115.374 107.747 115.552 107.764C115.959 107.425 116.385 107.115 116.831 106.834C117.147 105.895 117.457 104.965 117.761 104.044C117.993 104.044 118.226 104.044 118.458 104.044C118.496 104.668 118.457 105.289 118.342 105.904C117.83 106.449 117.481 107.069 117.296 107.764Z" fill="#044AA8"/>
<path fill-rule="evenodd" clip-rule="evenodd" d="M44.7545 81.7237C44.7545 89.1637 44.7545 96.6037 44.7545 104.044C44.987 104.044 45.2195 104.044 45.452 104.044C45.2174 104.747 45.2174 105.445 45.452 106.136C45.6248 105.809 45.8187 105.499 46.0333 105.206C46.0723 97.3393 46.1886 89.512 46.382 81.7237C46.3432 89.4741 46.382 97.224 46.4983 104.974C46.8649 105.869 47.4462 106.567 48.242 107.066C48.3194 107.066 48.3971 107.066 48.4745 107.066C50.6023 107.297 52.7723 107.375 54.9845 107.299C55.015 107.502 54.9375 107.657 54.752 107.764C52.5291 107.5 50.2817 107.5 48.0095 107.764C47.8035 107.572 47.7261 107.339 47.777 107.066C47.5445 107.066 47.312 107.066 47.0795 107.066C46.9435 107.708 47.176 108.095 47.777 108.229C53.8955 108.078 60.0181 107.923 66.1445 107.764C63.3113 107.461 60.4824 107.461 57.6582 107.764C57.3558 107.731 57.1621 107.577 57.077 107.299C60.1769 107.299 63.2771 107.299 66.377 107.299C66.377 107.686 66.377 108.074 66.377 108.461C60.2495 108.308 54.2045 108.463 48.242 108.926C46.3088 108.426 45.1074 107.186 44.6383 105.206C44.445 97.3393 44.4839 89.512 44.7545 81.7237Z" fill="#115097"/>
<path fill-rule="evenodd" clip-rule="evenodd" d="M117.296 107.764C116.778 108.45 116.081 108.837 115.204 108.926C109.084 108.54 102.884 108.307 96.6035 108.229C103.038 107.925 109.471 107.925 115.901 108.229C116.374 108.065 116.839 107.91 117.296 107.764Z" fill="#084D96"/>
<path fill-rule="evenodd" clip-rule="evenodd" d="M82.6509 107.764C82.6509 108.849 82.6509 109.934 82.6509 111.019C82.1085 111.019 81.5659 111.019 81.0234 111.019C81.0234 109.934 81.0234 108.849 81.0234 107.764C81.1783 107.099 81.3334 106.402 81.4884 105.671C81.7158 105.782 81.9095 105.937 82.0697 106.136C82.0627 106.801 82.2564 107.344 82.6509 107.764Z" fill="#0A4BA1"/>
<path fill-rule="evenodd" clip-rule="evenodd" d="M66.3791 108.461C66.3791 108.694 66.3791 108.926 66.3791 109.159C60.2941 109.236 54.2491 109.158 48.2441 108.926C54.2066 108.463 60.2516 108.308 66.3791 108.461Z" fill="#1A4FA4"/>
<path fill-rule="evenodd" clip-rule="evenodd" d="M72.6569 106.369C73.1461 106.299 73.6111 106.377 74.0519 106.601C74.1984 107.444 74.4309 108.258 74.7494 109.043C76.3769 110.011 78.0044 110.98 79.6319 111.949C79.4115 112.517 79.0627 112.982 78.5856 113.344C76.9442 112.543 75.3555 111.651 73.8194 110.67C72.8231 110.832 71.8155 111.026 70.7969 111.251C70.2156 109.834 70.6806 109.059 72.1919 108.926C72.4525 108.313 72.4525 107.693 72.1919 107.066C72.2946 106.778 72.4497 106.546 72.6569 106.369Z" fill="#1D5099"/>
<path fill-rule="evenodd" clip-rule="evenodd" d="M95.9043 107.299C95.9043 107.841 95.9043 108.384 95.9043 108.926C96.1368 108.926 96.3693 108.926 96.6018 108.926C102.802 108.926 109.002 108.926 115.202 108.926C108.809 109.158 102.377 109.236 95.9043 109.159C95.5944 108.539 95.5944 107.919 95.9043 107.299Z" fill="#416EA7"/>
<path fill-rule="evenodd" clip-rule="evenodd" d="M117.294 107.764C117.372 107.764 117.449 107.764 117.527 107.764C117.425 108.602 116.96 109.106 116.132 109.275C109.35 109.468 102.607 109.429 95.9043 109.159C102.377 109.236 108.809 109.158 115.202 108.926C116.079 108.837 116.776 108.45 117.294 107.764Z" fill="#FDB500"/>
<path fill-rule="evenodd" clip-rule="evenodd" d="M80.793 105.206C81.0213 106.011 81.0987 106.864 81.0255 107.764C81.0255 108.849 81.0255 109.934 81.0255 111.019C81.5679 111.019 82.1105 111.019 82.653 111.019C82.0838 111.245 81.4637 111.322 80.793 111.251C80.793 109.236 80.793 107.221 80.793 105.206Z" fill="#5A80B5"/>
<path fill-rule="evenodd" clip-rule="evenodd" d="M92.8825 109.624C92.9448 109.996 92.8672 110.305 92.65 110.554C91.0888 110.325 89.5389 110.248 88 110.321C88.4424 109.712 88.9849 109.208 89.6275 108.81C89.4768 108.475 89.3994 108.126 89.395 107.764C89.6605 107.189 90.1255 106.957 90.79 107.066C90.7302 107.864 90.5752 108.639 90.325 109.391C91.1664 109.564 92.0188 109.642 92.8825 109.624Z" fill="#034DA6"/>
<path fill-rule="evenodd" clip-rule="evenodd" d="M96.6018 110.089C121.402 110.244 121.402 110.399 96.6018 110.554C96.6018 110.786 96.6018 111.019 96.6018 111.251C102.802 111.212 109.002 111.251 115.202 111.368C108.847 111.484 102.492 111.523 96.1368 111.484C96.1763 111.176 96.0989 110.905 95.9043 110.67C96.1533 110.472 96.3858 110.278 96.6018 110.089Z" fill="#FDB500"/>
<path fill-rule="evenodd" clip-rule="evenodd" d="M89.3953 107.764C89.3997 108.126 89.4772 108.475 89.6278 108.81C88.9852 109.208 88.4428 109.712 88.0003 110.321C89.5392 110.248 91.0891 110.325 92.6503 110.554C92.6503 110.786 92.6503 111.019 92.6503 111.251C91.7887 111.068 90.9363 110.835 90.0928 110.554C88.3965 111.48 86.6913 112.41 84.9778 113.344C84.4517 112.912 84.1806 112.369 84.1641 111.716C85.7339 110.796 87.3228 109.904 88.9303 109.043C89.0719 108.59 89.227 108.163 89.3953 107.764Z" fill="#194E96"/>
<path fill-rule="evenodd" clip-rule="evenodd" d="M78.4675 114.971C79.0178 115.29 79.4052 115.755 79.63 116.366C77.9058 117.48 76.162 118.566 74.3987 119.621C74.1563 120.379 74.04 121.153 74.05 121.946C73.4209 121.929 72.8008 121.851 72.19 121.714C72.3181 120.945 72.3955 120.17 72.4225 119.389C71.8024 119.234 71.1826 119.079 70.5625 118.924C70.6399 118.304 70.7176 117.684 70.795 117.064C71.6678 117.34 72.559 117.572 73.4687 117.761C75.162 116.851 76.8284 115.921 78.4675 114.971Z" fill="#194E9B"/>
<path fill-rule="evenodd" clip-rule="evenodd" d="M91.2553 121.016C90.877 120.521 90.4509 120.056 89.9766 119.621C89.8215 120.241 89.8215 120.861 89.9766 121.481C90.0656 121.611 90.1819 121.688 90.3253 121.714C90.3253 121.791 90.3253 121.869 90.3253 121.946C90.0928 121.946 89.8603 121.946 89.6278 121.946C89.5418 121.051 89.3093 120.198 88.9303 119.389C87.3607 118.43 85.7718 117.5 84.1641 116.599C84.1952 115.014 84.8539 114.665 86.1403 115.553C87.2642 116.309 88.4267 117.006 89.6278 117.645C90.5804 117.626 91.5104 117.433 92.4178 117.064C92.8598 117.582 93.0923 118.202 93.1153 118.924C92.4613 118.935 91.8414 119.09 91.2553 119.389C91.1258 119.905 91.1258 120.447 91.2553 121.016Z" fill="#184D9A"/>
<path fill-rule="evenodd" clip-rule="evenodd" d="M82.653 117.296C82.1105 117.296 81.5679 117.296 81.0255 117.296C81.1013 119.277 81.0238 121.214 80.793 123.109C80.793 121.094 80.793 119.079 80.793 117.064C81.4637 116.993 82.0838 117.07 82.653 117.296Z" fill="#5C80B2"/>
<path fill-rule="evenodd" clip-rule="evenodd" d="M91.2544 121.016C91.2544 121.249 91.2544 121.481 91.2544 121.714C90.9445 121.714 90.6344 121.714 90.3244 121.714C90.181 121.688 90.0647 121.611 89.9757 121.481C89.8206 120.861 89.8206 120.241 89.9757 119.621C90.45 120.056 90.8762 120.521 91.2544 121.016Z" fill="#0848A7"/>
<path fill-rule="evenodd" clip-rule="evenodd" d="M91.2562 121.016C91.4733 121.264 91.551 121.574 91.4887 121.946C91.1011 121.946 90.7137 121.946 90.3262 121.946C90.3262 121.869 90.3262 121.791 90.3262 121.714C90.6361 121.714 90.9462 121.714 91.2562 121.714C91.2562 121.481 91.2562 121.249 91.2562 121.016Z" fill="#9FB3DD"/>
<path fill-rule="evenodd" clip-rule="evenodd" d="M82.6555 117.296C82.617 119.235 82.6555 121.173 82.7718 123.109C83.3956 123.694 83.9768 124.314 84.5155 124.969C84.2233 125.475 83.8745 125.94 83.4693 126.364C82.9927 125.808 82.45 125.343 81.8418 124.969C81.3508 125.226 80.9244 125.575 80.563 126.015C79.8311 126.029 79.2887 125.68 78.9355 124.969C79.5633 124.347 80.1834 123.727 80.7955 123.109C81.0264 121.214 81.1038 119.276 81.028 117.296C81.5705 117.296 82.1131 117.296 82.6555 117.296Z" fill="#134D99"/>
</svg>
