<svg width="107" height="53" viewBox="0 0 107 53" fill="none" xmlns="http://www.w3.org/2000/svg">
<path d="M104.989 0H2.01104C0.900685 0.000838791 0.000837288 0.900684 0 2.01104C0 2.05716 11.2839 50.0821 11.2839 50.0821C11.3258 51.1623 12.2131 52.0169 13.2941 52.0177H93.7059C94.7869 52.0168 95.6742 51.1623 95.7162 50.0821C95.7162 50.0821 107 2.05612 107 2.01104C106.999 0.900684 106.099 0.000837289 104.989 0ZM94.5153 50.0076C94.5145 50.4546 94.153 50.816 93.706 50.8169H13.2941C12.8472 50.816 12.4857 50.4546 12.4849 50.0076C12.4849 49.9615 1.20445 1.95153 1.20445 1.95153C1.23716 1.5297 1.58855 1.20346 2.01121 1.20263H104.989C105.412 1.20346 105.763 1.52968 105.796 1.95153C105.796 1.95153 94.5153 49.9625 94.5153 50.0076Z" fill="#000052"/>
<path d="M85.5478 13.2186H21.4501C21.0434 13.2253 20.6567 13.398 20.3783 13.6958C20.1007 13.9935 19.9556 14.391 19.9766 14.7977L24.1731 45.1892V45.1883C24.1698 46.0102 24.8306 46.6794 25.6525 46.6853H81.3451C82.1384 46.6903 82.7909 46.063 82.8185 45.2705L87.0269 14.7159C87.0311 13.8941 86.3686 13.2248 85.5475 13.219L85.5478 13.2186ZM81.6222 45.188C81.6272 45.3456 81.5031 45.4781 81.3454 45.4832H25.6528C25.5002 45.4832 25.3761 45.3515 25.3702 45.1066L21.1737 14.7152C21.1686 14.5575 21.2928 14.4259 21.4504 14.42H85.5481C85.6789 14.4217 85.7938 14.5072 85.8307 14.633L81.6222 45.188Z" fill="#000052"/>
<path d="M80.1185 15.2487H26.8927C26.5195 15.2512 26.1639 15.4047 25.9056 15.6731C25.6465 15.9423 25.5073 16.3037 25.5182 16.6761L27.7866 43.2804C27.7832 44.0368 28.3929 44.6524 29.1494 44.6566H77.8495C78.5925 44.6625 79.203 44.0729 79.224 43.3307C79.224 43.3307 81.4832 16.6405 81.4832 16.6255C81.4857 15.8691 80.8749 15.2529 80.1185 15.2487ZM45.3109 32.174L45.2614 30.5554H61.7354L61.6859 32.174H45.3109ZM61.6498 33.3766L61.6003 34.9951H45.3962L45.3468 33.3766H61.6498ZM45.2244 29.3529L45.1749 27.7343L61.8217 27.7351L61.7722 29.3537L45.2244 29.3529ZM45.138 26.5325L45.0885 24.9139H61.9073L61.8578 26.5325H45.138ZM45.0525 23.7121L45.003 22.0936H61.9937L61.9442 23.7121H45.0525ZM43.849 23.7121H27.3214L27.183 22.0936H43.8004L43.849 23.7121ZM43.8859 24.9147L43.9354 26.5333L27.5619 26.5324L27.4235 24.9139L43.8859 24.9147ZM43.9723 27.7351L44.0218 29.3537L27.8026 29.3528L27.6643 27.7343L43.9723 27.7351ZM44.0587 30.5555L44.1082 32.174H28.0434L27.905 30.5555H44.0587ZM44.145 33.3758L44.1945 34.9944H28.2841L28.1457 33.3767L44.145 33.3758ZM28.3864 36.1971H44.2299L44.2793 37.8148H28.5239L28.3864 36.1971ZM45.4332 36.1971H61.5634L61.514 37.8148H45.4827L45.4332 36.1971ZM62.7668 36.1971H78.622L78.4853 37.8148H62.7175L62.7668 36.1971ZM62.8037 34.9945L62.8531 33.3759H78.8608L78.7241 34.9945H62.8037ZM62.8892 32.1741L62.9387 30.5555H79.099L78.9615 32.1741H62.8892ZM62.9756 29.3537L63.0251 27.7352H79.3372L79.2005 29.3537H62.9756ZM63.062 26.5333L63.1114 24.9148L79.5762 24.9139L79.4395 26.5325L63.062 26.5333ZM63.1483 23.713L63.1978 22.0944L79.8144 22.0936L79.6777 23.7121L63.1483 23.713ZM63.2347 20.8926L63.2842 19.274L80.0534 19.2724L79.9167 20.8909L63.2347 20.8926ZM62.0313 20.8926L44.9669 20.8909L44.9174 19.2724H62.0793L62.0313 20.8926ZM43.7642 20.8926L27.0814 20.8909L26.943 19.2724H43.7139L43.7642 20.8926ZM28.6261 39.0171H44.316L44.3655 40.6357H28.7644L28.6261 39.0171ZM45.5187 39.0171H61.4778L61.4283 40.6357H45.5682L45.5187 39.0171ZM62.6805 39.0171H78.3831L78.2464 40.6357H62.6312L62.6805 39.0171ZM80.2784 16.6078L80.1551 18.0696H63.3196L63.3691 16.4502L80.1183 16.4493C80.2038 16.4535 80.2733 16.5215 80.2784 16.6078ZM62.1657 16.4493L62.1162 18.0696H44.8807L44.8312 16.4493H62.1657ZM26.8922 16.4493H43.6279L43.6774 18.0687L26.841 18.0696L26.7177 16.6246C26.7211 16.5298 26.7975 16.4535 26.8922 16.4493ZM28.9863 43.2275L28.8672 41.8354H44.4019L44.4514 43.4523L29.149 43.4531C29.0618 43.4531 28.9888 43.3735 28.9863 43.2275ZM45.655 43.4531L45.6055 41.8363L61.3918 41.8354L61.3423 43.4523L45.655 43.4531ZM77.8498 43.4531H62.5465L62.596 41.8363H78.1459L78.0235 43.2795C78.0201 43.3743 77.9445 43.4498 77.8498 43.4531Z" fill="#FDB500"/>
<path d="M25.2807 9.30463C25.9055 10.3219 27.0116 10.9425 28.2041 10.9467H78.7935C79.9869 10.9425 81.093 10.321 81.7169 9.30379L83.7129 6.02484C83.8253 5.8395 83.8294 5.60721 83.7229 5.41768C83.6164 5.22899 83.416 5.11157 83.1988 5.11157H23.7985C23.5813 5.11157 23.3809 5.22898 23.2744 5.41768C23.1679 5.60721 23.1721 5.8395 23.2845 6.02484L25.2807 9.30463ZM82.1304 6.314L80.6905 8.67902C80.2854 9.33902 79.5684 9.7424 78.7944 9.74407H28.205C27.4317 9.7424 26.7139 9.33902 26.3088 8.67986L24.8689 6.31398L82.1304 6.314Z" fill="#000052"/>
<path d="M14.959 15.6121L11.5894 14.9672C11.3949 14.9295 11.1936 14.9907 11.0527 15.1308C10.9118 15.2708 10.8489 15.4712 10.885 15.6667L15.6292 41.4143C15.682 41.6995 15.9302 41.9058 16.2196 41.9066C16.2431 41.9066 16.2657 41.9049 16.2892 41.9024L19.2412 41.5636H19.2403C19.3242 41.5536 19.4055 41.5267 19.4785 41.484C20.3649 41.0797 20.9008 40.1614 20.817 39.1902L16.9953 17.3155C16.7378 16.3788 15.9268 15.7002 14.959 15.6121ZM19.6319 39.3976C19.6856 39.7037 19.4273 40.0836 18.9694 40.3846L16.7102 40.6438L12.2269 16.313L14.7336 16.7936C15.3307 16.9076 15.7542 17.1936 15.8112 17.5223L19.6319 39.3976Z" fill="#000052"/>
<path d="M95.4118 14.9653L92.0431 15.6103H92.0422C91.0745 15.6975 90.2627 16.3768 90.0052 17.3135L86.1844 39.1882C86.1005 40.1593 86.6364 41.0776 87.5228 41.4819C87.5958 41.5247 87.6771 41.5516 87.761 41.5616L90.713 41.9004H90.7122C90.7356 41.9029 90.7583 41.9046 90.7818 41.9046C91.0711 41.9038 91.3193 41.6975 91.3722 41.4123L96.1164 15.6646C96.1524 15.4692 96.0895 15.2688 95.9486 15.1288C95.8077 14.9887 95.6063 14.9276 95.4118 14.9653ZM90.291 40.6422L88.0318 40.3831C87.5731 40.082 87.3148 39.7021 87.3693 39.396V39.3951L91.1901 17.5205C91.248 17.1909 91.6707 16.9049 92.2686 16.7909L94.7745 16.3103L90.291 40.6422Z" fill="#000052"/>
<path d="M79.1133 48.1765L77.4075 47.4738C76.6703 47.2289 75.8954 47.1148 75.1189 47.1383H31.8783C31.1017 47.1148 30.3268 47.2289 29.5897 47.4738L27.884 48.1765C27.6189 48.2856 27.4672 48.5673 27.5233 48.8491C27.5787 49.1309 27.8261 49.3338 28.1129 49.3338H78.8848C79.1716 49.3338 79.419 49.1309 79.4743 48.8491C79.5305 48.5673 79.3787 48.2856 79.1137 48.1765H79.1133Z" fill="#000052"/>
</svg>
