<svg width="86" height="53" viewBox="0 0 86 53" fill="none" xmlns="http://www.w3.org/2000/svg">
<path d="M78.1204 0H7.39068C3.30892 0 0 3.30892 0 7.39068V30.7142C0 34.796 3.30891 38.1049 7.39067 38.1049H78.1204C82.2022 38.1049 85.5111 34.796 85.5111 30.7142V7.39068C85.5111 3.30892 82.2022 0 78.1204 0Z" fill="#094DB3"/>
<path d="M45.3741 47.1841V37.7591C45.3741 36.3134 44.2021 35.1414 42.7564 35.1414C41.3107 35.1414 40.1387 36.3134 40.1387 37.7591V47.1841C40.1387 48.6298 41.3107 49.8017 42.7564 49.8017C44.2021 49.8017 45.3741 48.6298 45.3741 47.1841Z" fill="#FDB500"/>
<path d="M31.103 46.0301C31.103 46.6653 30.5862 47.1822 29.9511 47.1822H27.4031C25.9572 47.1822 24.7852 48.3543 24.7852 49.8002C24.7852 51.246 25.9572 52.4181 27.4031 52.4181H29.9511C33.4731 52.4181 36.3383 49.5526 36.3383 46.0301V37.7575C36.3383 36.3117 35.1664 35.1398 33.7206 35.1398C32.2749 35.1398 31.103 36.3118 31.103 37.7575V46.0301Z" fill="#FDB500"/>
<path d="M55.5201 47.1821C54.8849 47.1821 54.3682 46.6652 54.3682 46.03V37.7573C54.3682 36.3116 53.1962 35.1396 51.7505 35.1396C50.3048 35.1396 49.1328 36.3116 49.1328 37.7573V46.03C49.1328 49.5524 51.9981 52.418 55.5201 52.418H58.0681C59.5139 52.418 60.686 51.2459 60.686 49.8001C60.686 48.3542 59.5139 47.1821 58.0681 47.1821H55.5201Z" fill="#FDB500"/>
<path d="M77.4336 30.4512C77.4336 31.5897 78.3565 32.5128 79.495 32.5128C80.6336 32.5128 81.5565 31.5897 81.5565 30.4512C81.5565 29.3127 80.6336 28.3895 79.495 28.3895C78.3565 28.3895 77.4336 29.3127 77.4336 30.4512Z" fill="#FDB500"/>
<path d="M19.2637 22.5171H66.2598C68.3007 22.5171 69.9551 24.1715 69.9551 26.2124V30.7164C69.9551 32.7573 68.3007 34.4117 66.2598 34.4117H19.2637C17.2228 34.4117 15.5684 32.7573 15.5684 30.7164V26.2124C15.5684 24.1715 17.2228 22.5171 19.2637 22.5171Z" fill="#0F3368" stroke="white" stroke-width="7.39068"/>
<path d="M60.0303 9.89764H25.4773C24.0315 9.89764 22.8594 11.0697 22.8594 12.5156C22.8594 13.9614 24.0315 15.1335 25.4773 15.1335H60.0303C61.4762 15.1335 62.6483 13.9614 62.6483 12.5156C62.6483 11.0697 61.4762 9.89764 60.0303 9.89764Z" fill="#FDB500"/>
</svg>
