<svg width="70" height="70" viewBox="0 0 70 70" fill="none" xmlns="http://www.w3.org/2000/svg">
<g clip-path="url(#clip0_85_12415)">
<path opacity="0.982" fill-rule="evenodd" clip-rule="evenodd" d="M35.2361 -0.067627C36.9945 -0.067627 38.7529 -0.067627 40.5113 -0.067627C44.6259 0.377834 48.1653 2.04606 51.1293 4.93704C51.5391 5.47048 51.5617 6.01153 51.1969 6.56017C50.8156 6.7762 50.4098 6.84383 49.9795 6.76306C48.1555 4.80827 45.9462 3.45566 43.3517 2.70523C42.718 2.54681 42.0868 2.389 41.4581 2.23181C36.7245 1.34613 32.306 2.13516 28.2025 4.59888C23.4435 8.37208 21.9782 13.1738 23.8065 19.0042C24.2274 17.4184 25.0165 16.0432 26.1736 14.8787C26.6312 14.5985 27.1272 14.4406 27.6614 14.4053C28.2916 14.4819 28.9229 14.5495 29.5551 14.6082C30.0772 14.8198 30.3477 15.2031 30.3667 15.7579C30.3345 16.1161 30.154 16.3642 29.8256 16.5019C29.0112 16.5465 28.1996 16.5465 27.3909 16.5019C26.6083 17.3228 26.0898 18.2922 25.8354 19.41C25.6788 19.9912 25.5435 20.5774 25.4296 21.1684C25.3133 23.5168 25.3585 25.8614 25.5649 28.202C26.5888 33.1034 29.4519 36.4173 34.154 38.1437C36.114 38.6336 38.0978 38.7463 40.1055 38.4818C44.9229 37.3844 48.1466 34.4989 49.7766 29.8251C50.0648 28.8982 50.2451 27.9513 50.3177 26.9846C50.44 24.815 50.3948 22.6508 50.1824 20.4921C49.9373 19.3061 49.5316 18.1788 48.9651 17.1105C48.5333 16.4589 47.9697 16.2784 47.2743 16.5695C43.3221 17.0689 39.3545 17.2718 35.3713 17.1782C34.7401 17.1331 34.1089 17.088 33.4777 17.0429C32.9669 16.8258 32.6964 16.4426 32.6661 15.8932C32.9219 15.1625 33.4405 14.892 34.2216 15.0816C38.7984 15.3216 43.3523 15.0962 47.883 14.4053C48.4407 14.4032 48.9593 14.5384 49.4385 14.8111C50.6358 15.8499 51.4248 17.1575 51.8056 18.7337C51.943 18.8871 52.0332 18.842 52.0761 18.5984C52.8699 16.43 53.0052 14.2207 52.4819 11.9706C52.2329 11.1336 51.9849 10.2995 51.7379 9.46829C51.7285 9.01293 51.9088 8.67478 52.279 8.45383C52.7504 8.2725 53.1787 8.36268 53.564 8.72435C55.0172 12.0125 55.2201 15.3715 54.1726 18.8013C55.866 19.4131 56.8804 20.6079 57.216 22.3857C57.713 24.8153 57.3072 27.0696 55.9987 29.1488C54.8226 30.425 53.4249 30.8759 51.8056 30.5014C50.3092 34.9403 47.4011 38.0513 43.0812 39.8344C42.9239 40.5969 42.9013 41.3634 43.0136 42.1339C44.1751 42.9062 45.3248 43.6952 46.4627 44.5009C46.9574 44.3363 47.476 44.1786 48.0183 44.0275C49.2743 44.3559 50.5141 44.7393 51.7379 45.1772C52.1781 45.494 52.4261 45.9224 52.4819 46.4622C56.2327 48.6391 58.442 51.8854 59.1097 56.201C59.1999 57.8242 59.1999 59.4473 59.1097 61.0704C58.8751 61.3343 58.582 61.4696 58.2305 61.4762C57.6709 61.4786 57.3327 61.2081 57.216 60.6646C57.6533 56.9103 56.7065 53.574 54.3755 50.6553C53.8199 50.0182 53.1886 49.4772 52.4819 49.0322C52.4142 50.0231 52.3918 51.015 52.4142 52.0079C52.4142 57.0576 52.4142 62.1075 52.4142 67.1572C52.9553 67.1572 53.4963 67.1572 54.0374 67.1572C55.0744 67.1572 56.1113 67.1572 57.1484 67.1572C57.1259 66.2543 57.1484 65.3525 57.216 64.452C57.4067 64.0071 57.7449 63.7816 58.2305 63.7757C58.6445 63.7681 58.9376 63.9485 59.1097 64.3167C59.1999 65.8046 59.1999 67.2924 59.1097 68.7803C58.9683 68.8984 58.8557 69.0337 58.7715 69.1861C43.6673 69.1861 28.5632 69.1861 13.459 69.1861C12.1089 68.6699 11.1847 67.7231 10.6862 66.3456C10.596 63.6854 10.596 61.0254 10.6862 58.3652C11.0397 57.3572 11.7385 56.7712 12.7827 56.6068C12.8052 54.8479 12.7827 53.0895 12.7151 51.3316C11.8584 50.6553 11.0018 49.979 10.1451 49.3027C9.99208 48.3695 9.92445 47.4227 9.94223 46.4622C9.96478 45.6056 9.98731 44.7489 10.0099 43.8923C10.8382 42.9691 11.7174 42.0899 12.6475 41.2547C13.4705 40.8809 14.1694 41.0388 14.744 41.7281C14.9027 42.8935 14.9927 44.0658 15.0145 45.2449C15.6458 45.9662 16.2769 45.9662 16.9082 45.2449C16.9248 44.0644 17.015 42.8921 17.1787 41.7281C17.7533 41.0388 18.4522 40.8809 19.2752 41.2547C20.2053 42.0899 21.0845 42.9691 21.9128 43.8923C21.9579 45.0194 22.0031 46.1467 22.0481 47.2738C22.4539 47.0033 22.8597 46.7327 23.2655 46.4622C23.3212 45.9224 23.5693 45.494 24.0094 45.1772C25.2332 44.7393 26.473 44.3559 27.7291 44.0275C28.2713 44.1786 28.7899 44.3363 29.2846 44.5009C30.4225 43.6952 31.5723 42.9062 32.7337 42.1339C32.846 41.3634 32.8234 40.5969 32.6661 39.8344C28.27 38.0323 25.3168 34.8762 23.8065 30.3661C21.6594 30.8485 20.0813 30.082 19.0724 28.0667C18.0038 25.4499 18.0939 22.88 19.3429 20.3568C19.8998 19.5753 20.6437 19.0568 21.5747 18.8013C20.0506 13.13 21.358 8.21551 25.4973 4.05784C28.3392 1.72057 31.5855 0.345415 35.2361 -0.067627Z" fill="#020101"/>
<path fill-rule="evenodd" clip-rule="evenodd" d="M41.4577 2.2318C44.8441 3.83749 47.3014 6.36237 48.8294 9.80642C49.3214 11.1166 49.6145 12.4692 49.7086 13.8643C49.7047 14.2388 49.6146 14.5545 49.4381 14.8111C48.9589 14.5384 48.4403 14.4031 47.8826 14.4053C43.3519 15.0962 38.7981 15.3216 34.2212 15.0816C33.4401 14.892 32.9215 15.1625 32.6657 15.8932C31.8962 15.8888 31.1298 15.8437 30.3663 15.7579C30.3473 15.2031 30.0768 14.8197 29.5547 14.6082C28.9225 14.5495 28.2912 14.4819 27.6611 14.4053C27.1268 14.4406 26.6308 14.5985 26.1732 14.8787C25.0162 16.0432 24.227 17.4184 23.8061 19.0042C21.9778 13.1738 23.4431 8.37206 28.2021 4.59887C32.3057 2.13514 36.7241 1.34611 41.4577 2.2318Z" fill="#D4633B"/>
<path fill-rule="evenodd" clip-rule="evenodd" d="M41.457 2.23187C42.0857 2.38906 42.717 2.54687 43.3507 2.70529C45.9451 3.45572 48.1545 4.80833 49.9785 6.76312C50.4088 6.84389 50.8145 6.77626 51.1958 6.56023C51.6069 7.1543 51.9675 7.78552 52.2779 8.45389C51.9077 8.67484 51.7274 9.01299 51.7369 9.46835C51.9839 10.2996 52.2318 11.1337 52.4808 11.9707C53.0041 14.2207 52.8689 16.4301 52.075 18.5985C52.0322 18.8421 51.9419 18.8871 51.8045 18.7337C51.4238 17.1575 50.6348 15.85 49.4374 14.8112C49.614 14.5546 49.704 14.2389 49.708 13.8643C49.6138 12.4693 49.3207 11.1167 48.8288 9.8065C47.3007 6.36245 44.8434 3.83757 41.457 2.23187Z" fill="#BF5733"/>
<path fill-rule="evenodd" clip-rule="evenodd" d="M30.3651 15.758C31.1287 15.8438 31.8951 15.8889 32.6646 15.8933C32.6949 16.4427 32.9654 16.8259 33.4761 17.043C34.1074 17.088 34.7385 17.1332 35.3698 17.1782C39.353 17.2718 43.3206 17.0689 47.2728 16.5696C47.4531 18.4159 47.5432 20.3095 47.5433 22.2505C48.261 26.8267 47.2916 30.9746 44.6352 34.6946C43.4235 36.201 41.9582 37.3733 40.2392 38.2114C40.1312 38.2732 40.0862 38.3634 40.1039 38.4819C38.0962 38.7463 36.1125 38.6336 34.1524 38.1437C29.4503 36.4174 26.5873 33.1035 25.5633 28.202C25.3569 25.8615 25.3118 23.5168 25.4281 21.1684C25.542 20.5775 25.6772 19.9913 25.8339 19.41C26.0883 18.2922 26.6068 17.3228 27.3894 16.5019C28.1981 16.5466 29.0097 16.5466 29.8241 16.5019C30.1525 16.3642 30.3329 16.1162 30.3651 15.758Z" fill="#EAAC87"/>
<path fill-rule="evenodd" clip-rule="evenodd" d="M47.2742 16.5696C47.9695 16.2785 48.5332 16.4589 48.9649 17.1106C49.5314 18.1789 49.9372 19.3062 50.1823 20.4922C50.3946 22.6509 50.4398 24.8151 50.3175 26.9847C50.2449 27.9514 50.0646 28.8982 49.7765 29.8252C48.1465 34.499 44.9228 37.3845 40.1053 38.4819C40.0876 38.3634 40.1326 38.2732 40.2406 38.2114C41.9596 37.3733 43.4249 36.201 44.6366 34.6946C47.293 30.9746 48.2624 26.8267 47.5447 22.2506C47.5445 20.3096 47.4545 18.4159 47.2742 16.5696Z" fill="#E48F6D"/>
<path fill-rule="evenodd" clip-rule="evenodd" d="M22.115 20.7627C22.2739 20.7331 22.4092 20.7781 22.5208 20.898C22.7423 21.2773 22.9903 21.638 23.2647 21.9801C23.2965 23.9208 23.3641 25.8595 23.4676 27.7963C23.4711 28.3369 23.2006 28.5624 22.656 28.4726C21.8389 28.3559 21.2754 27.9051 20.9653 27.12C20.518 25.7098 20.3827 24.2669 20.5595 22.7916C20.7551 21.8558 21.2735 21.1795 22.115 20.7627Z" fill="#E58F6D"/>
<path fill-rule="evenodd" clip-rule="evenodd" d="M53.2261 20.7626C54.3059 21.0085 54.9596 21.6848 55.1874 22.7916C55.4 24.3761 55.2196 25.9091 54.6464 27.3904C54.1416 28.2857 53.3976 28.6013 52.4146 28.3373C52.3695 28.157 52.3243 27.9765 52.2793 27.7962C52.3828 25.8594 52.4504 23.9207 52.4822 21.98C52.818 21.623 53.066 21.2172 53.2261 20.7626Z" fill="#D68666"/>
<path fill-rule="evenodd" clip-rule="evenodd" d="M31.7188 23.8736C32.3213 23.7542 32.7947 23.9345 33.1391 24.4147C33.2293 24.9107 33.2293 25.4066 33.1391 25.9026C32.8652 26.5308 32.3917 26.7337 31.7188 26.5112C31.4809 26.3749 31.323 26.172 31.2454 25.9026C31.1552 25.4066 31.1552 24.9107 31.2454 24.4147C31.385 24.2081 31.5428 24.0278 31.7188 23.8736Z" fill="#050303"/>
<path fill-rule="evenodd" clip-rule="evenodd" d="M43.0801 23.8736C43.6826 23.7542 44.156 23.9345 44.5004 24.4147C44.5906 24.9107 44.5906 25.4066 44.5004 25.9026C44.2265 26.5308 43.7531 26.7337 43.0801 26.5112C42.8422 26.3749 42.6844 26.172 42.6067 25.9026C42.5165 25.4066 42.5165 24.9107 42.6067 24.4147C42.7463 24.2081 42.9042 24.0278 43.0801 23.8736Z" fill="#050303"/>
<path fill-rule="evenodd" clip-rule="evenodd" d="M35.5047 31.7188C37.0829 31.8719 38.661 31.8945 40.2388 31.7864C40.9477 32.3901 40.9477 32.9762 40.2388 33.5448C38.7625 33.931 37.2746 33.976 35.7752 33.6801C34.7993 33.151 34.7091 32.4972 35.5047 31.7188Z" fill="#060403"/>
<path fill-rule="evenodd" clip-rule="evenodd" d="M34.8307 40.3755C36.8573 40.726 38.8862 40.726 40.9174 40.3755C40.9897 42.1473 40.8769 43.9057 40.5793 45.6507C40.0946 47.2165 39.1929 48.479 37.8741 49.438C36.08 48.0902 35.0879 46.2867 34.8983 44.0275C34.8307 42.811 34.8082 41.5937 34.8307 40.3755Z" fill="#E68F6E"/>
<path fill-rule="evenodd" clip-rule="evenodd" d="M12.6477 44.1628C12.8873 47.0403 14.4203 48.19 17.2466 47.612C18.5803 46.8621 19.234 45.7124 19.2079 44.1628C19.4334 44.3883 19.6587 44.6137 19.8842 44.8391C19.9967 45.969 19.9741 47.0963 19.8166 48.2207C19.2045 48.7201 18.5732 49.1935 17.9229 49.6409C16.6153 49.7311 15.3079 49.7311 14.0003 49.6409C13.35 49.1935 12.7188 48.7201 12.1067 48.2207C11.9491 47.0963 11.9265 45.969 12.039 44.8391C12.27 44.6313 12.4729 44.4058 12.6477 44.1628Z" fill="#FDB500"/>
<path fill-rule="evenodd" clip-rule="evenodd" d="M32.8004 44.5686C33.2207 47.0328 34.348 49.1068 36.182 50.7906C35.2852 51.5673 34.2481 51.8603 33.071 51.6698C32.1652 50.988 31.5115 50.1088 31.1097 49.0322C30.7761 48.1893 30.483 47.3325 30.2305 46.4623C31.0896 45.8277 31.9463 45.1965 32.8004 44.5686Z" fill="#094DB3"/>
<path fill-rule="evenodd" clip-rule="evenodd" d="M42.8107 44.5686C43.7505 45.1482 44.6523 45.7793 45.5159 46.4623C45.1043 47.9908 44.4957 49.4337 43.6899 50.7906C43.0185 51.6735 42.1393 51.9664 41.0523 51.6698C40.5118 51.4449 40.0158 51.1519 39.5645 50.7906C41.4255 49.1431 42.5076 47.0692 42.8107 44.5686Z" fill="#094DB3"/>
<path fill-rule="evenodd" clip-rule="evenodd" d="M26.9845 46.4622C27.2095 49.9543 27.3448 53.4711 27.3902 57.0126C27.5841 58.5819 28.4407 59.5964 29.9602 60.056C35.3336 60.1888 40.699 60.1438 46.0563 59.9207C47.4047 59.4124 48.1937 58.443 48.4234 57.0126C48.4684 53.4508 48.5136 49.8888 48.5586 46.327C49.1388 46.603 49.7474 46.7833 50.3846 46.868C50.3846 53.6311 50.3846 60.3941 50.3846 67.1572C42.0435 67.1572 33.7025 67.1572 25.3613 67.1572C25.3613 60.3941 25.3613 53.6311 25.3613 46.868C25.9024 46.7327 26.4434 46.5975 26.9845 46.4622Z" fill="#000052"/>
<path fill-rule="evenodd" clip-rule="evenodd" d="M26.9844 46.4622C27.0803 46.3399 27.2155 46.2949 27.3902 46.327C27.3902 49.8888 27.3902 53.4508 27.3902 57.0126C27.3447 53.471 27.2094 49.9543 26.9844 46.4622Z" fill="#1C2D34"/>
<path fill-rule="evenodd" clip-rule="evenodd" d="M23.1973 49.0322C23.2054 48.9588 23.2504 48.9137 23.3325 48.897C23.5126 55.006 23.5126 61.0928 23.3325 67.1572C23.3774 61.0927 23.3324 55.051 23.1973 49.0322Z" fill="#1C1809"/>
<path fill-rule="evenodd" clip-rule="evenodd" d="M23.1965 49.0322C23.3317 55.0509 23.3767 61.0927 23.3318 67.1572C22.4752 67.1572 21.6184 67.1572 20.7618 67.1572C20.9148 64.4112 20.9374 61.6608 20.8295 58.9063C20.541 58.0313 19.9999 57.355 19.2063 56.8774C19.1161 56.0658 19.1161 55.2542 19.2063 54.4427C20.0462 52.2628 21.3762 50.4592 23.1965 49.0322Z" fill="#FDC636"/>
<path fill-rule="evenodd" clip-rule="evenodd" d="M58.2289 61.4763C58.2289 62.2428 58.2289 63.0092 58.2289 63.7757C57.7434 63.7816 57.4052 64.0071 57.2145 64.452C57.1469 65.3526 57.1244 66.2544 57.1469 67.1572C56.1098 67.1572 55.0729 67.1572 54.0358 67.1572C54.0584 63.4599 54.0358 59.7626 53.9682 56.0658C53.7085 54.6019 53.1899 53.2493 52.4127 52.008C52.3903 51.015 52.4127 50.0232 52.4803 49.0322C53.1871 49.4772 53.8183 50.0183 54.374 50.6554C56.705 53.574 57.6518 56.9104 57.2145 60.6647C57.3312 61.2082 57.6694 61.4787 58.2289 61.4763Z" fill="#FDC636"/>
<path fill-rule="evenodd" clip-rule="evenodd" d="M29.5541 50.3848C29.4194 52.5253 29.3742 54.6895 29.4188 56.8773C29.2617 54.6462 29.2392 52.3918 29.3512 50.1143C29.4482 50.1878 29.5158 50.2781 29.5541 50.3848Z" fill="#998637"/>
<path fill-rule="evenodd" clip-rule="evenodd" d="M46.3267 56.8773C46.3713 54.6895 46.3261 52.5253 46.1914 50.3848C46.2297 50.2781 46.2973 50.1878 46.3943 50.1143C46.5063 52.3918 46.4838 54.6462 46.3267 56.8773Z" fill="#988536"/>
<path fill-rule="evenodd" clip-rule="evenodd" d="M29.5542 50.3848C30.0919 51.8021 31.0387 52.8616 32.3947 53.5635C33.4874 53.8437 34.5695 53.7985 35.641 53.4282C36.438 53.0863 37.1819 52.6579 37.8728 52.1432C38.6542 52.7032 39.4882 53.1766 40.3751 53.5635C43.2212 54.1671 45.1599 53.1075 46.1914 50.3848C46.3261 52.5253 46.3713 54.6895 46.3266 56.8774C46.2589 57.5288 45.8981 57.9121 45.2445 58.0271C40.2849 58.1173 35.3254 58.1173 30.3658 58.0271C29.8208 57.8212 29.5051 57.438 29.419 56.8774C29.3743 54.6895 29.4195 52.5253 29.5542 50.3848Z" fill="#FDC636"/>
<path fill-rule="evenodd" clip-rule="evenodd" d="M14.8105 51.7374C15.5771 51.7374 16.3435 51.7374 17.11 51.7374C17.11 53.3606 17.11 54.9837 17.11 56.6068C16.3435 56.6068 15.5771 56.6068 14.8105 56.6068C14.8105 54.9837 14.8105 53.3606 14.8105 51.7374Z" fill="#FDB500"/>
<path fill-rule="evenodd" clip-rule="evenodd" d="M52.4141 52.008C53.1913 53.2493 53.7099 54.6019 53.9696 56.0658C54.0372 59.7627 54.0598 63.4599 54.0372 67.1572C53.4962 67.1572 52.9551 67.1572 52.4141 67.1572C52.4141 62.1075 52.4141 57.0577 52.4141 52.008Z" fill="#FFDD5B"/>
<path fill-rule="evenodd" clip-rule="evenodd" d="M15.6222 58.6357C15.7997 61.4705 15.7997 64.311 15.6222 67.1571C14.2886 67.4479 13.3192 66.9971 12.7141 65.8045C12.6239 63.5051 12.6239 61.2056 12.7141 58.9062C12.7817 58.8386 12.8494 58.7709 12.917 58.7033C13.8176 58.6357 14.7194 58.6132 15.6222 58.6357Z" fill="#E9AB87"/>
<path fill-rule="evenodd" clip-rule="evenodd" d="M15.623 58.6357C16.5259 58.6132 17.4277 58.6357 18.3283 58.7033C18.4861 58.8612 18.6438 59.0189 18.8017 59.1767C18.8243 60.3941 18.8467 61.6114 18.8693 62.8288C18.8885 64.1492 18.8209 65.4568 18.6664 66.7513C18.5443 66.9138 18.3866 67.0266 18.193 67.0895C17.3375 67.1571 16.4809 67.1796 15.623 67.1571C15.8005 64.311 15.8005 61.4705 15.623 58.6357Z" fill="#E7916F"/>
<path fill-rule="evenodd" clip-rule="evenodd" d="M30.3661 62.9642C35.3259 62.9416 40.2855 62.9642 45.2449 63.0318C46.2087 63.5245 46.2989 64.1557 45.5154 64.9254C40.4205 65.0157 35.3257 65.0157 30.2309 64.9254C29.4873 64.2063 29.5324 63.5525 30.3661 62.9642Z" fill="#020405"/>
</g>
<defs>
<clipPath id="clip0_85_12415">
<rect width="69.2537" height="69.2537" fill="white"/>
</clipPath>
</defs>
</svg>
