<svg width="97" height="66" viewBox="0 0 97 66" fill="none" xmlns="http://www.w3.org/2000/svg">
<g clip-path="url(#clip0_85_12033)">
<path fill-rule="evenodd" clip-rule="evenodd" d="M-0.177734 -0.177063C19.057 -0.177063 38.292 -0.177063 57.5266 -0.177063C57.0576 2.5053 56.8806 5.21943 56.9956 7.96527C57.2523 8.16299 57.5472 8.28098 57.8806 8.31929C58.6 7.94732 59.0719 7.35732 59.2967 6.54921C59.5042 6.62331 59.6812 6.7413 59.8277 6.90323C60.0047 9.37853 60.0635 11.8566 60.0047 14.3375C57.5238 14.2787 55.0457 14.3377 52.5704 14.5145C52.0458 15.4321 52.164 16.2581 52.9244 16.9926C55.6387 17.1106 58.3525 17.2287 61.0668 17.3467C62.3143 18.4174 63.6125 19.4204 64.9609 20.3558C65.4328 20.5918 65.4328 20.8278 64.9609 21.0638C59.7566 18.4165 54.4463 18.2394 49.0303 20.5328C45.7801 21.9792 42.8297 23.8673 40.1799 26.197C37.1736 27.0675 34.1056 27.3035 30.9755 26.9051C27.9857 26.3641 25.0356 25.6561 22.1252 24.781C17.9259 24.4556 13.7368 24.0426 9.55766 23.5419C7.99218 24.7691 6.75313 26.3032 5.84051 28.1441C6.00927 28.4902 6.24526 28.7852 6.54854 29.0291C7.44483 29.2482 8.27086 29.6023 9.02664 30.0912C5.09722 31.0192 2.1471 33.2023 0.17628 36.6405C0.0582754 36.6405 -0.0597297 36.6405 -0.177734 36.6405C-0.177734 24.3679 -0.177734 12.0955 -0.177734 -0.177063Z" fill="#FDFDFD"/>
<path fill-rule="evenodd" clip-rule="evenodd" d="M57.5281 -0.177063C57.8821 -0.177063 58.2361 -0.177063 58.5901 -0.177063C59.1774 1.1293 59.4727 2.54536 59.4752 4.07111C60.5372 4.66115 61.3631 5.48717 61.9533 6.54921C62.0712 9.26334 62.1894 11.9774 62.3073 14.6915C63.2433 15.3323 64.1283 16.0403 64.9624 16.8156C65.3182 16.5998 65.2591 16.3638 64.7854 16.1076C64.5493 15.6356 64.5493 15.1636 64.7854 14.6915C65.6287 13.6553 66.5137 12.6522 67.4405 11.6824C69.0385 12.0177 70.3363 12.9028 71.3347 14.3375C70.3399 15.9815 69.0417 17.3386 67.4405 18.4087C67.9535 18.8041 68.5436 19.0402 69.2106 19.1167C69.6382 19.9134 70.1101 20.6804 70.6266 21.4178C78.1629 14.0056 81.526 15.5397 80.716 26.02C80.1532 28.3968 78.6783 29.2818 76.2909 28.6751C75.3117 28.1558 74.4266 27.5068 73.6357 26.728C74.9927 30.2654 76.8215 33.5695 79.123 36.6404C88.1411 35.6007 94.0415 39.377 96.8237 47.9689C96.8237 49.5029 96.8237 51.0372 96.8237 52.5711C95.1212 59.348 90.8731 63.4783 84.0792 64.9616C82.8993 64.9616 81.719 64.9616 80.539 64.9616C70.8819 62.4177 66.9286 56.1636 68.6796 46.1988C69.9105 43.3193 71.6218 40.7824 73.8128 38.5875C72.5033 36.028 71.1463 33.4908 69.7416 30.9762C67.1934 38.2661 64.7153 45.5825 62.3073 52.9251C61.1925 53.5843 59.9534 53.8204 58.5901 53.6331C58.48 57.6962 56.4151 59.8203 52.3949 60.0054C46.7837 59.1675 41.1783 58.3412 35.5792 57.5273C35.1031 57.8272 34.7491 58.2399 34.5171 58.7664C32.4988 58.841 30.4927 58.664 28.4989 58.2353C28.1449 58.2945 27.7909 58.3532 27.4369 58.4123C24.7902 61.8569 21.3681 64.0401 17.1704 64.9616C15.8724 64.9616 14.5743 64.9616 13.2763 64.9616C3.29765 62.3532 -0.65551 55.981 1.41679 45.8448C5.25898 37.9351 11.4542 35.0441 20.0025 37.1715C26.6403 39.8007 29.8854 44.6978 29.7379 51.8631C31.395 52.5134 33.106 52.9856 34.8712 53.2791C35.1072 53.751 35.4613 54.105 35.9332 54.3412C35.9332 54.6952 35.9332 55.0492 35.9332 55.4032C41.4934 55.9785 47.0397 56.6865 52.5719 57.5273C54.8015 57.4218 55.9814 56.2419 56.112 53.9872C49.3295 53.6342 42.485 53.5163 35.5792 53.6331C35.6631 53.1761 35.5452 52.8221 35.2252 52.5711C33.3386 45.5545 29.4444 39.9494 23.5427 35.7554C17.0072 32.3552 10.7529 32.7682 4.77992 36.9945C3.17544 37.107 1.64138 36.9892 0.177734 36.6404C2.14855 33.2023 5.09868 31.0192 9.0281 30.0912C8.27231 29.6022 7.44629 29.2482 6.55 29.0291C6.24671 28.7852 6.01073 28.4902 5.84197 28.1441C6.75458 26.3032 7.99363 24.7691 9.55912 23.5419C13.7382 24.0426 17.9274 24.4556 22.1266 24.781C25.0371 25.6561 27.9872 26.3641 30.977 26.905C34.1071 27.3035 37.1751 27.0675 40.1814 26.197C42.8312 23.8673 45.7815 21.9792 49.0317 20.5328C54.4478 18.2394 59.758 18.4165 64.9624 21.0638C65.4343 20.8278 65.4343 20.5918 64.9624 20.3558C63.614 19.4204 62.3158 18.4174 61.0682 17.3467C58.354 17.2287 55.6401 17.1106 52.9259 16.9926C52.1655 16.2581 52.0472 15.4321 52.5719 14.5145C55.0472 14.3377 57.5253 14.2787 60.0062 14.3375C60.065 11.8566 60.0062 9.37853 59.8292 6.90323C59.6826 6.7413 59.5056 6.62331 59.2982 6.54921C59.0734 7.35732 58.6015 7.94732 57.8821 8.31929C57.5486 8.28098 57.2537 8.16299 56.9971 7.96527C56.882 5.21943 57.059 2.5053 57.5281 -0.177063Z" fill="#000052"/>
<path fill-rule="evenodd" clip-rule="evenodd" d="M58.5879 -0.17688C71.3324 -0.17688 84.0769 -0.17688 96.8215 -0.17688C96.8215 15.8718 96.8215 31.9204 96.8215 47.9691C94.0393 39.3771 88.1389 35.6009 79.1207 36.6406C76.8193 33.5697 74.9905 30.2656 73.6335 26.7282C74.4244 27.507 75.3094 28.156 76.2886 28.6753C78.6761 29.282 80.1509 28.397 80.7138 26.0202C81.5238 15.5399 78.1607 14.0058 70.6244 21.418C70.1079 20.6806 69.636 19.9135 69.2083 19.1169C68.5414 19.0403 67.9512 18.8043 67.4383 18.4089C69.0395 17.3388 70.3376 15.9817 71.3324 14.3377C70.3341 12.903 69.0363 12.0179 67.4383 11.6826C66.5114 12.6524 65.6264 13.6555 64.7831 14.6917C64.547 15.1637 64.547 15.6358 64.7831 16.1078C65.2568 16.3639 65.3159 16.5999 64.9602 16.8158C64.1261 16.0405 63.2411 15.3325 62.305 14.6917C62.1872 11.9776 62.0689 9.26352 61.951 6.54939C61.3609 5.48735 60.535 4.66133 59.4729 4.07129C59.4704 2.54554 59.1752 1.12948 58.5879 -0.17688Z" fill="#FDFDFD"/>
<path fill-rule="evenodd" clip-rule="evenodd" d="M77.3507 18.5856C78.148 18.7328 78.679 19.2048 78.9438 20.0017C80.0161 28.3012 77.8333 29.3042 72.3945 23.0108C72.568 22.1248 73.0399 21.4168 73.8106 20.8867C75.0528 20.1682 76.2328 19.4011 77.3507 18.5856Z" fill="#FDB500"/>
<path fill-rule="evenodd" clip-rule="evenodd" d="M52.9247 20.7098C55.5235 20.6509 58.1195 20.7099 60.713 20.8868C64.6942 21.8774 66.0515 24.4145 64.7842 28.4981C64.5339 29.0577 64.239 29.5887 63.8991 30.0912C56.6153 30.614 49.2992 30.791 41.9502 30.6222C41.9251 29.627 41.689 28.6829 41.2422 27.7901C44.5204 24.4388 48.4145 22.0787 52.9247 20.7098Z" fill="#FDB500"/>
<path fill-rule="evenodd" clip-rule="evenodd" d="M68.1499 21.0637C71.3594 26.1807 74.3098 31.4909 77.0003 36.9943C76.6689 37.5161 76.1967 37.8701 75.5842 38.0564C72.7971 32.6592 69.965 27.2899 67.0879 21.9487C67.467 21.6471 67.8211 21.3521 68.1499 21.0637Z" fill="#F0F0F0"/>
<path fill-rule="evenodd" clip-rule="evenodd" d="M9.3809 25.3119C13.2746 25.5872 17.1688 25.8822 21.0634 26.1969C24.6558 27.2877 28.3139 28.1137 32.0378 28.675C34.5038 29.0188 36.9229 28.8418 39.2951 28.144C39.6297 28.2875 39.8658 28.5235 40.0032 28.852C40.1784 29.5504 40.2375 30.2584 40.1802 30.9761C29.2952 32.7186 18.6747 31.7156 8.31886 27.967C8.20087 27.849 8.08284 27.731 7.96484 27.613C8.57793 26.9149 9.04997 26.1479 9.3809 25.3119Z" fill="#FDB500"/>
<path fill-rule="evenodd" clip-rule="evenodd" d="M80.5366 64.9617C59.4136 64.9617 38.291 64.9617 17.168 64.9617C21.3656 64.0402 24.7878 61.857 27.4344 58.4124C27.7884 58.3533 28.1424 58.2946 28.4964 58.2354C30.4902 58.6641 32.4963 58.8412 34.5147 58.7665C34.7466 58.24 35.1007 57.8273 35.5767 57.5274C41.1758 58.3413 46.7813 59.1676 52.3924 60.0055C56.4126 59.8204 58.4776 57.6963 58.5877 53.6332C59.951 53.8205 61.19 53.5844 62.3048 52.9252C64.7128 45.5826 67.1909 38.2662 69.7391 30.9763C71.1439 33.4909 72.5008 36.0281 73.8103 38.5876C71.6193 40.7825 69.908 43.3194 68.6771 46.1989C66.9261 56.1637 70.8794 62.4178 80.5366 64.9617Z" fill="#FBFBFB"/>
<path fill-rule="evenodd" clip-rule="evenodd" d="M35.2237 52.5712C35.2845 52.9224 35.1665 53.1582 34.8697 53.2792C33.1046 52.9858 31.3935 52.5135 29.7365 51.8632C29.8839 44.6979 26.6388 39.8009 20.0011 37.1716C11.4528 35.0442 5.25752 37.9352 1.41533 45.8449C-0.656964 55.9811 3.2962 62.3533 13.2748 64.9617C8.79062 64.9617 4.30646 64.9617 -0.177734 64.9617C-0.177734 55.7574 -0.177734 46.553 -0.177734 37.3486C1.54394 37.4615 3.19601 37.3436 4.77847 36.9946C10.7515 32.7683 17.0057 32.3553 23.5412 35.7555C29.443 39.9495 33.3372 45.5547 35.2237 52.5712Z" fill="#F8F8F8"/>
<path fill-rule="evenodd" clip-rule="evenodd" d="M52.9263 35.5785C55.7301 35.467 58.5031 35.5849 61.2456 35.9325C60.932 38.2991 60.4601 40.6593 59.8296 43.0128C59.6526 43.1898 59.4756 43.3668 59.2986 43.5438C57.4106 43.7799 55.5223 43.7799 53.6343 43.5438C53.4573 43.3668 53.2803 43.1898 53.1033 43.0128C52.7773 40.5078 52.7181 38.0297 52.9263 35.5785Z" fill="#FAFAFA"/>
<path fill-rule="evenodd" clip-rule="evenodd" d="M35.5791 35.9323C38.4137 35.8735 41.2458 35.9323 44.0755 36.1093C44.4139 38.1573 44.3551 40.2226 43.8985 42.3046C43.7215 42.4816 43.5444 42.6586 43.3674 42.8356C41.4795 43.0717 39.5912 43.0717 37.7032 42.8356C36.6174 40.959 35.6733 39.0119 34.8711 36.9943C35.1162 36.634 35.3523 36.2799 35.5791 35.9323Z" fill="#F2F2F2"/>
<path fill-rule="evenodd" clip-rule="evenodd" d="M-0.177734 36.6404C-0.0597296 36.6404 0.0582755 36.6404 0.17628 36.6404C1.63992 36.9891 3.17399 37.107 4.77847 36.9945C3.19601 37.3435 1.54394 37.4614 -0.177734 37.3485C-0.177734 37.1123 -0.177734 36.8766 -0.177734 36.6404Z" fill="#949494"/>
<path fill-rule="evenodd" clip-rule="evenodd" d="M12.567 41.5967C13.2751 41.5967 13.9831 41.5967 14.6911 41.5967C14.7009 43.4949 14.5829 45.3829 14.3371 47.2609C11.9423 47.3282 9.81825 46.6201 7.96484 45.1368C9.20319 43.5211 10.7372 42.3408 12.567 41.5967Z" fill="#F4F4F4"/>
<path fill-rule="evenodd" clip-rule="evenodd" d="M16.1074 41.5966C18.9466 41.8352 21.1887 43.1334 22.8336 45.4908C21.4741 46.3478 20.0581 47.115 18.5855 47.7919C17.8295 48.0167 17.1215 47.8984 16.4614 47.4379C16.1168 45.5237 15.9988 43.5766 16.1074 41.5966Z" fill="#F4F4F4"/>
<path fill-rule="evenodd" clip-rule="evenodd" d="M80.5368 41.2426C81.1269 41.2426 81.7167 41.2426 82.3069 41.2426C82.3295 43.2796 82.0937 45.2855 81.5988 47.2609C81.1269 47.497 80.6547 47.7328 80.1828 47.9689C78.4106 47.0835 76.7584 46.0215 75.2266 44.7828C76.6331 43.0162 78.4031 41.8363 80.5368 41.2426Z" fill="#F4F4F4"/>
<path fill-rule="evenodd" clip-rule="evenodd" d="M83.7248 41.5968C86.5251 41.8156 88.6492 43.1138 90.0971 45.491C88.463 46.6642 86.6929 47.4313 84.7869 47.7921C84.601 47.5471 84.3649 47.3701 84.0789 47.261C83.7266 45.3876 83.6087 43.4996 83.7248 41.5968Z" fill="#F7F7F7"/>
<path fill-rule="evenodd" clip-rule="evenodd" d="M74.1674 46.1988C75.6953 47.1334 77.2292 48.0772 78.7696 49.0309C79.2946 50.1326 79.1767 51.1355 78.4155 52.04C76.9428 52.7169 75.5268 53.4841 74.1674 54.3411C73.3053 53.2649 72.9513 52.0259 73.1053 50.624C72.991 49.0235 73.345 47.5483 74.1674 46.1988Z" fill="#F6F6F6"/>
<path fill-rule="evenodd" clip-rule="evenodd" d="M22.8326 47.2609C23.4075 47.2113 23.8205 47.4475 24.0717 47.9689C24.3599 48.8193 24.3009 49.6452 23.8947 50.447C22.4806 50.0346 21.0646 49.6215 19.6465 49.208C20.7311 48.5499 21.7932 47.901 22.8326 47.2609Z" fill="#ECECEC"/>
<path fill-rule="evenodd" clip-rule="evenodd" d="M90.0953 47.2608C90.5633 47.2006 90.9765 47.3185 91.3344 47.6148C92.1568 49.9449 91.9798 52.1869 90.8034 54.3411C88.7883 53.5856 87.2544 52.3466 86.2012 50.6239C86.3191 50.2108 86.4373 49.798 86.5552 49.3849C87.7578 48.6677 88.9377 47.9596 90.0953 47.2608Z" fill="#EFEFEF"/>
<path fill-rule="evenodd" clip-rule="evenodd" d="M4.78079 47.6148C6.08417 47.5564 7.38223 47.6152 8.67495 47.7919C17.1126 50.3142 25.609 52.6153 34.164 54.6951C34.012 55.7087 33.658 56.6525 33.102 57.5273C24.3815 56.0149 15.6491 54.5397 6.90488 53.1021C5.84284 52.2762 4.78079 51.4499 3.71875 50.624C4.04589 49.6097 4.39991 48.6068 4.78079 47.6148Z" fill="#F6F6F6"/>
<path fill-rule="evenodd" clip-rule="evenodd" d="M81.6011 48.677C84.607 48.4965 85.433 49.7355 84.0792 52.3942C82.2419 53.0332 81.0616 52.443 80.5391 50.6241C80.76 49.886 81.114 49.2371 81.6011 48.677Z" fill="#F5F5F5"/>
<path fill-rule="evenodd" clip-rule="evenodd" d="M81.6013 53.9872C81.6013 55.8751 81.6013 57.7634 81.6013 59.6514C81.2473 59.6514 80.8932 59.6514 80.5392 59.6514C78.202 59.2046 76.3141 58.0247 74.875 56.1112C76.3937 54.8775 78.0459 53.8155 79.8312 52.9251C80.3725 53.3722 80.9623 53.7262 81.6013 53.9872Z" fill="#F6F6F6"/>
<path fill-rule="evenodd" clip-rule="evenodd" d="M85.1412 53.2792C86.9279 53.8779 88.5797 54.7629 90.0974 55.9343C88.4572 58.2878 86.2152 59.5269 83.3711 59.6515C83.3711 57.7635 83.3711 55.8752 83.3711 53.9873C84.0979 54.022 84.688 53.7858 85.1412 53.2792Z" fill="#F6F6F6"/>
<path fill-rule="evenodd" clip-rule="evenodd" d="M35.2251 52.571C35.5451 52.822 35.663 53.176 35.5791 53.633C42.4849 53.5162 49.3294 53.6341 56.112 53.987C49.3241 53.8702 42.5978 53.9881 35.9331 54.3411C35.4612 54.1049 35.1071 53.7509 34.8711 53.279C35.1678 53.1579 35.2859 52.9222 35.2251 52.571Z" fill="#B7B7B7"/>
<path fill-rule="evenodd" clip-rule="evenodd" d="M96.8227 52.5712C96.8227 56.7015 96.8227 60.8314 96.8227 64.9617C92.5745 64.9617 88.3263 64.9617 84.0781 64.9617C90.872 63.4784 95.1202 59.3481 96.8227 52.5712Z" fill="#F8F8F8"/>
<path fill-rule="evenodd" clip-rule="evenodd" d="M56.1124 53.987C55.9818 56.2417 54.8019 57.4217 52.5723 57.5272C47.0401 56.6864 41.4937 55.9784 35.9336 55.4031C35.9336 55.0491 35.9336 54.6951 35.9336 54.341C42.5983 53.9881 49.3246 53.8702 56.1124 53.987Z" fill="#F6F6F6"/>
<path fill-rule="evenodd" clip-rule="evenodd" d="M8.3174 55.0493C10.3283 55.2468 12.3344 55.4829 14.3357 55.7573C14.3357 57.0555 14.3357 58.3533 14.3357 59.6514C11.4964 59.4128 9.2543 58.1147 7.60938 55.7573C7.8723 55.5158 8.10832 55.2797 8.3174 55.0493Z" fill="#EDEDED"/>
<path fill-rule="evenodd" clip-rule="evenodd" d="M15.7539 56.1111C17.6701 56.4106 19.5582 56.8238 21.4181 57.3502C19.8024 58.8077 17.9144 59.5748 15.7539 59.6513C15.7539 58.4714 15.7539 57.2911 15.7539 56.1111Z" fill="#F0F0F0"/>
<path fill-rule="evenodd" clip-rule="evenodd" d="M81.6011 53.9871C81.9512 55.9253 82.0691 57.9315 81.9551 60.0053C81.3891 60.1002 80.9172 59.9819 80.5391 59.6513C80.8931 59.6513 81.2471 59.6513 81.6011 59.6513C81.6011 57.7633 81.6011 55.875 81.6011 53.9871Z" fill="#898989"/>
</g>
<defs>
<clipPath id="clip0_85_12033">
<rect width="97" height="65.1387" fill="white"/>
</clipPath>
</defs>
</svg>
