<svg width="123" height="40" viewBox="0 0 123 40" fill="none" xmlns="http://www.w3.org/2000/svg">
<path opacity="0.978" fill-rule="evenodd" clip-rule="evenodd" d="M122.694 25.2778C122.677 26.6338 122.659 27.9896 122.641 29.3456C122.132 31.4582 120.993 33.1585 119.225 34.4468C115.877 35.0797 112.519 35.6345 109.152 36.1111C109.087 32.2514 107.532 29.16 104.485 26.8366C98.8655 23.6623 93.8697 24.4352 89.4976 29.1551C87.6545 31.742 86.9394 34.6046 87.3519 37.743C68.9229 37.7905 50.494 37.8707 32.0651 37.9833C33.1858 30.9146 30.3739 26.291 23.6293 24.1128C17.0784 23.4181 12.7745 26.1942 10.7175 32.4414C10.3493 33.9479 10.21 35.462 10.2996 36.9831C7.32607 36.6346 4.46398 35.8795 1.71332 34.7178C0.979293 33.3267 0.439581 31.8837 0.0941955 30.389C0.110744 29.1129 0.127296 27.8366 0.143844 26.5605C0.767204 24.7322 1.46896 22.9067 2.24912 21.0833C3.15667 20.3462 4.16143 19.761 5.26344 19.3275C12.6919 16.797 20.2941 14.981 28.0698 13.8795C34.7037 11.1451 41.2823 8.27881 47.8059 5.28044C55.0513 2.25793 62.6089 0.800331 70.4787 0.907651C79.2773 1.19239 87.8326 2.77924 96.1442 5.66797C100.509 7.39984 104.875 9.13172 109.24 10.8636C112.635 11.7486 116.055 12.5109 119.501 13.1506C120.017 13.3566 120.371 13.7202 120.564 14.2413C120.61 16.7948 120.657 19.348 120.704 21.9015C121.561 22.941 122.225 24.0663 122.694 25.2778ZM66.7263 4.20952C67.3698 4.17862 68.0074 4.22685 68.639 4.35399C67.738 7.73136 66.8166 11.1097 65.875 14.4894C65.1673 14.6767 64.4479 14.787 63.7168 14.8204C57.6511 14.9196 51.5865 15.0403 45.5235 15.1828C45.7394 13.7434 45.3568 12.5019 44.3752 11.4584C47.3423 8.99184 50.715 7.28062 54.4934 6.32446C58.5517 5.30468 62.6293 4.59962 66.7263 4.20952ZM72.2298 4.28089C77.3689 4.22189 82.385 4.96518 87.2783 6.51029C88.0987 7.83721 88.9192 9.16413 89.7396 10.491C89.6557 11.6971 89.4409 12.8909 89.0948 14.0725C82.8663 14.3429 76.6428 14.4218 70.4245 14.3091C71.1293 10.9861 71.731 7.64338 72.2298 4.28089ZM89.8996 7.38192C92.7274 8.60085 95.5021 9.95311 98.2233 11.4387C99.2128 12.0888 99.6795 13.0125 99.6233 14.2091C97.8604 14.2654 96.1066 14.1628 94.3622 13.9015C92.7687 11.7846 91.2812 9.61142 89.8996 7.38192ZM20.4519 29.2171C21.067 32.2386 20.3445 32.5882 18.2844 30.2659C18.9666 29.7772 19.6891 29.4276 20.4519 29.2171ZM22.3662 29.2419C23.2453 29.4146 24.0383 29.7839 24.745 30.3497C22.7723 32.6405 21.9793 32.2712 22.3662 29.2419ZM97.0226 30.21C97.2468 31.0415 97.3151 31.92 97.2277 32.8452C96.3623 32.5689 95.6512 32.0413 95.0943 31.262C95.7218 30.8405 96.3646 30.4899 97.0226 30.21ZM99.1761 30.238C100.055 30.4107 100.848 30.7799 101.555 31.3458C99.5822 33.6366 98.7893 33.2673 99.1761 30.238ZM16.8316 31.5633C19.2656 33.5495 18.9372 34.2632 15.8466 33.7045C16.1131 32.9555 16.4415 32.2418 16.8316 31.5633ZM25.9244 31.6813C27.8809 33.9623 27.4328 34.6744 24.5804 33.8177C24.4239 33.5764 24.427 33.3371 24.5897 33.0999C25.0836 32.6588 25.5285 32.1859 25.9244 31.6813ZM93.6416 32.5594C96.0008 34.445 95.6723 35.1587 92.6565 34.7006C92.8075 33.8936 93.136 33.1799 93.6416 32.5594ZM102.734 32.6773C103.303 33.3644 103.612 34.1661 103.66 35.0826C102.863 35.0722 102.065 35.0619 101.268 35.0515C101.234 34.7225 101.278 34.4038 101.4 34.096C101.894 33.6548 102.338 33.182 102.734 32.6773Z" fill="#000052"/>
</svg>
