<svg width="69" height="64" viewBox="0 0 69 64" fill="none" xmlns="http://www.w3.org/2000/svg">
<path d="M51.7646 8.0575L41.3574 18.0016L45.7621 22.4064L55.7062 11.9993L51.7646 8.0575Z" fill="#094DB3"/>
<path d="M38.8743 20.3762L0.255828 57.2764C0.0368337 57.4858 0.00152508 57.7353 4.26558e-05 57.8653C-0.001305 57.9954 0.0282087 58.2455 0.242216 58.4598L5.30617 63.5236C5.52058 63.7379 5.76761 63.7672 5.90075 63.766C6.0308 63.7645 6.28025 63.7292 6.48955 63.5102L43.3896 24.8917L38.8743 20.3762Z" fill="#0F3368"/>
<path d="M67.6955 22.5923C63.7445 21.5547 60.3942 18.9374 58.4312 15.3551C58.2847 15.0876 58.0742 14.885 57.8326 14.7475C57.245 14.4132 56.4686 14.4748 55.9437 14.9994L50.7422 20.201C50.1554 20.7877 50.1474 21.6899 50.6259 22.2898C50.7509 22.4467 50.9077 22.5842 51.0979 22.6883C54.6803 24.6513 57.2974 28.0016 58.3351 31.9527C58.6777 33.2568 60.3058 33.6972 61.2591 32.7439L68.4868 25.5163C69.4401 24.5628 68.9994 22.9346 67.6955 22.5923Z" fill="#094DB3"/>
<path d="M46.9563 5.76799C41.8915 0.703232 34.4761 -1.21192 27.5923 0.766976L26.9293 0.957669C25.88 1.25927 26.0122 2.78644 27.0977 2.90315C32.7192 3.50797 37.8094 6.4999 41.0724 11.1174L48.0448 6.85649L46.9563 5.76799Z" fill="#094DB3"/>
</svg>
