<svg width="54" height="72" viewBox="0 0 54 72" fill="none" xmlns="http://www.w3.org/2000/svg">
<rect x="17.7188" y="22.6875" width="19.2188" height="35.4375" fill="#FDB500"/>
<path d="M52.5 19.5H45V2.8785C45 1.2885 43.6575 0 42 0C40.3425 0 39 1.2885 39 2.8785V19.5H15V2.8785C15 1.2885 13.6575 0 11.9985 0C10.341 0 9 1.2885 9 2.8785V19.5H1.5C0.6705 19.5 0 20.8035 0 21.5985V28.8C0 37.4385 15 47.469 15 61.344V66H21V72H33V66H39V61.344C39 47.469 54 37.437 54 28.8V21.5985C54 20.8035 53.3295 19.5 52.5 19.5ZM25.3605 44.082C25.458 43.767 25.26 43.5 24.9165 43.5H19.089C18.744 43.5 18.6465 43.305 18.8655 43.0515C18.8655 43.0515 30.873 27.813 31.107 27.519C31.284 27.24 31.479 27.3375 31.4175 27.6585C31.3245 28.065 28.761 38.4615 28.761 38.4615C28.6365 38.7675 28.8165 39 29.157 39H34.9875C35.331 39 35.4405 39.231 35.2305 39.492C35.2305 39.492 23.205 55.095 22.989 55.356C22.7715 55.617 22.5705 55.5375 22.68 55.0935C22.7895 54.648 25.3605 44.082 25.3605 44.082Z" fill="#094DB3"/>
</svg>
