<svg width="45" height="74" viewBox="0 0 45 74" fill="none" xmlns="http://www.w3.org/2000/svg">
<path d="M11.3555 60.8051C11.3672 62.6668 12.8821 64.1584 14.7438 64.1584H29.5688C31.4421 64.1584 32.9571 62.6551 32.9571 60.7818V60.7473C29.2681 61.3951 25.5793 61.7073 21.9255 61.7073C18.3868 61.7073 14.8599 61.4062 11.3558 60.8051L11.3555 60.8051Z" fill="#FDB500"/>
<path d="M15.0782 70.45C15.0782 71.0884 15.5958 71.6065 16.2347 71.6065H18.073C18.7119 71.6065 19.2295 71.0889 19.2295 70.45V66.4722H15.0781L15.0782 70.45Z" fill="#FDB500"/>
<path d="M25.0821 72.8433C25.0821 73.4817 25.5997 73.9999 26.2387 73.9999H28.0769C28.7159 73.9999 29.2335 73.4823 29.2335 72.8433V66.4718H25.082L25.0821 72.8433Z" fill="#FDB500"/>
<path d="M19.9219 19.9663C19.9219 21.2008 20.922 22.2054 22.151 22.2054C23.386 22.2054 24.39 21.2002 24.39 19.9663C24.39 18.7318 23.3854 17.7272 22.151 17.7272C20.9215 17.7267 19.9219 18.7318 19.9219 19.9663Z" fill="#FDB500"/>
<path d="M22.149 29.3403C20.9196 29.3403 19.9199 30.3455 19.9199 31.5794C19.9199 32.8139 20.9201 33.8185 22.149 33.8185C23.384 33.8185 24.3881 32.8133 24.3881 31.5794C24.3886 30.3455 23.384 29.3403 22.149 29.3403Z" fill="#FDB500"/>
<path d="M0 12.713V39.5348H44.3111V12.6831C29.6685 11.079 14.8506 11.088 0 12.7126V12.713ZM22.1499 36.1323C19.6459 36.1323 17.6078 34.0909 17.6078 31.5803C17.6078 29.0702 19.6454 27.0282 22.1499 27.0282C24.6594 27.0282 26.7019 29.0696 26.7019 31.5803C26.7019 34.0909 24.6594 36.1323 22.1499 36.1323ZM26.7019 19.9666C26.7019 22.4767 24.6599 24.5187 22.1499 24.5187C19.6459 24.5187 17.6078 22.4773 17.6078 19.9666C17.6078 17.4566 19.6454 15.4145 22.1499 15.4145C24.6594 15.4145 26.7019 17.456 26.7019 19.9666Z" fill="#094DB3"/>
<path d="M40.5413 2.5598C28.6075 -0.862983 16.2585 -0.851299 3.81574 2.58318C1.57226 3.19595 0 5.26578 0 7.59005V10.3873C14.8492 8.78004 29.6657 8.77049 44.3111 10.3567L44.3106 7.55559C44.3106 5.25426 42.7611 3.196 40.541 2.55998L40.5413 2.5598Z" fill="#0F3368"/>
<path d="M0.00012827 54.5263C0.00012827 55.0122 0.300674 55.4397 0.763177 55.6133C7.70121 58.1339 14.7779 59.3946 21.9242 59.3946C29.0704 59.3946 36.2862 58.1339 43.5369 55.6133C43.9994 55.4513 44.3117 55.0122 44.3117 54.5263L44.3111 41.8468H0L0.00012827 54.5263ZM16.6973 47.0217C17.9462 45.692 19.6576 44.8711 21.5655 44.8711H22.7449C26.5495 44.8711 29.6368 48.1665 29.6368 52.2371H22.481L24.1768 49.6051C24.5224 49.0675 24.3677 48.3517 23.8306 48.006C23.293 47.6615 22.5783 47.8163 22.2321 48.3517L19.7293 52.2371L14.6736 52.2365C14.6736 50.2018 15.4483 48.3628 16.6972 47.0215L16.6973 47.0217Z" fill="#0F3368"/>
</svg>
