<svg width="62" height="62" viewBox="0 0 62 62" fill="none" xmlns="http://www.w3.org/2000/svg">
<path fill-rule="evenodd" clip-rule="evenodd" d="M25.0135 0.445542C20.5137 0.445542 16.014 0.445542 11.5142 0.445542C11.6312 1.33308 11.4989 2.12715 11.1172 2.82776C11.1172 1.90136 11.1172 0.974911 11.1172 0.0485047C15.8202 -0.0818426 20.4523 0.0505296 25.0135 0.445542Z" fill="#444444"/>
<path fill-rule="evenodd" clip-rule="evenodd" d="M36.5293 0.445542C41.0905 0.0505296 45.7227 -0.0818426 50.4256 0.0485047C50.4256 0.974911 50.4256 1.90136 50.4256 2.82776C50.044 2.12715 49.9114 1.33308 50.0286 0.445542C45.5289 0.445542 41.0289 0.445542 36.5293 0.445542Z" fill="#444444"/>
<path fill-rule="evenodd" clip-rule="evenodd" d="M25.0147 0.445557C25.0147 1.23963 25.0147 2.0337 25.0147 2.82778C28.8529 2.82778 32.6907 2.82778 36.5288 2.82778C36.5288 2.0337 36.5288 1.23963 36.5288 0.445557C41.0284 0.445557 45.5284 0.445557 50.0281 0.445557C49.9109 1.33309 50.0436 2.12717 50.4251 2.82778C53.9262 3.22216 57.4995 3.35449 61.1451 3.22482C61.1451 22.5473 61.1451 41.8696 61.1451 61.1922C40.8962 61.1922 20.6473 61.1922 0.398438 61.1922C0.398438 41.8696 0.398438 22.5473 0.398438 3.22482C4.04411 3.35449 7.61744 3.22216 11.1184 2.82778C11.5001 2.12717 11.6325 1.33309 11.5155 0.445557C16.0152 0.445557 20.515 0.445557 25.0147 0.445557Z" fill="#0F3368"/>
<path fill-rule="evenodd" clip-rule="evenodd" d="M11.117 2.82776C7.61604 3.22214 4.04271 3.35447 0.397037 3.2248C0.397037 22.5473 0.397037 41.8696 0.397037 61.1922C20.6459 61.1922 40.8948 61.1922 61.1437 61.1922C61.1437 41.8696 61.1437 22.5473 61.1437 3.2248C57.4981 3.35447 53.9248 3.22214 50.4237 2.82776C54.1292 2.82776 57.8352 2.82776 61.5407 2.82776C61.5407 22.4149 61.5407 42.0022 61.5407 61.5892C41.027 61.5892 20.5136 61.5892 0 61.5892C0 42.0022 0 22.4149 0 2.82776C3.70567 2.82776 7.41137 2.82776 11.117 2.82776Z" fill="#3F3F3F"/>
<path fill-rule="evenodd" clip-rule="evenodd" d="M5.55859 25.062C22.3665 25.062 39.1745 25.062 55.9823 25.062C55.9823 35.385 55.9823 45.7079 55.9823 56.0309C39.1745 56.0309 22.3665 56.0309 5.55859 56.0309C5.55859 45.7079 5.55859 35.385 5.55859 25.062Z" fill="#D6D6D6"/>
<path fill-rule="evenodd" clip-rule="evenodd" d="M5.95703 25.459C22.5003 25.459 39.0433 25.459 55.5867 25.459C55.5867 35.5171 55.5867 45.5757 55.5867 55.6338C39.0433 55.6338 22.5003 55.6338 5.95703 55.6338C5.95703 45.5757 5.95703 35.5171 5.95703 25.459Z" fill="#F7F7F7"/>
<path fill-rule="evenodd" clip-rule="evenodd" d="M11.1172 30.6204C24.2194 30.6204 37.3216 30.6204 50.4239 30.6204C50.4239 37.2378 50.4239 43.8548 50.4239 50.4722C37.3216 50.4722 24.2194 50.4722 11.1172 50.4722C11.1172 43.8548 11.1172 37.2378 11.1172 30.6204Z" fill="#797979"/>
<path fill-rule="evenodd" clip-rule="evenodd" d="M11.5156 31.0173C24.3531 31.0173 37.1908 31.0173 50.0282 31.0173C50.0282 37.3699 50.0282 43.7225 50.0282 50.0751C37.1908 50.0751 24.3531 50.0751 11.5156 50.0751C11.5156 43.7225 11.5156 37.3699 11.5156 31.0173Z" fill="#FDB500"/>
<path fill-rule="evenodd" clip-rule="evenodd" d="M16.6777 36.1788C26.0744 36.1788 35.4707 36.1788 44.8674 36.1788C44.8674 39.0903 44.8674 42.0022 44.8674 44.9136C35.4707 44.9136 26.0744 44.9136 16.6777 44.9136C16.6777 42.0022 16.6777 39.0903 16.6777 36.1788Z" fill="#B8B8B8"/>
<path fill-rule="evenodd" clip-rule="evenodd" d="M17.0742 36.5759C26.2061 36.5759 35.3379 36.5759 44.4698 36.5759C44.4698 39.223 44.4698 41.8696 44.4698 44.5167C35.3379 44.5167 26.2061 44.5167 17.0742 44.5167C17.0742 41.8696 17.0742 39.223 17.0742 36.5759Z" fill="#FEFFFE"/>
<path fill-rule="evenodd" clip-rule="evenodd" d="M5.55859 8.38623C22.3665 8.38623 39.1745 8.38623 55.9823 8.38623C55.9823 12.2243 55.9823 16.0623 55.9823 19.9003C39.1745 19.9003 22.3665 19.9003 5.55859 19.9003C5.55859 16.0623 5.55859 12.2243 5.55859 8.38623Z" fill="#C2C2C2"/>
<path fill-rule="evenodd" clip-rule="evenodd" d="M5.95703 8.78345C22.5003 8.78345 39.0433 8.78345 55.5867 8.78345C55.5867 12.3568 55.5867 15.9301 55.5867 19.5034C39.0433 19.5034 22.5003 19.5034 5.95703 19.5034C5.95703 15.9301 5.95703 12.3568 5.95703 8.78345Z" fill="#F7F7F7"/>
<path fill-rule="evenodd" clip-rule="evenodd" d="M45.8293 11.4779C49.0711 10.9474 50.3281 12.2708 49.6011 15.4482C48.285 16.8797 46.829 17.012 45.2337 15.8453C44.3162 14.2071 44.5147 12.7514 45.8293 11.4779Z" fill="#FDB500"/>
<path fill-rule="evenodd" clip-rule="evenodd" d="M34.6419 11.3845C38.3363 11.1667 39.3952 12.6887 37.8182 15.9504C34.541 17.1738 33.1514 16.0488 33.6493 12.5756C34.0642 12.2288 34.3949 11.8318 34.6419 11.3845Z" fill="#FDB500"/>
<path fill-rule="evenodd" clip-rule="evenodd" d="M23.5266 11.3846C27.2211 11.1668 28.2799 12.6888 26.7029 15.9505C23.4259 17.1739 22.0362 16.0489 22.534 12.5757C22.8111 12.103 23.142 11.7059 23.5266 11.3846Z" fill="#FDB500"/>
<path fill-rule="evenodd" clip-rule="evenodd" d="M12.7082 11.3883C16.3787 11.1497 17.4375 12.6716 15.8845 15.9542C12.6075 17.1776 11.2179 16.0526 11.7156 12.5794C11.9927 12.1067 12.3236 11.7096 12.7082 11.3883Z" fill="#FDB500"/>
</svg>
