<svg width="71" height="52" viewBox="0 0 71 52" fill="none" xmlns="http://www.w3.org/2000/svg">
<path d="M62.3461 49.8367V45.428C62.3461 44.2333 61.3775 43.2648 60.1828 43.2648C58.9881 43.2648 58.0195 44.2333 58.0195 45.428V49.8367C58.0195 51.0314 58.9881 52 60.1828 52C61.3775 52 62.3461 51.0314 62.3461 49.8367Z" fill="#0F3368"/>
<path d="M12.6332 49.8368V45.4281C12.6332 44.2334 11.6646 43.2648 10.4699 43.2648C9.27517 43.2648 8.30664 44.2334 8.30664 45.4281V49.8368C8.30664 51.0315 9.27517 52 10.4699 52C11.6646 52 12.6332 51.0315 12.6332 49.8368Z" fill="#0F3368"/>
<path d="M66.1075 0H4.55914C2.0412 0 0 2.0412 0 4.55914V40.8694C0 43.3874 2.04119 45.4286 4.55913 45.4286H66.1075C68.6254 45.4286 70.6666 43.3874 70.6666 40.8694V4.55914C70.6666 2.04119 68.6255 0 66.1075 0Z" fill="#094DB3"/>
<path d="M11.0494 10.7413H41.3025C42.5615 10.7413 43.5821 11.7619 43.5821 13.0209V33.5133C43.5821 34.7723 42.5615 35.7929 41.3025 35.7929H11.0494C9.7904 35.7929 8.7698 34.7723 8.7698 33.5133V13.0209C8.7698 11.7619 9.7904 10.7413 11.0494 10.7413Z" fill="#0F3368" stroke="white" stroke-width="4.55914"/>
<path d="M52.5537 33.7698H51.2023C50.0076 33.7698 49.0391 34.7384 49.0391 35.9331C49.0391 37.1278 50.0076 38.0964 51.2023 38.0964H52.5537C53.7484 38.0964 54.717 37.1278 54.717 35.9331C54.717 34.7384 53.7484 33.7698 52.5537 33.7698Z" fill="#FDB500"/>
<path d="M52.5537 26.1974H51.2023C50.0076 26.1974 49.0391 27.166 49.0391 28.3607C49.0391 29.5555 50.0076 30.524 51.2023 30.524H52.5537C53.7484 30.524 54.717 29.5555 54.717 28.3607C54.717 27.166 53.7484 26.1974 52.5537 26.1974Z" fill="#FDB500"/>
<path d="M61.0068 33.7698H59.6555C58.4607 33.7698 57.4922 34.7384 57.4922 35.9331C57.4922 37.1278 58.4607 38.0964 59.6555 38.0964H61.0068C62.2016 38.0964 63.1701 37.1278 63.1701 35.9331C63.1701 34.7384 62.2016 33.7698 61.0068 33.7698Z" fill="#FDB500"/>
<path d="M61.0068 26.1974H59.6555C58.4607 26.1974 57.4922 27.1659 57.4922 28.3607C57.4922 29.5554 58.4607 30.5239 59.6555 30.5239H61.0068C62.2016 30.5239 63.1701 29.5554 63.1701 28.3607C63.1701 27.1659 62.2016 26.1974 61.0068 26.1974Z" fill="#FDB500"/>
<path d="M59.6343 8.51007H53.0689C50.551 8.51007 48.5098 10.5513 48.5098 13.0692V17.6155C48.5098 20.1335 50.551 22.1747 53.0689 22.1747H59.6343C62.1523 22.1747 64.1935 20.1335 64.1935 17.6155V13.0692C64.1935 10.5513 62.1523 8.51007 59.6343 8.51007Z" fill="#FDB500"/>
</svg>
