<svg width="56" height="64" viewBox="0 0 56 64" fill="none" xmlns="http://www.w3.org/2000/svg">
<path d="M51.1887 6.09882H45.8305V9.09662H51.1887C51.8475 9.09662 52.652 9.79366 52.652 10.6071V17.9797C52.652 18.9122 51.8464 19.8717 50.9278 20.0328L30.7038 23.5817C28.3465 23.9955 26.5 26.1942 26.5 28.5875V37.9641H29.4978V28.5875C29.4978 27.655 30.3034 26.6955 31.222 26.5344L51.446 22.9857C53.8033 22.572 55.6498 20.3733 55.6498 17.98V10.6072C55.6498 8.20562 53.5651 6.09882 51.1887 6.09882Z" fill="#094DB3"/>
<path d="M1.49896 6.09882C0.671217 6.09882 0 6.76991 0 7.59778C0 8.42565 0.671217 9.09674 1.49896 9.09674H6.77283V6.09882H1.49896Z" fill="#094DB3"/>
<path d="M23.5234 42.7788V60.4459C23.5234 61.998 24.7817 63.2564 26.3339 63.2564H29.671C31.2231 63.2564 32.4815 61.9981 32.4815 60.4459V42.7788L28.0025 39.781L23.5234 42.7788ZM29.5015 58.7596C29.5015 59.5875 28.8303 60.2586 28.0025 60.2586C27.1748 60.2586 26.5036 59.5875 26.5036 58.7596V56.7373C26.5036 55.9095 27.1748 55.2384 28.0025 55.2384C28.8303 55.2384 29.5015 55.9095 29.5015 56.7373V58.7596Z" fill="#0F3368"/>
<path d="M22.2207 34.9674L23.5177 42.7779H32.4758L33.7727 34.9674H22.2207Z" fill="#0F3368"/>
<path d="M48.8329 11.4349C48.8329 13.5124 47.1487 15.1966 45.0712 15.1966H7.53902C5.4615 15.1966 3.77734 13.5124 3.77734 11.4349V3.76168C3.77734 1.68416 5.46138 0 7.53902 0H45.0713C47.1488 0 48.833 1.68416 48.833 3.76168V11.4349H48.8329Z" fill="#FDB500"/>
</svg>
