<svg width="83" height="79" viewBox="0 0 83 79" fill="none" xmlns="http://www.w3.org/2000/svg">
<path d="M32.625 19.1346H20.0679V6.7556H23.4919V0H0.652344V6.7556H4.07811V25.8885C4.07811 30.8627 8.16847 34.8931 13.2129 34.8931H32.625V38.2709H39.4782V15.7602H32.625V19.1346ZM79.4415 47.2738V28.1409C79.4415 23.1684 75.3528 19.1363 70.3135 19.1363H50.898V15.7619H44.0448V38.2743H50.898V34.8948H63.4568V47.2738H60.0362V54.0294H82.8706V47.2738H79.4415Z" fill="#094DB3"/>
<path d="M77.6841 72.6201C77.6841 69.2046 71.4526 59.6587 71.4526 59.6587C71.4526 59.6587 65.127 69.2046 65.127 72.6201C65.127 76.0287 67.9395 78.7933 71.4064 78.7933C74.8715 78.7933 77.6841 76.0287 77.6841 72.6201Z" fill="#FDB500"/>
</svg>
