<svg width="73" height="77" viewBox="0 0 73 77" fill="none" xmlns="http://www.w3.org/2000/svg">
<path d="M40.0375 75.2701L40.0449 75.2676L52.3192 71.189C52.32 71.1887 52.3208 71.1885 52.3216 71.1882C54.3179 70.5165 56.215 69.0092 57.6184 67.0657C59.0221 65.1217 59.86 62.841 59.86 60.709V44.0438L44.8957 53.861C42.5694 55.3903 39.5644 56.1157 36.6278 56.1157C33.6921 56.1157 30.6879 55.3907 28.3619 53.8623C28.3612 53.8619 28.3605 53.8614 28.3599 53.861L13.2755 44.0322L13.2417 60.709C13.2417 60.7094 13.2417 60.7098 13.2417 60.7102C13.242 62.8449 14.0724 65.1256 15.4701 67.0672C16.8678 69.009 18.7638 70.5158 20.7784 71.1876L40.0375 75.2701ZM40.0375 75.2701C39.1282 75.5786 37.8587 75.7524 36.5364 75.7524C35.2129 75.7524 33.9563 75.5783 33.0706 75.2723L33.0637 75.2699L33.0567 75.2676L20.7795 71.188L40.0375 75.2701Z" fill="#FEC840" stroke="#094DB3" stroke-width="2.49514"/>
<path d="M43.5251 3.09208L43.5261 3.09271L66.5798 18.2181C70.9201 21.0772 72.3547 26.2514 70.9628 30.7405L70.9068 30.921V31.1099V50.0472C70.9068 50.9363 70.1567 51.6864 69.2676 51.6864C68.3785 51.6864 67.6284 50.9363 67.6284 50.0472V38.2691V35.9569L65.6959 37.2264L60.4233 40.6901L60.4227 40.6906L43.5261 51.7753L43.5251 51.776C41.6944 52.9795 39.1954 53.6205 36.6278 53.6205C34.0603 53.6205 31.5613 52.9795 29.7306 51.776L29.7263 51.7732L12.7137 40.688L12.7126 40.6872L6.55621 36.6856C6.55593 36.6854 6.55565 36.6853 6.55537 36.6851C-0.121344 32.3254 -0.113769 22.5409 6.5524 18.2234L6.55619 18.221L29.7272 3.09428L29.7306 3.09208C31.5613 1.88859 34.0603 1.24757 36.6278 1.24757C39.1954 1.24757 41.6944 1.88859 43.5251 3.09208Z" fill="#094DB3" stroke="#FDB500" stroke-width="2.49514"/>
</svg>
