<svg width="41" height="67" viewBox="0 0 41 67" fill="none" xmlns="http://www.w3.org/2000/svg">
<path d="M11.0357 64.3992V62.3137C11.0357 61.1907 10.1253 60.2803 9.00221 60.2803C7.87916 60.2803 6.96875 61.1907 6.96875 62.3137V64.3992C6.96875 65.5223 7.87916 66.4327 9.00221 66.4327C10.1253 66.4327 11.0357 65.5223 11.0357 64.3992Z" fill="#0F3368"/>
<path d="M34.0376 64.3992V62.3137C34.0376 61.1907 33.1272 60.2803 32.0042 60.2803C30.8811 60.2803 29.9707 61.1907 29.9707 62.3137V64.3992C29.9707 65.5223 30.8811 66.4327 32.0042 66.4327C33.1272 66.4327 34.0376 65.5223 34.0376 64.3992Z" fill="#0F3368"/>
<path d="M34.1099 0H6.89007C3.08479 0 0 3.08479 0 6.89007V19.8307C0 23.636 3.08479 26.7208 6.89006 26.7208H34.1099C37.9152 26.7208 41 23.636 41 19.8307V6.89007C41 3.08479 37.9152 0 34.1099 0Z" fill="#094DB3"/>
<path d="M34.1099 26.7208H6.89007C3.08479 26.7208 0 29.8056 0 33.6109V55.4237C0 59.2289 3.08479 62.3137 6.89006 62.3137H34.1099C37.9152 62.3137 41 59.2289 41 55.4237V33.6109C41 29.8056 37.9152 26.7208 34.1099 26.7208Z" fill="#094DB3"/>
<mask id="path-5-inside-1_85_9570" fill="white">
<path d="M40.9999 24.8163C40.9999 23.7647 40.1474 22.9122 39.0957 22.9122H0.31854C0.142616 22.9122 0 23.0548 0 23.2307C0 25.1581 1.56243 26.7205 3.48978 26.7205H39.0957C40.1474 26.7205 40.9999 25.868 40.9999 24.8163Z"/>
</mask>
<path d="M40.9999 24.8163C40.9999 23.7647 40.1474 22.9122 39.0957 22.9122H0.31854C0.142616 22.9122 0 23.0548 0 23.2307C0 25.1581 1.56243 26.7205 3.48978 26.7205H39.0957C40.1474 26.7205 40.9999 25.868 40.9999 24.8163Z" fill="#0F3368"/>
<path d="M39.0957 16.0221H0.31854V29.8022H39.0957V16.0221ZM3.48978 33.6106H39.0957V19.8304H3.48978V33.6106ZM39.0957 33.6106C43.9526 33.6106 47.8899 29.6732 47.8899 24.8163H34.1098C34.1098 22.0627 36.3421 19.8304 39.0957 19.8304V33.6106ZM-6.89007 23.2307C-6.89007 28.9633 -2.24285 33.6106 3.48978 33.6106V19.8304C5.3677 19.8304 6.89007 21.3528 6.89007 23.2307H-6.89007ZM0.31854 16.0221C-3.66264 16.0221 -6.89007 19.2495 -6.89007 23.2307H6.89007C6.89007 26.8601 3.94787 29.8022 0.31854 29.8022V16.0221ZM39.0957 29.8022C36.3421 29.8022 34.1098 27.57 34.1098 24.8163H47.8899C47.8899 19.9594 43.9526 16.0221 39.0957 16.0221V29.8022Z" fill="white" mask="url(#path-5-inside-1_85_9570)"/>
<path d="M8.99466 17.1045V13.5805C8.99466 12.4575 8.08425 11.5471 6.9612 11.5471C5.83815 11.5471 4.92773 12.4575 4.92773 13.5805V17.1045C4.92773 18.2276 5.83815 19.138 6.9612 19.138C8.08425 19.138 8.99466 18.2276 8.99466 17.1045Z" fill="#FDB500"/>
<path d="M8.99466 40.4854V36.6211C8.99466 35.498 8.08425 34.5876 6.9612 34.5876C5.83815 34.5876 4.92773 35.498 4.92773 36.6211V40.4854C4.92773 41.6085 5.83815 42.5189 6.9612 42.5189C8.08425 42.5189 8.99466 41.6085 8.99466 40.4854Z" fill="#FDB500"/>
</svg>
