<svg width="57" height="75" viewBox="0 0 57 75" fill="none" xmlns="http://www.w3.org/2000/svg">
<path opacity="0.962" fill-rule="evenodd" clip-rule="evenodd" d="M46.2015 72.1035C34.0972 71.9728 21.971 71.9291 9.82265 71.9727C9.82265 72.5397 9.82265 73.1068 9.82265 73.6738C9.5676 74.5664 9.00046 74.85 8.12148 74.5244C7.96876 74.3717 7.81618 74.2191 7.66347 74.0664C7.59817 73.4136 7.57632 72.7593 7.59804 72.1035C5.06813 72.1035 2.5381 72.1035 0.00819711 72.1035C-0.0136564 49.1594 0.00819711 26.2155 0.0736268 3.27152C0.589343 1.36005 1.83251 0.291456 3.80312 0.0654624C19.9424 -0.0218208 36.0818 -0.0218208 52.2211 0.0654624C54.1319 0.274706 55.375 1.29973 55.9506 3.14066C56.1677 26.0808 56.2112 49.0249 56.0814 71.9727C53.5833 72.1026 51.0751 72.1462 48.557 72.1035C48.5787 72.6722 48.5569 73.2393 48.4916 73.8047C48.1312 74.6065 47.5423 74.8463 46.725 74.5244C46.5223 74.3656 46.3697 74.1693 46.267 73.9356C46.2017 73.3264 46.1798 72.7158 46.2015 72.1035ZM53.7914 11.6465C36.6488 11.6465 19.5062 11.6465 2.36367 11.6465C2.36367 9.0729 2.36367 6.49942 2.36367 3.92581C2.56728 3.08975 3.09072 2.58817 3.93398 2.42093C19.9861 2.33365 36.0381 2.33365 52.0902 2.42093C53.0281 2.57364 53.5732 3.1188 53.726 4.05667C53.7914 6.58618 53.8132 9.11622 53.7914 11.6465ZM2.36367 14.002C10.5205 14.002 18.6775 14.002 26.8344 14.002C26.8344 28.8764 26.8344 43.7506 26.8344 58.625C18.6775 58.625 10.5205 58.625 2.36367 58.625C2.36367 43.7506 2.36367 28.8764 2.36367 14.002ZM29.1898 14.002C29.1898 28.8764 29.1898 43.7506 29.1898 58.625C37.3904 58.625 45.5908 58.625 53.7914 58.625C53.7914 43.7506 53.7914 28.8764 53.7914 14.002C45.5908 14.002 37.3904 14.002 29.1898 14.002ZM8.77577 20.4141C8.77577 31.0573 8.77577 41.7006 8.77577 52.3438C12.6458 52.3868 16.5062 52.3431 20.3568 52.2129C20.4223 41.6134 20.4441 31.0138 20.4223 20.4141C16.54 20.4141 12.658 20.4141 8.77577 20.4141ZM35.7328 20.4141C35.5806 31.0045 35.5588 41.6041 35.6674 52.2129C39.518 52.3431 43.3784 52.3868 47.2484 52.3438C47.2484 41.7006 47.2484 31.0573 47.2484 20.4141C43.4099 20.4141 39.5713 20.4141 35.7328 20.4141ZM53.7914 61.1113C53.7914 63.9903 53.7914 66.8692 53.7914 69.7481C36.6488 69.7481 19.5062 69.7481 2.36367 69.7481C2.36367 66.8692 2.36367 63.9903 2.36367 61.1113C19.5062 61.1113 36.6488 61.1113 53.7914 61.1113Z" fill="#1F3F80"/>
<path opacity="0.067" fill-rule="evenodd" clip-rule="evenodd" d="M2.36377 3.92578C2.36377 6.49939 2.36377 9.07287 2.36377 11.6465C19.5064 11.6465 36.6489 11.6465 53.7915 11.6465C36.6272 11.7773 19.4411 11.8209 2.23292 11.7773C2.18973 9.13739 2.23331 6.5202 2.36377 3.92578Z" fill="#31508E"/>
<path opacity="0.067" fill-rule="evenodd" clip-rule="evenodd" d="M2.364 14.002C2.364 28.8763 2.364 43.7506 2.364 58.625C10.5209 58.625 18.6778 58.625 26.8347 58.625C18.6563 58.7557 10.4558 58.7993 2.23314 58.7558C2.18956 43.8159 2.23314 28.8979 2.364 14.002Z" fill="#31508E"/>
<path opacity="0.967" fill-rule="evenodd" clip-rule="evenodd" d="M8.64417 18.0586C12.6138 18.0368 16.5831 18.0586 20.5524 18.124C21.6814 18.2935 22.4012 18.9261 22.7116 20.0215C22.7988 30.9264 22.7988 41.8314 22.7116 52.7364C22.4924 53.5661 21.9908 54.155 21.2067 54.503C17.0244 54.7163 12.8369 54.7598 8.64417 54.6338C7.72201 54.5406 7.04586 54.0826 6.61585 53.2598C6.39876 42.1442 6.35518 31.0212 6.48499 19.8906C6.85755 18.8655 7.57728 18.2548 8.64417 18.0586ZM8.77503 20.4141C8.77503 31.0573 8.77503 41.7006 8.77503 52.3438C12.6451 52.3868 16.5054 52.3431 20.3561 52.2129C20.4215 41.6134 20.4434 31.0138 20.4215 20.4141C16.5393 20.4141 12.6572 20.4141 8.77503 20.4141Z" fill="#FDB500"/>
<path opacity="0.968" fill-rule="evenodd" clip-rule="evenodd" d="M35.4707 18.0586C39.4839 18.0368 43.497 18.0586 47.5098 18.124C48.753 18.3203 49.4727 19.0401 49.669 20.2832C49.7563 30.9701 49.7563 41.6569 49.669 52.3438C49.5329 53.6576 48.8132 54.4209 47.5098 54.6338C43.4967 54.7211 39.4838 54.7211 35.4707 54.6338C34.2276 54.4375 33.5078 53.7178 33.3116 52.4746C33.2243 41.7442 33.2243 31.0137 33.3116 20.2832C33.5314 19.0385 34.2511 18.297 35.4707 18.0586ZM35.7325 20.4141C35.5803 31.0045 35.5584 41.6041 35.667 52.2129C39.5177 52.3431 43.378 52.3868 47.2481 52.3438C47.2481 41.7006 47.2481 31.0573 47.2481 20.4141C43.4096 20.4141 39.571 20.4141 35.7325 20.4141Z" fill="#FDB500"/>
<path opacity="0.913" fill-rule="evenodd" clip-rule="evenodd" d="M9.95418 24.7324C13.0515 24.7106 16.1485 24.7324 19.2452 24.7979C19.6429 25.2958 19.5556 25.6884 18.9835 25.9756C16.061 26.0629 13.1384 26.0629 10.2159 25.9756C9.63488 25.6657 9.5476 25.2514 9.95418 24.7324Z" fill="#FDB500"/>
<path opacity="0.913" fill-rule="evenodd" clip-rule="evenodd" d="M36.911 24.7324C39.9647 24.7106 43.0181 24.7324 46.0711 24.7979C46.61 25.32 46.5227 25.7126 45.8094 25.9756C42.9305 26.0629 40.0516 26.0629 37.1727 25.9756C36.4425 25.6846 36.3554 25.2703 36.911 24.7324Z" fill="#FDB500"/>
<path opacity="0.912" fill-rule="evenodd" clip-rule="evenodd" d="M10.2134 32.0606C13.1362 32.0387 16.0587 32.0606 18.9809 32.126C19.553 32.4132 19.6403 32.8058 19.2427 33.3037C16.1456 33.391 13.0487 33.391 9.95163 33.3037C9.56207 32.7872 9.64922 32.3728 10.2134 32.0606Z" fill="#FDB500"/>
<path opacity="0.914" fill-rule="evenodd" clip-rule="evenodd" d="M37.1713 32.0606C40.0506 32.0387 42.9295 32.0606 45.8081 32.126C46.5214 32.389 46.6087 32.7816 46.0698 33.3037C43.0164 33.391 39.963 33.391 36.9096 33.3037C36.4905 33.0489 36.425 32.7218 36.7133 32.3223C36.8837 32.2457 37.0364 32.1586 37.1713 32.0606Z" fill="#FDB500"/>
<path opacity="0.91" fill-rule="evenodd" clip-rule="evenodd" d="M24.7403 32.8457C24.9665 32.9264 25.1628 33.0573 25.3291 33.2383C25.4164 35.4193 25.4164 37.6002 25.3291 39.7813C24.8312 40.1789 24.4386 40.0917 24.1514 39.5195C24.0641 37.4694 24.0641 35.4193 24.1514 33.3691C24.2701 33.0932 24.4664 32.9187 24.7403 32.8457Z" fill="#214081"/>
<path opacity="0.911" fill-rule="evenodd" clip-rule="evenodd" d="M31.1524 32.8457C31.4899 32.8918 31.7299 33.0663 31.8721 33.3691C31.9594 35.4629 31.9594 37.5566 31.8721 39.6504C31.5285 40.1178 31.1359 40.1614 30.6944 39.7812C30.6071 37.6002 30.6071 35.4193 30.6944 33.2383C30.8442 33.0896 30.9969 32.9588 31.1524 32.8457Z" fill="#214081"/>
<path opacity="0.985" fill-rule="evenodd" clip-rule="evenodd" d="M10.0832 39.5195C13.0932 39.4977 16.103 39.5195 19.1125 39.585C19.6359 39.9776 19.6359 40.3701 19.1125 40.7627C16.1027 40.85 13.093 40.85 10.0832 40.7627C9.70645 40.5447 9.59744 40.2176 9.75604 39.7813C9.88625 39.7072 9.99525 39.6199 10.0832 39.5195Z" fill="#FDB500"/>
<path opacity="0.989" fill-rule="evenodd" clip-rule="evenodd" d="M36.9102 39.5195C39.964 39.4977 43.0173 39.5195 46.0704 39.585C46.5938 39.9776 46.5938 40.3701 46.0704 40.7627C43.017 40.85 39.9636 40.85 36.9102 40.7627C36.4232 40.3618 36.4232 39.9475 36.9102 39.5195Z" fill="#FDB500"/>
<path opacity="0.912" fill-rule="evenodd" clip-rule="evenodd" d="M9.95418 46.9785C13.0515 46.9567 16.1485 46.9785 19.2452 47.044C19.6429 47.5419 19.5556 47.9345 18.9835 48.2217C16.061 48.309 13.1384 48.309 10.2159 48.2217C9.63488 47.9118 9.5476 47.4975 9.95418 46.9785Z" fill="#FDB500"/>
<path opacity="0.913" fill-rule="evenodd" clip-rule="evenodd" d="M36.911 46.9785C39.9647 46.9567 43.0181 46.9785 46.0711 47.044C46.61 47.5661 46.5227 47.9587 45.8094 48.2217C42.9305 48.309 40.0516 48.309 37.1727 48.2217C36.4425 47.9307 36.3554 47.5164 36.911 46.9785Z" fill="#FDB500"/>
<path opacity="0.067" fill-rule="evenodd" clip-rule="evenodd" d="M53.7916 61.1113C36.649 61.1113 19.5064 61.1113 2.36383 61.1113C2.36383 63.9902 2.36383 66.8691 2.36383 69.748C2.23336 66.8482 2.18966 63.9256 2.23297 60.9805C19.4411 60.9369 36.6273 60.9805 53.7916 61.1113Z" fill="#31508E"/>
<path opacity="0.067" fill-rule="evenodd" clip-rule="evenodd" d="M46.2012 72.1035C34.1185 72.1035 22.0358 72.1035 9.95312 72.1035C9.99461 72.6534 9.9509 73.1768 9.82227 73.6738C9.82227 73.1068 9.82227 72.5396 9.82227 71.9726C21.9706 71.929 34.0968 71.9728 46.2012 72.1035Z" fill="#31508E"/>
</svg>
