<svg width="67" height="66" viewBox="0 0 67 66" fill="none" xmlns="http://www.w3.org/2000/svg">
<path d="M44.7277 1.26736C45.5986 1.96735 45.7371 3.24082 45.0371 4.11171L36.8409 14.3088C36.3616 14.905 35.6379 15.2518 34.873 15.2518H32.9376C31.0859 15.2518 29.334 14.4123 28.174 12.969L21.0546 4.11168C20.3546 3.2408 20.4931 1.96735 21.364 1.26735C22.2348 0.567395 23.5081 0.705847 24.2082 1.57661L32.9561 12.458C33.0026 12.5155 33.0903 12.5154 33.1366 12.4578L41.8834 1.57672C42.5834 0.705905 43.8568 0.567405 44.7277 1.26736Z" fill="#FDB500"/>
<path d="M59.9831 14.3064H6.11179C2.73634 14.3064 0 17.0427 0 20.4182V59.8883C0 63.2637 2.73634 66.0001 6.11179 66.0001H59.9831C63.3585 66.0001 66.0949 63.2637 66.0949 59.8883V20.4182C66.0949 17.0427 63.3585 14.3064 59.9831 14.3064Z" fill="#094DB3"/>
<path d="M12.9907 24.3235H44.2009C45.8886 24.3235 47.2568 25.6917 47.2568 27.3794V52.9264C47.2568 54.6141 45.8886 55.9823 44.2009 55.9823H12.9907C11.303 55.9823 9.9348 54.6141 9.9348 52.9264V27.3794C9.9348 25.6916 11.303 24.3235 12.9907 24.3235Z" fill="#0F3368" stroke="white" stroke-width="6.11179"/>
<path d="M60.2334 26.3607V25.9533C60.2334 24.9483 59.4186 24.1335 58.4136 24.1335C57.4085 24.1335 56.5938 24.9483 56.5938 25.9533V26.3607C56.5938 27.3657 57.4085 28.1805 58.4136 28.1805C59.4186 28.1805 60.2334 27.3657 60.2334 26.3607Z" fill="#FDB500"/>
<path d="M60.2334 35.4645V35.0572C60.2334 34.0521 59.4186 33.2374 58.4136 33.2374C57.4085 33.2374 56.5938 34.0521 56.5938 35.0572V35.4645C56.5938 36.4696 57.4085 37.2844 58.4136 37.2844C59.4186 37.2844 60.2334 36.4696 60.2334 35.4645Z" fill="#FDB500"/>
<path d="M60.2334 44.9079V44.5006C60.2334 43.4955 59.4186 42.6807 58.4136 42.6807C57.4085 42.6807 56.5938 43.4955 56.5938 44.5006V44.9079C56.5938 45.913 57.4085 46.7277 58.4136 46.7277C59.4186 46.7277 60.2334 45.913 60.2334 44.9079Z" fill="#FDB500"/>
<path d="M60.2334 54.3527V53.9453C60.2334 52.9403 59.4186 52.1255 58.4136 52.1255C57.4085 52.1255 56.5938 52.9403 56.5938 53.9453V54.3527C56.5938 55.3577 57.4085 56.1725 58.4136 56.1725C59.4186 56.1725 60.2334 55.3577 60.2334 54.3527Z" fill="#FDB500"/>
</svg>
