<svg width="53" height="63" viewBox="0 0 53 63" fill="none" xmlns="http://www.w3.org/2000/svg">
<path d="M39.506 34.4016C39.506 42.1422 33.231 48.4173 25.4903 48.4173C17.7497 48.4173 11.4746 43.4164 11.4746 35.6757C11.4746 27.9351 17.7497 21.66 25.4903 21.66C33.231 21.66 39.506 26.6609 39.506 34.4016Z" fill="#0F3368" stroke="white" stroke-width="5.72727"/>
<path fill-rule="evenodd" clip-rule="evenodd" d="M0.417927 13.6521C0.188579 13.8814 0 24.4646 0 37.1653V60.2607L1.45761 61.6291C2.89995 62.9848 3.16751 63.0001 25.9163 63.0001H48.9173L51.9727 59.751L52.1537 37.3692C52.2862 21.0906 52.1359 14.7504 51.6033 14.1108C50.8286 13.1755 1.33787 12.7321 0.417927 13.6521ZM33.7422 24.2429C44.8299 32.6982 39.7281 48.5155 25.9163 48.5079C10.9577 48.5002 6.47018 30.0861 19.7749 23.2923C23.628 21.325 30.5338 21.7965 33.7422 24.2429Z" fill="#094DB3"/>
<path d="M16.5633 1.27362L2.54759 2.54778H1.27344V8.91855H2.54759H17.8375H36.9498H44.5947L49.6913 7.64439L47.143 2.54778L44.5947 1.27362H38.2239L25.4824 2.54778L16.5633 1.27362Z" fill="#FDB500"/>
<path fill-rule="evenodd" clip-rule="evenodd" d="M0.65232 1.21809C0.293008 1.8883 0 4.30155 0 6.57974V10.7233L51.9727 10.3946L52.1639 6.71225C52.2964 4.15629 52.0518 2.5687 51.3612 1.51625L50.3699 0H25.8373C2.22724 0 1.2792 0.0458712 0.65232 1.21809ZM44.1392 2.54322C46.634 3.87853 44.9802 8.12401 42.2942 7.27288C39.5523 6.40136 38.9662 2.97388 41.4508 2.31896C42.0394 2.16351 42.6128 2.00297 42.7224 1.9622C42.8319 1.92398 43.469 2.1839 44.1392 2.54322ZM17.0838 8.23104L2.83372 7.87428L2.62981 6.09046C2.22973 2.59673 2.5152 2.46167 9.9104 2.65534L16.694 2.83627L17.0838 8.23104Z" fill="#094DB3"/>
</svg>
