<svg width="44" height="44" viewBox="0 0 44 44" fill="none" xmlns="http://www.w3.org/2000/svg">
<path d="M13.498 16.1983H15.2979M15.2979 16.1983H29.6964M15.2979 16.1983V28.7969C15.2979 29.2743 15.4875 29.7321 15.825 30.0696C16.1625 30.4071 16.6203 30.5968 17.0977 30.5968H26.0967C26.5741 30.5968 27.0319 30.4071 27.3694 30.0696C27.7069 29.7321 27.8965 29.2743 27.8965 28.7969V16.1983H15.2979ZM17.9976 16.1983V14.3984C17.9976 13.9211 18.1872 13.4633 18.5247 13.1258C18.8623 12.7883 19.32 12.5986 19.7974 12.5986H23.397C23.8744 12.5986 24.3321 12.7883 24.6697 13.1258C25.0072 13.4633 25.1968 13.9211 25.1968 14.3984V16.1983M19.7974 20.6978V26.0972M23.397 20.6978V26.0972" stroke="#667085" stroke-width="1.79981" stroke-linecap="round" stroke-linejoin="round"/>
</svg>
