<svg width="31" height="30" viewBox="0 0 31 30" fill="none" xmlns="http://www.w3.org/2000/svg">
<rect x="-0.5" y="0.5" width="28.6111" height="29" rx="2.14706" transform="matrix(-1 0 0 1 29.2207 0)" fill="white" stroke="#909090"/>
<g clip-path="url(#clip0_85_16411)">
<path d="M18.8965 10.4377C19.0442 10.2899 19.2196 10.1727 19.4126 10.0928C19.6057 10.0128 19.8126 9.97168 20.0215 9.97168C20.2304 9.97168 20.4373 10.0128 20.6303 10.0928C20.8234 10.1727 20.9987 10.2899 21.1465 10.4377C21.2942 10.5854 21.4114 10.7608 21.4914 10.9538C21.5713 11.1469 21.6125 11.3537 21.6125 11.5627C21.6125 11.7716 21.5713 11.9785 21.4914 12.1715C21.4114 12.3645 21.2942 12.5399 21.1465 12.6877L13.5527 20.2814L10.459 21.1252L11.3027 18.0314L18.8965 10.4377Z" stroke="#505050" stroke-width="1.125" stroke-linecap="round" stroke-linejoin="round"/>
</g>
<defs>
<clipPath id="clip0_85_16411">
<rect width="13.5" height="13.5" fill="white" transform="translate(9.33398 8.75)"/>
</clipPath>
</defs>
</svg>
