<svg width="44" height="44" viewBox="0 0 44 44" fill="none" xmlns="http://www.w3.org/2000/svg">
<path d="M26.0962 13.4987C26.3326 13.2623 26.6132 13.0748 26.922 12.9469C27.2308 12.819 27.5618 12.7532 27.8961 12.7532C28.2303 12.7532 28.5613 12.819 28.8701 12.9469C29.1789 13.0748 29.4595 13.2623 29.6959 13.4987C29.9322 13.735 30.1197 14.0156 30.2476 14.3244C30.3755 14.6333 30.4414 14.9642 30.4414 15.2985C30.4414 15.6327 30.3755 15.9637 30.2476 16.2725C30.1197 16.5814 29.9322 16.8619 29.6959 17.0983L17.5471 29.247L12.5977 30.5969L13.9475 25.6474L26.0962 13.4987Z" stroke="#667085" stroke-width="1.79981" stroke-linecap="round" stroke-linejoin="round"/>
</svg>
