<svg width="16" height="17" viewBox="0 0 16 17" fill="none" xmlns="http://www.w3.org/2000/svg">
<path d="M8.22641 1.01049C8.09335 0.922189 7.93641 0.875 7.7758 0.875C7.61519 0.875 7.45825 0.922189 7.32519 1.01049L0.887866 5.27657C0.778778 5.34897 0.689451 5.44653 0.627722 5.56072C0.565993 5.67491 0.533747 5.80222 0.533814 5.93149V15.8857C0.533814 16.0952 0.618591 16.2961 0.769494 16.4443C0.920398 16.5925 1.12507 16.6757 1.33848 16.6757H14.2131C14.4265 16.6757 14.6312 16.5925 14.7821 16.4443C14.933 16.2961 15.0178 16.0952 15.0178 15.8857V5.93149C15.0178 5.80222 14.9856 5.67491 14.9239 5.56072C14.8621 5.44653 14.7728 5.34897 14.6637 5.27657L8.22641 1.01049ZM9.38513 15.0957H6.16647V10.3556H9.38513V15.0957ZM13.4085 15.0957H10.9945V9.56556C10.9945 9.35604 10.9097 9.15509 10.7588 9.00694C10.6079 8.85878 10.4032 8.77555 10.1898 8.77555H5.3618C5.14839 8.77555 4.94372 8.85878 4.79282 9.00694C4.64192 9.15509 4.55714 9.35604 4.55714 9.56556V15.0957H2.14314V6.35178L7.7758 2.61896L13.4085 6.35178V15.0957Z" fill="white"/>
</svg>
