<svg width="420" height="420" viewBox="0 0 420 420" fill="none" xmlns="http://www.w3.org/2000/svg">
<path opacity="0.4" d="M336.754 251.055C347.951 180.92 300.171 114.988 230.036 103.791C159.901 92.5952 93.9686 140.375 82.7725 210.51C71.5763 280.645 119.356 346.577 189.491 357.773C259.626 368.97 325.558 321.19 336.754 251.055Z" fill="#011B41"/>
<path opacity="0.4" d="M315 315C372.99 257.01 372.99 162.99 315 105C257.01 47.0102 162.99 47.0102 105 105C47.0101 162.99 47.0101 257.01 105 315C162.99 372.99 257.01 372.99 315 315Z" fill="#011B41"/>
<mask id="mask0_85_12588" style="mask-type:luminance" maskUnits="userSpaceOnUse" x="81" y="102" width="258" height="258">
<path d="M336.754 251.055C347.951 180.919 300.171 114.987 230.036 103.791C159.901 92.5949 93.9686 140.374 82.7725 210.51C71.5763 280.645 119.356 346.577 189.491 357.773C259.626 368.969 325.558 321.19 336.754 251.055Z" fill="white"/>
</mask>
<g mask="url(#mask0_85_12588)">
<path d="M253.018 232.545H166.43C134.317 232.545 108.289 257.522 108.289 288.291V402.739H311.134V288.291C311.159 257.522 285.131 232.545 253.018 232.545Z" fill="#F2F2F2"/>
<path d="M156.41 286.091C156.252 286.091 156.101 286.152 155.987 286.261C155.873 286.371 155.806 286.52 155.799 286.678V308.331L143.898 280.323C143.868 280.247 143.824 280.178 143.766 280.12C143.709 280.062 143.64 280.016 143.564 279.987C143.489 279.957 143.407 279.943 143.326 279.946C143.244 279.95 143.164 279.97 143.091 280.006C142.948 280.07 142.835 280.187 142.775 280.333C142.716 280.479 142.715 280.642 142.773 280.788L155.799 311.557V402.837C155.799 402.999 155.864 403.155 155.978 403.269C156.093 403.384 156.248 403.448 156.41 403.448C156.572 403.448 156.728 403.384 156.842 403.269C156.957 403.155 157.021 402.999 157.021 402.837V286.678C157.015 286.52 156.948 286.371 156.834 286.261C156.72 286.152 156.568 286.091 156.41 286.091Z" fill="white"/>
<path d="M277.775 279.908C277.703 279.872 277.625 279.852 277.545 279.849C277.466 279.846 277.386 279.86 277.312 279.89C277.238 279.92 277.171 279.965 277.116 280.023C277.061 280.081 277.019 280.15 276.993 280.226L265.604 307.109V286.873C265.604 286.711 265.54 286.556 265.425 286.441C265.311 286.326 265.155 286.262 264.993 286.262C264.831 286.262 264.676 286.326 264.561 286.441C264.447 286.556 264.382 286.711 264.382 286.873V309.968L263.918 311.068C263.86 311.214 263.861 311.377 263.92 311.522C263.979 311.668 264.092 311.785 264.236 311.85H264.382V402.666C264.382 402.828 264.447 402.983 264.561 403.098C264.676 403.212 264.831 403.277 264.993 403.277C265.155 403.277 265.311 403.212 265.425 403.098C265.54 402.983 265.604 402.828 265.604 402.666V310.237L278.093 280.69C278.128 280.618 278.148 280.54 278.151 280.46C278.155 280.381 278.141 280.301 278.111 280.227C278.081 280.153 278.035 280.086 277.977 280.031C277.919 279.976 277.85 279.934 277.775 279.908Z" fill="white"/>
<path d="M230.265 225.091C229.022 225.374 227.752 225.522 226.477 225.531H194.926C193.643 225.523 192.365 225.375 191.114 225.091C187.638 224.332 184.476 222.534 182.047 219.934V230.932C182.264 238.368 185.371 245.426 190.707 250.608C196.044 255.791 203.19 258.69 210.628 258.69C218.067 258.69 225.213 255.791 230.55 250.608C235.886 245.426 238.993 238.368 239.21 230.932V219.934C236.814 222.513 233.697 224.309 230.265 225.091Z" fill="#FFE4C5"/>
<path opacity="0.46" d="M194.926 225.531C193.643 225.523 192.364 225.375 191.113 225.091C196.412 230.056 203.403 232.819 210.665 232.819C217.927 232.819 224.917 230.056 230.216 225.091C228.973 225.374 227.703 225.521 226.428 225.531H194.926Z" fill="#EFB392"/>
<path d="M173.078 174.355C173.078 174.355 173.078 174.355 172.882 174.355C172.725 174.356 172.573 174.295 172.459 174.185C172.345 174.076 172.278 173.927 172.271 173.769C172.147 172.326 172.586 170.89 173.498 169.765C174.409 168.639 175.722 167.91 177.159 167.732V164.873C176.9 164.505 176.663 164.121 176.45 163.724C174.053 164.389 171.948 165.841 170.475 167.846C169.001 169.852 168.245 172.294 168.326 174.781C168.408 177.268 169.323 179.655 170.925 181.559C172.527 183.463 174.723 184.774 177.159 185.28V180.734C175.974 180.128 174.972 179.218 174.255 178.097C173.538 176.976 173.131 175.685 173.078 174.355Z" fill="#FFE4C5"/>
<path d="M252.919 174.428C252.915 171.928 252.069 169.503 250.517 167.543C248.965 165.583 246.798 164.203 244.366 163.626C244.366 163.968 244.121 164.286 243.975 164.604V167.414C244.225 167.497 244.47 167.595 244.708 167.708C245.459 167.751 246.193 167.944 246.868 168.275C247.543 168.605 248.146 169.068 248.64 169.635C249.134 170.202 249.509 170.861 249.745 171.576C249.98 172.29 250.071 173.044 250.011 173.793C250.011 173.949 249.949 174.098 249.839 174.208C249.729 174.318 249.58 174.38 249.425 174.38C249.322 175.947 248.753 177.448 247.791 178.689C246.828 179.931 245.516 180.855 244.024 181.345V185.328C246.538 184.82 248.798 183.456 250.42 181.469C252.042 179.481 252.925 176.994 252.919 174.428Z" fill="#FFE4C5"/>
<path d="M248.838 173.793C248.892 173.175 248.817 172.552 248.619 171.964C248.42 171.375 248.102 170.835 247.684 170.376C247.266 169.916 246.758 169.549 246.191 169.296C245.624 169.043 245.011 168.91 244.39 168.905C244.235 168.901 244.088 168.84 243.975 168.734V181.345C245.467 180.856 246.779 179.931 247.742 178.69C248.704 177.448 249.273 175.947 249.376 174.38C249.301 174.38 249.227 174.365 249.158 174.335C249.089 174.305 249.028 174.261 248.977 174.205C248.927 174.15 248.888 174.085 248.864 174.014C248.84 173.943 248.831 173.868 248.838 173.793Z" fill="#EFB392"/>
<path d="M173.469 173.793C173.461 173.907 173.42 174.017 173.351 174.108C173.281 174.199 173.186 174.268 173.078 174.306C173.139 175.653 173.562 176.958 174.301 178.085C175.041 179.211 176.07 180.118 177.282 180.709V168.905C176.13 169.052 175.082 169.648 174.368 170.563C173.654 171.479 173.331 172.64 173.469 173.793Z" fill="#EFB392"/>
<path opacity="0.46" d="M244.39 167.683H244.708C244.47 167.571 244.225 167.473 243.975 167.39V167.903C244.08 167.78 244.229 167.701 244.39 167.683Z" fill="#EFB392"/>
<path d="M243.975 167.903V168.758C244.088 168.864 244.235 168.925 244.39 168.929C245.011 168.934 245.624 169.067 246.191 169.32C246.758 169.573 247.266 169.94 247.684 170.4C248.102 170.859 248.42 171.4 248.619 171.988C248.817 172.576 248.892 173.199 248.838 173.817C248.835 173.89 248.846 173.963 248.872 174.031C248.897 174.099 248.936 174.161 248.987 174.213C249.037 174.266 249.097 174.308 249.164 174.336C249.231 174.365 249.303 174.379 249.376 174.379C249.531 174.379 249.68 174.318 249.79 174.208C249.9 174.098 249.962 173.948 249.962 173.793C250.022 173.043 249.932 172.289 249.696 171.575C249.461 170.861 249.085 170.201 248.591 169.635C248.097 169.068 247.494 168.605 246.819 168.274C246.144 167.943 245.41 167.751 244.659 167.708H244.341C244.201 167.73 244.071 167.799 243.975 167.903Z" fill="#1253AC"/>
<path d="M172.272 173.793C172.278 173.951 172.345 174.1 172.459 174.209C172.573 174.319 172.725 174.38 172.883 174.38C172.883 174.38 172.883 174.38 173.078 174.38C173.186 174.342 173.281 174.273 173.351 174.182C173.42 174.09 173.461 173.981 173.469 173.866C173.331 172.713 173.654 171.552 174.368 170.637C175.082 169.721 176.13 169.125 177.282 168.979V167.781C175.827 167.93 174.487 168.642 173.551 169.766C172.615 170.889 172.155 172.335 172.272 173.793Z" fill="#1253AC"/>
<path d="M243.975 168.71V164.604C244.122 164.286 244.244 163.969 244.366 163.626C245.099 161.793 245.759 159.961 246.444 158.519C252.162 146.837 255.804 128.043 238.745 125.77C237.983 125.673 237.216 125.624 236.448 125.624C233.502 125.613 230.607 124.848 228.041 123.402C225.474 121.956 223.32 119.877 221.784 117.363C219.815 114.269 217.095 111.724 213.877 109.964C210.66 108.203 207.049 107.285 203.382 107.294C200.438 107.36 197.536 108.01 194.844 109.204C192.152 110.398 189.724 112.114 187.699 114.252C185.674 116.391 184.093 118.909 183.048 121.662C182.002 124.415 181.512 127.348 181.606 130.291C179.531 130.398 177.532 131.107 175.852 132.33C174.173 133.554 172.886 135.24 172.148 137.183C171.264 140.005 171.08 142.999 171.611 145.908C172.197 150.343 173.17 154.718 174.519 158.983C175.001 160.632 175.665 162.222 176.499 163.724C176.711 164.121 176.948 164.505 177.207 164.873V207.861C177.239 212.531 179.109 217.001 182.411 220.303C185.713 223.605 190.183 225.474 194.852 225.506H226.355C231.028 225.494 235.506 223.63 238.809 220.323C242.111 217.016 243.969 212.535 243.975 207.861V168.759V168.71Z" fill="#1253AC"/>
<path d="M183.83 176.041V152.164C183.654 149.379 184.581 146.637 186.41 144.529C188.239 142.421 190.823 141.117 193.605 140.898H192.335C189.459 140.981 186.733 142.201 184.754 144.289C182.775 146.378 181.705 149.166 181.777 152.042V175.65C181.736 178.107 182.518 180.506 183.996 182.467C185.475 184.429 187.567 185.84 189.94 186.477C188.038 185.494 186.455 183.991 185.374 182.144C184.292 180.297 183.757 178.181 183.83 176.041Z" fill="#FFE4C5"/>
<path d="M228.578 141.02H227.479C230.261 141.239 232.845 142.543 234.674 144.651C236.503 146.759 237.43 149.502 237.254 152.287V176.164C237.313 178.267 236.79 180.345 235.742 182.17C234.694 183.994 233.162 185.493 231.315 186.502C233.583 185.778 235.558 184.345 236.949 182.413C238.34 180.481 239.072 178.153 239.038 175.773V152.165C239.111 149.305 238.054 146.531 236.096 144.445C234.138 142.359 231.437 141.129 228.578 141.02Z" fill="#FFE4C5"/>
<path opacity="0.46" d="M183.83 176.041V152.164C183.654 149.379 184.581 146.637 186.41 144.529C188.239 142.421 190.823 141.117 193.605 140.898H192.335C189.459 140.981 186.733 142.201 184.754 144.289C182.775 146.378 181.705 149.166 181.777 152.042V175.65C181.736 178.107 182.518 180.506 183.996 182.467C185.475 184.429 187.567 185.84 189.94 186.477C188.038 185.494 186.455 183.991 185.374 182.144C184.292 180.297 183.757 178.181 183.83 176.041Z" fill="#EFB392"/>
<path opacity="0.46" d="M228.578 141.02H227.479C230.261 141.239 232.845 142.543 234.674 144.651C236.503 146.759 237.43 149.502 237.254 152.287V176.164C237.313 178.267 236.79 180.345 235.742 182.17C234.694 183.994 233.162 185.493 231.315 186.502C233.583 185.778 235.558 184.345 236.949 182.413C238.34 180.481 239.072 178.153 239.038 175.773V152.165C239.111 149.305 238.054 146.531 236.096 144.445C234.138 142.359 231.437 141.129 228.578 141.02Z" fill="#EFB392"/>
<path d="M227.479 141.02H225.866C225.243 144.718 223.331 148.077 220.467 150.498C217.604 152.92 213.975 154.249 210.225 154.249C206.474 154.249 202.846 152.92 199.982 150.498C197.119 148.077 195.206 144.718 194.584 141.02H193.777C190.995 141.239 188.411 142.543 186.582 144.651C184.753 146.759 183.826 149.502 184.002 152.287V176.164C183.938 178.313 184.488 180.437 185.587 182.285C186.686 184.133 188.29 185.63 190.209 186.599C191.353 187.147 192.606 187.431 193.875 187.43H199.691C200.37 185.72 201.545 184.252 203.065 183.215C204.585 182.179 206.381 181.621 208.221 181.614H214.428C216.269 181.617 218.066 182.174 219.587 183.211C221.108 184.248 222.282 185.718 222.958 187.43H227.577C228.942 187.424 230.287 187.107 231.511 186.502C233.358 185.493 234.89 183.994 235.938 182.17C236.986 180.345 237.509 178.267 237.45 176.164V152.287C237.536 150.892 237.346 149.494 236.892 148.173C236.437 146.851 235.726 145.633 234.8 144.586C233.874 143.54 232.751 142.686 231.494 142.074C230.238 141.463 228.874 141.104 227.479 141.02Z" fill="#FFE4C5"/>
<path d="M225.01 173.085C225.375 173.085 225.726 172.941 225.987 172.685C226.247 172.429 226.397 172.081 226.403 171.716V168.93C226.403 168.561 226.256 168.206 225.995 167.945C225.734 167.684 225.38 167.537 225.01 167.537C224.641 167.537 224.286 167.684 224.025 167.945C223.764 168.206 223.617 168.561 223.617 168.93V171.716C223.624 172.081 223.773 172.429 224.034 172.685C224.294 172.941 224.645 173.085 225.01 173.085Z" fill="#1253AC"/>
<path d="M197.639 173.084C198.002 173.084 198.35 172.94 198.607 172.683C198.864 172.427 199.008 172.079 199.008 171.716V168.93C199.011 168.748 198.978 168.567 198.911 168.398C198.844 168.23 198.743 168.076 198.616 167.946C198.488 167.816 198.336 167.713 198.169 167.643C198.001 167.573 197.821 167.537 197.639 167.537C197.455 167.533 197.273 167.567 197.102 167.636C196.932 167.705 196.777 167.807 196.647 167.937C196.517 168.067 196.414 168.222 196.346 168.393C196.277 168.563 196.243 168.746 196.246 168.93V171.716C196.246 171.897 196.282 172.077 196.353 172.245C196.423 172.413 196.526 172.565 196.656 172.692C196.785 172.82 196.939 172.92 197.108 172.987C197.277 173.055 197.458 173.088 197.639 173.084Z" fill="#1253AC"/>
<path d="M221.296 163.26C222.015 163.765 222.863 164.053 223.74 164.091C224.595 164.238 225.451 164.409 226.184 164.604C226.917 164.8 227.773 165.044 228.628 165.337C229.386 165.706 230.239 165.834 231.072 165.704C231.805 165.484 232.294 164.482 231.83 162.942C231.483 161.962 230.897 161.084 230.124 160.388C229.352 159.692 228.417 159.201 227.406 158.959C226.433 158.683 225.404 158.67 224.424 158.924C223.445 159.177 222.551 159.687 221.834 160.401C220.685 161.549 220.734 162.698 221.296 163.26Z" fill="#1253AC"/>
<path d="M191.456 165.777C192.34 165.923 193.248 165.813 194.071 165.459C194.976 165.166 195.88 164.922 196.662 164.751C197.444 164.58 198.397 164.409 199.326 164.262C200.205 164.237 201.057 163.948 201.77 163.431C202.356 162.869 202.332 161.671 201.134 160.474C200.317 159.714 199.326 159.168 198.247 158.882C197.169 158.596 196.037 158.581 194.951 158.836C193.89 159.058 192.908 159.564 192.112 160.3C191.316 161.036 190.734 161.975 190.43 163.016C190.039 164.482 190.65 165.459 191.456 165.777Z" fill="#1253AC"/>
<path d="M212.082 201.019L208.929 201.214C207.39 201.214 206.094 200.505 206.045 199.454L205.654 192.66L223.128 191.878C223.642 201.043 218.436 200.676 212.082 201.019Z" fill="white"/>
<path d="M215.601 178.265H209.564C208.895 178.261 208.236 178.095 207.644 177.781C207.052 177.467 206.545 177.015 206.166 176.463C205.786 175.911 205.546 175.275 205.466 174.61C205.385 173.945 205.467 173.271 205.703 172.644L208.978 159.936C208.988 159.853 209.015 159.772 209.058 159.701C209.102 159.629 209.16 159.567 209.229 159.52C209.299 159.472 209.377 159.441 209.46 159.426C209.543 159.412 209.627 159.415 209.708 159.436C209.79 159.458 209.865 159.496 209.93 159.549C209.995 159.602 210.048 159.668 210.086 159.743C210.123 159.818 210.144 159.901 210.147 159.984C210.149 160.068 210.134 160.152 210.102 160.229L206.827 172.986C206.646 173.444 206.578 173.938 206.629 174.428C206.68 174.917 206.849 175.387 207.12 175.797C207.394 176.191 207.76 176.513 208.185 176.734C208.611 176.956 209.084 177.07 209.564 177.068H215.601C215.739 177.096 215.863 177.171 215.952 177.28C216.041 177.389 216.09 177.526 216.09 177.666C216.09 177.807 216.041 177.944 215.952 178.053C215.863 178.162 215.739 178.237 215.601 178.265Z" fill="#1253AC"/>
<path opacity="0.89" d="M222.077 274.018L219.242 268.3L215.772 274.947C215.559 275.316 215.253 275.624 214.884 275.838C214.515 276.052 214.097 276.166 213.67 276.169H209.418C209.02 276.177 208.627 276.08 208.279 275.887C207.932 275.693 207.641 275.411 207.438 275.069L203.113 267.738L200.253 273.456L206.314 284.845L199.935 359.922C199.886 360.139 199.886 360.365 199.935 360.582L210.029 388.174C210.14 388.473 210.34 388.731 210.602 388.914C210.864 389.096 211.176 389.194 211.495 389.194C211.814 389.194 212.126 389.096 212.388 388.914C212.65 388.731 212.85 388.473 212.961 388.174L222.395 360.606C222.445 360.406 222.445 360.196 222.395 359.995L216.75 285.212C216.75 285.065 216.97 284.918 217.067 284.747L222.077 274.018ZM216.798 317.618C216.822 317.723 216.822 317.831 216.798 317.936L212.204 331.353C212.149 331.497 212.053 331.621 211.926 331.708C211.799 331.796 211.649 331.843 211.495 331.843C211.341 331.843 211.191 331.796 211.064 331.708C210.938 331.621 210.841 331.497 210.786 331.353L205.899 317.911C205.875 317.807 205.875 317.698 205.899 317.593L208.562 286.262H209.002H214.477L216.798 317.618Z" fill="#F0B82B"/>
<path opacity="0.89" d="M214.355 286.335H208.881H208.441L205.826 317.618C205.803 317.722 205.803 317.831 205.826 317.935L210.714 331.377C210.768 331.521 210.865 331.645 210.992 331.732C211.118 331.82 211.269 331.867 211.423 331.867C211.576 331.867 211.727 331.82 211.853 331.732C211.98 331.645 212.077 331.521 212.131 331.377L216.726 317.96C216.749 317.855 216.749 317.747 216.726 317.642L214.282 286.36L214.355 286.335Z" fill="#F0B82B"/>
<path opacity="0.13" d="M214.355 286.335H208.881H208.441L205.826 317.618C205.803 317.722 205.803 317.831 205.826 317.935L210.714 331.377C210.768 331.521 210.865 331.645 210.992 331.732C211.118 331.82 211.269 331.867 211.423 331.867C211.576 331.867 211.727 331.82 211.853 331.732C211.98 331.645 212.077 331.521 212.131 331.377L216.726 317.96C216.749 317.855 216.749 317.747 216.726 317.642L214.282 286.36L214.355 286.335Z" fill="#C5D9FF"/>
<path opacity="0.89" d="M203.113 267.713L207.439 275.045C207.642 275.387 207.932 275.669 208.28 275.862C208.628 276.055 209.021 276.153 209.419 276.145H213.671C214.098 276.142 214.516 276.028 214.885 275.813C215.253 275.599 215.56 275.292 215.773 274.923L219.243 268.275L211.032 251.852L203.113 267.713Z" fill="#F0B82B"/>
<path opacity="0.13" d="M203.113 267.713L207.439 275.045C207.642 275.387 207.932 275.669 208.28 275.862C208.628 276.055 209.021 276.153 209.419 276.145H213.671C214.098 276.142 214.516 276.028 214.885 275.813C215.253 275.599 215.56 275.292 215.773 274.923L219.243 268.275L211.032 251.852L203.113 267.713Z" fill="#C5D9FF"/>
<path d="M242.239 224.578L211.006 250.043L179.797 224.578L164.205 247.99L198.664 276.584L200.253 273.431L203.112 267.688L211.006 251.876L219.218 268.299L222.077 273.994L223.372 276.584L257.832 247.99L242.239 224.578Z" fill="white"/>
</g>
<path d="M342.514 204.195C341.954 203.904 341.337 203.736 340.705 203.703C340.074 203.67 339.443 203.773 338.855 204.005C338.266 204.236 337.735 204.591 337.295 205.046C336.856 205.5 336.519 206.044 336.307 206.639C335.036 209.719 333.741 212.798 332.494 215.902C332.91 214.851 335.672 191.829 335.769 189.727C336.193 187.784 336.109 185.764 335.525 183.862C335.262 183.538 334.931 183.275 334.555 183.093C334.179 182.912 333.767 182.815 333.35 182.811C332.469 182.66 331.563 182.788 330.759 183.178C330.02 183.615 329.458 184.299 329.171 185.108C328.871 185.896 328.666 186.716 328.56 187.552C327.436 194.371 326.116 201.189 325.285 208.057C325.48 198.648 326.409 189.336 326.996 179.927C327.18 178.456 327.081 176.962 326.702 175.528C326.489 174.819 326.076 174.186 325.512 173.705C324.949 173.224 324.259 172.915 323.525 172.816C322.836 172.833 322.165 173.037 321.583 173.408C321.002 173.778 320.533 174.3 320.226 174.917C319.628 176.162 319.255 177.502 319.126 178.876C318.523 183.21 317.904 187.52 317.269 191.805C316.951 194.004 316.658 196.179 316.34 198.355L315.876 201.556C315.877 202.588 315.703 203.612 315.363 204.587C315.262 202.654 315.319 200.717 315.534 198.794C315.534 196.766 315.656 194.738 315.729 192.709L316.169 180.661C316.271 179.192 316.213 177.717 315.998 176.262C315.773 174.799 315.088 173.447 314.043 172.4C313.511 171.888 312.855 171.523 312.139 171.343C311.423 171.163 310.672 171.174 309.962 171.374C309.005 171.75 308.203 172.439 307.689 173.329C307.189 174.211 306.811 175.156 306.564 176.139C305.541 179.838 304.774 183.602 304.267 187.406C303.681 191.414 303.143 195.446 302.703 199.479C302.508 201.141 302.239 203.413 300.528 204.22C300.183 204.384 299.807 204.471 299.426 204.476C299.044 204.48 298.666 204.402 298.318 204.247C297.969 204.091 297.659 203.861 297.407 203.574C297.156 203.287 296.97 202.949 296.862 202.583C296.105 199.845 295.445 197.108 294.687 194.371C294.287 192.207 293.104 190.267 291.363 188.921C290.598 188.401 289.718 188.075 288.799 187.971C287.879 187.867 286.949 187.989 286.087 188.326C285.226 188.663 284.459 189.205 283.854 189.905C283.249 190.605 282.823 191.441 282.614 192.342C282.394 193.579 282.394 194.845 282.614 196.082C284.032 209.45 285.254 222.647 286.475 235.942L327.656 245.938L342.319 211.283C344.323 206.542 343.81 204.978 342.514 204.195Z" fill="#FFE4C5"/>
<path opacity="0.46" d="M305.269 224.529C305.372 224.501 305.464 224.444 305.538 224.367C305.611 224.289 305.662 224.194 305.684 224.089C306.539 220.2 306.244 216.147 304.833 212.423C303.423 208.699 300.958 205.467 297.742 203.121C297.615 203.048 297.465 203.028 297.323 203.065C297.182 203.101 297.06 203.191 296.984 203.316C296.944 203.377 296.916 203.445 296.903 203.516C296.89 203.587 296.892 203.661 296.908 203.731C296.924 203.802 296.954 203.869 296.996 203.928C297.039 203.987 297.093 204.036 297.155 204.074C300.225 206.264 302.574 209.318 303.901 212.848C305.229 216.378 305.475 220.223 304.609 223.894C304.587 224.036 304.621 224.181 304.702 224.299C304.784 224.417 304.908 224.5 305.049 224.529H305.269Z" fill="#EFB392"/>
<path d="M284.153 235.356C283.27 235.142 282.353 235.115 281.46 235.276C280.567 235.437 279.717 235.783 278.964 236.291C278.212 236.8 277.575 237.459 277.092 238.228C276.609 238.997 276.292 239.858 276.161 240.757L261.791 337.071V338.978C261.791 376.198 316.29 379.791 321.227 342.888L333.178 253.343C333.427 251.731 333.063 250.084 332.158 248.727C331.254 247.37 329.874 246.401 328.29 246.011H327.728L286.475 235.942L284.153 235.356Z" fill="#F2F2F2"/>
<path d="M330.222 270.255C330.46 270.222 330.683 270.119 330.862 269.957C331.041 269.796 331.167 269.584 331.224 269.351C331.26 269.198 331.265 269.04 331.238 268.885C331.212 268.731 331.155 268.583 331.071 268.451C330.986 268.319 330.877 268.205 330.748 268.116C330.618 268.027 330.473 267.965 330.319 267.933L285.034 257.449L282.37 244.252C282.341 244.098 282.281 243.953 282.195 243.823C282.109 243.693 281.998 243.581 281.868 243.495C281.738 243.408 281.593 243.349 281.44 243.319C281.287 243.29 281.129 243.291 280.977 243.323C280.671 243.388 280.402 243.57 280.228 243.83C280.055 244.09 279.99 244.408 280.048 244.716L282.712 257.913C282.802 258.384 283.028 258.818 283.362 259.161C283.697 259.505 284.125 259.742 284.594 259.844L329.904 270.328C330.014 270.326 330.122 270.301 330.222 270.255Z" fill="#F9F9F9"/>
<path d="M291.045 253.759C289.99 253.513 289.074 252.864 288.493 251.95C287.913 251.035 287.714 249.93 287.941 248.871C288.113 248.137 288.482 247.465 289.008 246.926C289.534 246.387 290.197 246.003 290.926 245.814C291.655 245.625 292.422 245.639 293.144 245.854C293.866 246.069 294.515 246.478 295.021 247.036C295.527 247.593 295.871 248.279 296.016 249.018C296.161 249.757 296.101 250.521 295.842 251.229C295.584 251.936 295.137 252.56 294.55 253.031C293.963 253.503 293.258 253.805 292.511 253.905C292.018 253.954 291.519 253.904 291.045 253.759ZM290.238 249.335C290.159 249.785 290.256 250.247 290.507 250.628C290.759 251.009 291.147 251.278 291.592 251.382C292.036 251.485 292.503 251.414 292.897 251.183C293.291 250.953 293.581 250.58 293.709 250.142C293.812 249.682 293.733 249.2 293.486 248.798C293.24 248.396 292.846 248.107 292.389 247.991C292.179 247.955 291.964 247.955 291.754 247.991C291.397 248.041 291.063 248.196 290.794 248.435C290.524 248.674 290.331 248.987 290.238 249.335Z" fill="#F9F9F9"/>
<path opacity="0.89" d="M99.0021 113.453C108.612 113.443 118.044 116.048 126.287 120.99C134.53 125.931 141.273 133.022 145.793 141.502C150.314 149.983 152.441 159.534 151.948 169.132C151.454 178.729 148.359 188.012 142.993 195.984C142.993 196.131 143.359 197.769 143.555 198.844C145.043 205.334 148.449 211.227 153.33 215.756C158.072 219.764 143.97 222.916 133.779 216.22C131.576 214.785 129.681 212.923 128.207 210.746C121.308 215.271 113.448 218.121 105.253 219.07C97.0573 220.019 88.7535 219.04 81.0034 216.212C73.2533 213.383 66.2713 208.783 60.6139 202.778C54.9565 196.773 50.7803 189.53 48.4182 181.625C46.0561 173.72 45.5735 165.373 47.0088 157.248C48.4441 149.124 51.7576 141.447 56.6852 134.831C61.6128 128.214 68.0181 122.839 75.3906 119.136C82.763 115.434 90.8986 113.504 99.1488 113.502L99.0021 113.453Z" fill="#F0B82B"/>
<path d="M95.8294 153.985V180H89.4924V169.29H79.6347V180H73.2976V153.985H79.6347V164.176H89.4924V153.985H95.8294ZM106.556 157.172C105.444 157.172 104.53 156.851 103.814 156.208C103.122 155.541 102.776 154.726 102.776 153.762C102.776 152.774 103.122 151.959 103.814 151.316C104.53 150.649 105.444 150.316 106.556 150.316C107.643 150.316 108.532 150.649 109.224 151.316C109.941 151.959 110.299 152.774 110.299 153.762C110.299 154.726 109.941 155.541 109.224 156.208C108.532 156.851 107.643 157.172 106.556 157.172ZM109.706 159.321V180H103.369V159.321H109.706ZM125.601 153.058L124.86 170.809H119.487L118.745 153.058H125.601ZM122.266 180.296C121.154 180.296 120.24 179.975 119.524 179.333C118.832 178.666 118.486 177.851 118.486 176.887C118.486 175.899 118.832 175.071 119.524 174.404C120.24 173.737 121.154 173.404 122.266 173.404C123.353 173.404 124.242 173.737 124.934 174.404C125.651 175.071 126.009 175.899 126.009 176.887C126.009 177.851 125.651 178.666 124.934 179.333C124.242 179.975 123.353 180.296 122.266 180.296Z" fill="white"/>
</svg>
