<svg width="17" height="17" viewBox="0 0 17 17" fill="none" xmlns="http://www.w3.org/2000/svg">
<path fill-rule="evenodd" clip-rule="evenodd" d="M14.5376 15.0961H14.5084C14.6285 12.8026 13.1875 10.1734 10.5835 9.10923C11.0567 8.55699 11.353 7.8381 11.353 7.05439C11.353 5.30841 9.93806 3.88865 8.19287 3.88865C6.44768 3.88865 5.03273 5.30129 5.03273 7.04648C5.03273 7.83098 5.33452 8.53799 5.80776 9.09023C3.58223 9.99877 1.89709 12.135 1.89709 14.6608V2.45556H14.5376V15.0961ZM6.6128 7.04407C6.6128 6.17266 7.32146 5.464 8.19287 5.464C9.06428 5.464 9.77294 6.17266 9.77294 7.04407C9.77294 7.90362 9.08166 8.60278 8.22606 8.62095C8.21499 8.62095 8.20393 8.61941 8.19287 8.61941C8.18102 8.61941 8.17075 8.62095 8.1589 8.62095C7.30408 8.60278 6.6128 7.90362 6.6128 7.04407ZM12.9283 15.0961H3.45741C3.45741 15.0961 3.45266 15.0053 3.45266 14.9729C3.45266 12.4756 5.42301 10.2532 8.22606 10.2058C10.8245 10.224 12.9331 12.3705 12.9331 14.9729C12.9331 15.0053 12.9283 15.0961 12.9283 15.0961ZM0.317017 16.6762H16.1177V0.875488H0.317017V16.6762Z" fill="#094DB3"/>
</svg>
