<svg width="24" height="24" viewBox="0 0 24 24" fill="none" xmlns="http://www.w3.org/2000/svg">
<path d="M4.47004 1.91618C2.16052 2.96983 0.202216 3.91705 0.127715 4.01283C0.0319288 4.15119 0 5.92857 0 12.0483C0 19.7644 0 19.9027 0.212859 20.1156C0.329931 20.2327 0.510861 20.3285 0.617291 20.3285C0.713077 20.3285 2.78845 20.5839 5.21504 20.9032C7.64163 21.2225 9.64251 21.4673 9.66379 21.446C9.68508 21.4353 9.61058 21.2331 9.50415 21.0096C9.40836 20.7755 9.31257 20.5839 9.31257 20.5733C9.30193 20.552 1.18137 19.477 1.03237 19.477C0.989794 19.477 0.957865 16.1671 0.957865 12.1334C0.957865 5.06649 0.968508 4.78977 1.14944 4.78977C1.39423 4.78977 4.53389 5.1942 4.87447 5.27934C5.11926 5.33256 5.11926 5.33256 5.0554 6.631C4.93832 8.79152 4.81061 12.1866 4.84254 12.2185C4.86382 12.2398 5.38533 11.9631 6.01326 11.6119C6.63055 11.25 7.17334 10.9627 7.19463 10.9627C7.22656 10.9627 7.74806 11.2926 8.35471 11.7077C8.96136 12.1121 9.4935 12.4527 9.52543 12.4527C9.55736 12.4527 9.57865 10.9946 9.57865 9.20659C9.57865 6.04564 9.58929 5.96049 9.79151 5.96049C10.0789 5.96049 16.1986 6.80129 16.3688 6.86514C16.4753 6.90772 16.4966 7.227 16.4753 8.24873L16.4433 9.57909H16.901H17.348V8.16358V6.75871L20.0407 5.02391L22.7227 3.29976L22.7759 7.64208L22.8291 11.9844L23.2335 12.5378C23.457 12.8358 23.6699 13.0913 23.6912 13.0913C23.7763 13.0913 23.606 2.19289 23.5209 2.09711C23.4783 2.04389 8.88686 -0.0208397 8.69528 0.00044632C8.68464 0.00044632 6.77955 0.862524 4.47004 1.91618ZM10.0895 1.08603C10.5684 1.14988 10.9622 1.23503 10.9622 1.26696C10.9516 1.29889 9.80215 2.04389 8.38664 2.91661L5.81105 4.49177L3.96982 4.24698C2.95874 4.11926 2.14987 3.99155 2.17116 3.95962C2.34145 3.79998 8.72721 0.968954 8.94007 0.968954C9.08907 0.958311 9.59993 1.01152 10.0895 1.08603ZM18.9444 2.28868C20.4344 2.49089 21.7329 2.67182 21.818 2.69311C21.9457 2.7144 17.2203 5.74763 16.7839 5.91792C16.6456 5.97114 11.3986 5.32192 10.6536 5.15163C10.4407 5.10906 10.8771 4.81106 13.0482 3.50197C14.6021 2.57604 15.8048 1.91618 15.9644 1.91618C16.1134 1.91618 17.4544 2.08646 18.9444 2.28868Z" fill="#8D4520"/>
<path d="M16.23 11.569C14.6442 11.7819 13.1009 12.6759 12.1005 13.9531C10.2167 16.3903 10.4189 19.9557 12.5581 22.1268C13.814 23.404 15.2295 23.9894 17.0282 24C18.4437 24 19.4016 23.7126 20.5404 22.9357C21.9133 22.0098 22.8073 20.6581 23.1372 19.0297C23.3501 18.0187 23.3501 17.5078 23.1479 16.5499C22.4774 13.3677 19.4016 11.1433 16.23 11.569ZM16.4747 14.4533L16.5067 14.9003H17.4113C17.9328 14.9003 18.4543 14.9641 18.6565 15.0493C19.1355 15.2409 19.5506 15.7624 19.7421 16.4116C20.0508 17.4652 19.8911 17.7313 19.3164 17.1353C18.9226 16.7309 18.167 16.4967 17.2304 16.4967H16.5067L16.4747 16.9437C16.4535 17.2098 16.3896 17.4014 16.3151 17.4014C16.1235 17.4014 14.1546 15.8475 14.1546 15.6879C14.1546 15.5282 16.1767 13.9211 16.3257 13.9743C16.3896 13.9956 16.4535 14.2085 16.4747 14.4533ZM14.7399 18.4125C15.1444 18.8275 15.8362 19.051 16.7834 19.051H17.5603V18.6998C17.5603 18.189 17.6987 18.0293 17.9541 18.2102C18.9013 18.8914 19.9018 19.7428 19.9018 19.8599C19.9018 20.0728 17.9009 21.6373 17.7093 21.5628C17.6135 21.5308 17.5603 21.3499 17.5603 21.0732V20.6475H16.5812C15.4424 20.6475 15.0805 20.4878 14.6442 19.828C14.3674 19.3916 14.0907 18.3805 14.2078 18.1996C14.3142 18.0293 14.41 18.0719 14.7399 18.4125Z" fill="#8D4520"/>
</svg>
